{
.appVersion = "1230";
DisplayStrings = (
"/gimel-hb  \012/gimel-hb/nun-hb",
"/resh-hb/vav-hb/nun-hb/yod-hb",
"/gimel-hb/resh-hb/vav-hb/nun-hb/yod-hb/finalnun-hb",
"/gimel-hb/nun-hb/vav-hb/gimel-hb/nun-hb/resh-hb",
"/nun-hb/vav-hb/kaf-hb/het-hb  /vav-hb/lamed-hb/yod-hb/samekh-hb/yod-hb/vav-hb  /het-hb/kaf-hb/vav-hb/samekh-hb  /resh-hb/vav-hb/het-hb",
"/qof-hb/vav-hb/lamed-hb/resh-hb",
"/resh-hb/nun-hb/kaf-hb/pe-hb/pe-hb/he-hb",
"/pe-hb/resh-hb/yod-hb/het-hb/he-hb",
"",
"/nun-hb/vav-hb/bet-hb/he-hb",
"/samekh-hb",
"/dalet-hb/bet-hb  /he-hb/vav-hb/zayin-hb  /vav-hb/samekh-hb/yod-hb/yod-hb/zayin-hb/lamed-hb",
"/gimel-hb/bet-hb/yod-hb/resh-hb/vav-hb/tav-hb/yod-hb  /vav-hb/resh-hb/bet-hb/vav-hb/tav-hb/yod-hb",
"/bet-hb/het-hb///vav-hb/vav-hb/he-hb",
"/tav-hb"
);
customParameters = (
{
name = Axes;
value = (
{
Name = Weight;
Tag = wght;
},
{
Name = Contrast;
Tag = ctrs;
},
{
Name = Style;
Tag = styl;
}
);
}
);
date = "2018-02-24 09:21:28 +0000";
designer = "Daniel Grumer";
familyName = "Noordzij Tribute v2";
fontMaster = (
{
ascender = 800;
capHeight = 700;
custom = "BroadNib-Contrast-Regular";
customParameters = (
{
name = "Master Icon Glyph Name";
value = "gimel-hb";
}
);
descender = -200;
guideLines = (
{
angle = 254;
position = "{125, 166}";
},
{
position = "{170, 397}";
},
{
position = "{222, 99}";
}
);
iconName = Light_Condensed;
id = "D0BE0C1E-19E7-43D2-9BC3-AB141F408D31";
userData = {
GSCornerRadius = 115;
};
weightValue = 40;
widthValue = 40;
xHeight = 500;
},
{
ascender = 800;
capHeight = 700;
custom = "BroadNib-Contrast-";
customParameters = (
{
name = "Master Icon Glyph Name";
value = "gimel-hb";
}
);
descender = -200;
guideLines = (
{
position = "{178, 318}";
},
{
angle = 257.9413;
position = "{614, 292}";
},
{
position = "{186, 500}";
},
{
position = "{178, 248}";
}
);
id = "AFDF4EF8-A213-4348-ACF7-371209F0497C";
name = "BroadNib-Contrast-Bold";
weight = Bold;
weightValue = 80;
widthValue = 40;
xHeight = 500;
},
{
ascender = 800;
capHeight = 700;

glyphs = (
{
glyphname = e;
lastChange = "2018-10-09 14:16:28 +0000";
layers = (
{
layerId = "D0BE0C1E-19E7-43D2-9BC3-AB141F408D31";
paths = (
{
closed = 1;
nodes = (
"331 0 OFFCURVE",
"413 28 OFFCURVE",
"454 111 CURVE",
"426 135 LINE",
"379 89 OFFCURVE",
"325 82 OFFCURVE",
"290 82 CURVE SMOOTH",
"195 82 OFFCURVE",
"135 144 OFFCURVE",
"132 259 CURVE SMOOTH",
"128 391 OFFCURVE",
"178 426 OFFCURVE",
"245 426 CURVE SMOOTH",
"328 426 OFFCURVE",
"370 374 OFFCURVE",
"370 304 CURVE SMOOTH",
"370 297 OFFCURVE",
"370 294 OFFCURVE",
"368 289 CURVE",
"393 312 LINE",
"91 312 LINE",
"93 258 LINE",
"460 258 LINE",
"463 266 OFFCURVE",
"465 298 OFFCURVE",
"465 315 CURVE SMOOTH",
"465 445 OFFCURVE",
"377 499 OFFCURVE",
"273 499 CURVE SMOOTH",
"159 499 OFFCURVE",
"35 386 OFFCURVE",
"35 231 CURVE SMOOTH",
"35 99 OFFCURVE",
"110 0 OFFCURVE",
"256 0 CURVE SMOOTH"
);
}
);
width = 500;
},
{
layerId = "AFDF4EF8-A213-4348-ACF7-371209F0497C";
paths = (
{
closed = 1;
nodes = (
"365 -15 OFFCURVE",
"465 74 OFFCURVE",
"480 201 CURVE",
"449 216 LINE",
"415 173 OFFCURVE",
"361 158 OFFCURVE",
"327 158 CURVE SMOOTH",
"245 158 OFFCURVE",
"220 189 OFFCURVE",
"220 336 CURVE SMOOTH",
"220 403 OFFCURVE",
"230 452 OFFCURVE",
"256 452 CURVE SMOOTH",
"280 452 OFFCURVE",
"287 405 OFFCURVE",
"287 327 CURVE SMOOTH",
"287 315 OFFCURVE",
"287 306 OFFCURVE",
"282 297 CURVE",
"314 318 LINE",
"72 318 LINE",
"74 265 LINE",
"481 265 LINE",
"484 290 OFFCURVE",
"484 323 OFFCURVE",
"484 336 CURVE SMOOTH",
"484 458 OFFCURVE",
"401 514 OFFCURVE",
"290 514 CURVE SMOOTH",
"145 514 OFFCURVE",
"13 395 OFFCURVE",
"13 226 CURVE SMOOTH",
"13 71 OFFCURVE",
"115 -15 OFFCURVE",
"244 -15 CURVE SMOOTH"
);
}
);
width = 500;
},
{
layerId = "A396904D-C838-4FF7-A96F-91F438939708";
paths = (
{
closed = 1;
nodes = (
"344 -8 OFFCURVE",
"418 15 OFFCURVE",
"464 62 CURVE",
"464 190 LINE",
"420 161 OFFCURVE",
"362 150 OFFCURVE",
"312 150 CURVE SMOOTH",
"220 150 OFFCURVE",
"208 173 OFFCURVE",
"208 284 CURVE SMOOTH",
"208 369 OFFCURVE",
"226 387 OFFCURVE",
"254 387 CURVE SMOOTH",
"286 387 OFFCURVE",
"297 354 OFFCURVE",
"297 316 CURVE SMOOTH",
"297 306 OFFCURVE",
"297 297 OFFCURVE",
"292 291 CURVE",
"324 315 LINE",
"72 315 LINE",
"74 218 LINE",
"478 218 LINE",
"483 248 OFFCURVE",
"484 294 OFFCURVE",
"484 309 CURVE SMOOTH",
"484 445 OFFCURVE",
"401 514 OFFCURVE",
"285 514 CURVE SMOOTH",
"139 514 OFFCURVE",
"13 405 OFFCURVE",
"13 228 CURVE SMOOTH",
"13 76 OFFCURVE",
"105 -8 OFFCURVE",
"262 -8 CURVE SMOOTH"
);
}
);
width = 500;
},
{
layerId = "5539344D-F27C-4FBD-A9E2-D2F022F19CCA";
paths = (
{
closed = 1;
nodes = (
"330 0 OFFCURVE",
"410 23 OFFCURVE",
"450 70 CURVE",
"450 139 LINE",
"390 86 OFFCURVE",
"331 77 OFFCURVE",
"286 77 CURVE SMOOTH",
"179 77 OFFCURVE",
"131 131 OFFCURVE",
"127 253 CURVE SMOOTH",
"124 369 OFFCURVE",
"177 429 OFFCURVE",
"253 429 CURVE SMOOTH",
"330 429 OFFCURVE",
"376 380 OFFCURVE",
"376 307 CURVE SMOOTH",
"376 297 OFFCURVE",
"376 294 OFFCURVE",
"374 289 CURVE",
"423 312 LINE",
"91 312 LINE",
"93 252 LINE",
"460 252 LINE",
"464 270 OFFCURVE",
"465 293 OFFCURVE",
"465 311 CURVE SMOOTH",
"465 434 OFFCURVE",
"377 500 OFFCURVE",
"273 500 CURVE SMOOTH",
"149 500 OFFCURVE",
"35 396 OFFCURVE",
"35 231 CURVE SMOOTH",
"35 99 OFFCURVE",
"110 0 OFFCURVE",
"264 0 CURVE SMOOTH"
);
}
);
width = 500;
},
{
layerId = "798D7B20-9AF4-495F-9307-CAE61518AA1C";
paths = (
{
closed = 1;
nodes = (
"362 0 OFFCURVE",
"434 42 OFFCURVE",
"461 114 CURVE",
"406 144 LINE",
"385 94 OFFCURVE",
"337 70 OFFCURVE",
"271 70 CURVE SMOOTH",
"180 70 OFFCURVE",
"126 125 OFFCURVE",
"123 250 CURVE SMOOTH",
"120 366 OFFCURVE",
"180 435 OFFCURVE",
"271 435 CURVE SMOOTH",
"346 435 OFFCURVE",
"383 383 OFFCURVE",
"383 290 CURVE SMOOTH",
"383 288 OFFCURVE",
"383 284 OFFCURVE",
"383 279 CURVE",
"411 308 LINE",
"92 308 LINE",
"92 243 LINE",
"473 243 LINE",
"473 259 OFFCURVE",
"473 273 OFFCURVE",
"473 290 CURVE SMOOTH",
"473 412 OFFCURVE",
"400 505 OFFCURVE",
"271 505 CURVE SMOOTH",
"132 505 OFFCURVE",
"33 397 OFFCURVE",
"33 250 CURVE SMOOTH",
"33 93 OFFCURVE",
"132 0 OFFCURVE",
"271 0 CURVE SMOOTH"
);
}
);
width = 500;
},
{
layerId = "C42C1682-C410-46D1-BF5A-F68DB0880154";
paths = (
{
closed = 1;
nodes = (
"337 0 OFFCURVE",
"443 39 OFFCURVE",
"472 135 CURVE",
"442 148 LINE",
"408 68 OFFCURVE",
"335 40 OFFCURVE",
"270 40 CURVE SMOOTH",
"174 40 OFFCURVE",
"131 108 OFFCURVE",
"128 250 CURVE SMOOTH",
"125 381 OFFCURVE",
"174 460 OFFCURVE",
"260 460 CURVE SMOOTH",
"340 460 OFFCURVE",
"378 395 OFFCURVE",
"378 289 CURVE SMOOTH",
"378 287 OFFCURVE",
"378 284 OFFCURVE",
"378 280 CURVE",
"397 293 LINE",
"92 293 LINE",
"92 255 LINE",
"473 255 LINE",
"473 259 OFFCURVE",
"473 273 OFFCURVE",
"473 289 CURVE SMOOTH",
"473 412 OFFCURVE",
"394 500 OFFCURVE",
"260 500 CURVE SMOOTH",
"126 500 OFFCURVE",
"33 397 OFFCURVE",
"33 250 CURVE SMOOTH",
"33 93 OFFCURVE",
"126 0 OFFCURVE",
"270 0 CURVE SMOOTH"
);
}
);
width = 500;
},
{
layerId = "E84AB450-BED0-484C-851E-2EB7B7ED9E73";
paths = (
{
closed = 1;
nodes = (
"348 -7 OFFCURVE",
"451 35 OFFCURVE",
"480 142 CURVE",
"446 156 LINE",
"411 61 OFFCURVE",
"335 33 OFFCURVE",
"296 33 CURVE SMOOTH",
"243 33 OFFCURVE",
"219 59 OFFCURVE",
"218 250 CURVE SMOOTH",
"217 449 OFFCURVE",
"233 467 OFFCURVE",
"260 467 CURVE SMOOTH",
"279 467 OFFCURVE",
"298 446 OFFCURVE",
"298 282 CURVE SMOOTH",
"298 280 OFFCURVE",
"298 277 OFFCURVE",
"298 273 CURVE",
"315 288 LINE",
"87 288 LINE",
"87 248 LINE",
"483 248 LINE",
"483 251 OFFCURVE",
"483 262 OFFCURVE",
"483 282 CURVE SMOOTH",
"483 426 OFFCURVE",
"414 505 OFFCURVE",
"260 505 CURVE SMOOTH",
"116 505 OFFCURVE",
"18 422 OFFCURVE",
"18 250 CURVE SMOOTH",
"18 56 OFFCURVE",
"117 -7 OFFCURVE",
"276 -7 CURVE SMOOTH"
);
}
);
width = 500;
},
{
layerId = "FB8990CA-0F96-4B7B-86A4-9D429D534475";
paths = (
{
closed = 1;
nodes = (
"372 -8 OFFCURVE",
"464 62 OFFCURVE",
"483 164 CURVE",
"347 185 LINE",
"330 143 OFFCURVE",
"296 127 OFFCURVE",
"268 127 CURVE SMOOTH",
"225 127 OFFCURVE",
"188 153 OFFCURVE",
"188 257 CURVE SMOOTH",
"188 362 OFFCURVE",
"216 383 OFFCURVE",
"248 383 CURVE SMOOTH",
"280 383 OFFCURVE",
"308 362 OFFCURVE",
"308 297 CURVE SMOOTH",
"308 291 OFFCURVE",
"308 286 OFFCURVE",
"308 282 CURVE",
"324 311 LINE",
"67 311 LINE",
"69 215 LINE",
"486 215 LINE",
"486 239 OFFCURVE",
"486 258 OFFCURVE",
"486 270 CURVE SMOOTH",
"486 403 OFFCURVE",
"393 514 OFFCURVE",
"253 514 CURVE SMOOTH",
"113 514 OFFCURVE",
"8 403 OFFCURVE",
"8 257 CURVE SMOOTH",
"8 100 OFFCURVE",
"106 -8 OFFCURVE",
"253 -8 CURVE SMOOTH"
);
}
);
width = 500;
}
);
unicode = 0065;
},
{
color = 4;
glyphname = "bet-hb";
lastChange = "2019-04-07 15:08:57 +0000";
layers = (
{
associatedMasterId = "D0BE0C1E-19E7-43D2-9BC3-AB141F408D31";
layerId = "0D2F9F62-6D50-490D-B425-4005BBEB55D2";
name = "new Layer";
paths = (
{
closed = 0;
nodes = (
"509 0 LINE",
"509 354 LINE SMOOTH",
"509 468 OFFCURVE",
"456 493 OFFCURVE",
"335 493 CURVE SMOOTH",
"278 493 LINE SMOOTH",
"224 493 OFFCURVE",
"189 497 OFFCURVE",
"146 505 CURVE"
);
},
{
closed = 0;
nodes = (
"120 0 LINE",
"623 0 LINE"
);
}
);
width = 690;
},
{
background = {
paths = (
{
closed = 1;
nodes = (
"590 100 LINE",
"590 455 LINE SMOOTH",
"590 569 OFFCURVE",
"537 594 OFFCURVE",
"415 594 CURVE SMOOTH",
"358 594 LINE SMOOTH",
"304 594 OFFCURVE",
"269 598 OFFCURVE",
"226 606 CURVE",
"166 505 LINE",
"209 497 OFFCURVE",
"244 493 OFFCURVE",
"298 493 CURVE SMOOTH",
"355 493 LINE SMOOTH",
"476 493 OFFCURVE",
"529 468 OFFCURVE",
"529 354 CURVE SMOOTH",
"529 0 LINE"
);
},
{
closed = 1;
nodes = (
"643 0 LINE",
"704 100 LINE",
"200 100 LINE",
"140 0 LINE"
);
}
);
};
layerId = "D0BE0C1E-19E7-43D2-9BC3-AB141F408D31";
paths = (
{
closed = 1;
nodes = (
"364 0 LINE",
"377 32 OFFCURVE",
"388 65 OFFCURVE",
"398 109 CURVE",
"398 192 OFFCURVE",
"399 279 OFFCURVE",
"397 357 CURVE SMOOTH",
"394 471 OFFCURVE",
"357 500 OFFCURVE",
"251 500 CURVE SMOOTH",
"201 500 LINE SMOOTH",
"152 500 OFFCURVE",
"142 500 OFFCURVE",
"109 516 CURVE",
"86 516 LINE",
"72 487 OFFCURVE",
"64 456 OFFCURVE",
"60 420 CURVE",
"96 400 OFFCURVE",
"134 397 OFFCURVE",
"190 397 CURVE SMOOTH",
"240 397 LINE SMOOTH",
"320 397 OFFCURVE",
"325 388 OFFCURVE",
"328 307 CURVE SMOOTH",
"331 237 OFFCURVE",
"333 152 OFFCURVE",
"336 0 CURVE"
);
},
{
closed = 1;
nodes = (
"434 0 LINE",
"445 29 OFFCURVE",
"453 64 OFFCURVE",
"460 100 CURVE",
"52 100 LINE",
"46 82 OFFCURVE",
"37 21 OFFCURVE",
"36 0 CURVE"
);
}
);
width = 480;
},
{
background = {
paths = (
{
closed = 1;
nodes = (
"595 180 LINE",
"595 535 LINE SMOOTH",
"595 649 OFFCURVE",
"542 674 OFFCURVE",
"420 674 CURVE SMOOTH",
"363 674 LINE SMOOTH",
"309 674 OFFCURVE",
"274 678 OFFCURVE",
"231 686 CURVE",
"146 505 LINE",
"189 497 OFFCURVE",
"224 493 OFFCURVE",
"278 493 CURVE SMOOTH",
"335 493 LINE SMOOTH",
"456 493 OFFCURVE",
"509 468 OFFCURVE",
"509 354 CURVE SMOOTH",
"509 0 LINE"
);
},
{
closed = 1;
nodes = (
"623 0 LINE",
"709 180 LINE",
"205 180 LINE",
"120 0 LINE"
);
}
);
};
layerId = "AFDF4EF8-A213-4348-ACF7-371209F0497C";
paths = (
{
closed = 1;
nodes = (
"333 0 LINE",
"348 56 OFFCURVE",
"363 113 OFFCURVE",
"372 177 CURVE",
"372 251 OFFCURVE",
"371 298 OFFCURVE",
"366 367 CURVE SMOOTH",
"359 466 OFFCURVE",
"319 500 OFFCURVE",
"217 500 CURVE SMOOTH",
"197 500 LINE SMOOTH",
"135 500 OFFCURVE",
"127 501 OFFCURVE",
"107 509 CURVE",
"82 509 LINE",
"66 469 OFFCURVE",
"47 389 OFFCURVE",
"46 336 CURVE",
"95 321 OFFCURVE",
"126 318 OFFCURVE",
"189 318 CURVE SMOOTH",
"209 318 LINE SMOOTH",
"270 318 OFFCURVE",
"280 304 OFFCURVE",
"284 226 CURVE SMOOTH",
"288 156 OFFCURVE",
"291 81 OFFCURVE",
"294 0 CURVE"
);
},
{
closed = 1;
nodes = (
"389 0 LINE",
"405 57 OFFCURVE",
"413 115 OFFCURVE",
"422 178 CURVE",
"53 182 LINE",
"45 141 OFFCURVE",
"30 52 OFFCURVE",
"25 0 CURVE"
);
}
);
width = 442;
},
{
background = {
paths = (
{
closed = 1;
nodes = (
"582 160 LINE",
"582 515 LINE SMOOTH",
"582 629 OFFCURVE",
"529 654 OFFCURVE",
"407 654 CURVE SMOOTH",
"350 654 LINE SMOOTH",
"296 654 OFFCURVE",
"261 658 OFFCURVE",
"218 666 CURVE",
"98 505 LINE",
"141 497 OFFCURVE",
"176 493 OFFCURVE",
"230 493 CURVE SMOOTH",
"287 493 LINE SMOOTH",
"408 493 OFFCURVE",
"461 468 OFFCURVE",
"461 354 CURVE SMOOTH",
"461 0 LINE"
);
},
{
closed = 1;
nodes = (
"575 0 LINE",
"696 160 LINE",
"192 160 LINE",
"72 0 LINE"
);
}
);
};
layerId = "A396904D-C838-4FF7-A96F-91F438939708";
paths = (
{
closed = 1;
nodes = (
"350 0 LINE",
"361 45 OFFCURVE",
"375 100 OFFCURVE",
"381 161 CURVE",
"379 234 OFFCURVE",
"380 316 OFFCURVE",
"376 378 CURVE SMOOTH",
"371 456 OFFCURVE",
"327 500 OFFCURVE",
"202 500 CURVE SMOOTH",
"182 500 LINE SMOOTH",
"137 500 OFFCURVE",
"127 502 OFFCURVE",
"97 512 CURVE",
"70 512 LINE",
"60 487 OFFCURVE",
"41 395 OFFCURVE",
"38 348 CURVE",
"66 339 OFFCURVE",
"116 335 OFFCURVE",
"143 335 CURVE SMOOTH",
"163 335 LINE SMOOTH",
"249 335 OFFCURVE",
"259 318 OFFCURVE",
"261 232 CURVE SMOOTH",
"263 180 OFFCURVE",
"267 79 OFFCURVE",
"267 0 CURVE"
);
},
{
closed = 1;
nodes = (
"402 0 LINE",
"414 45 OFFCURVE",
"429 106 OFFCURVE",
"433 167 CURVE",
"42 167 LINE",
"34 138 OFFCURVE",
"19 44 OFFCURVE",
"18 0 CURVE"
);
}
);
width = 452;
},
{
background = {
paths = (
{
closed = 1;
nodes = (
"560 90 LINE",
"560 445 LINE SMOOTH",
"560 559 OFFCURVE",
"507 584 OFFCURVE",
"385 584 CURVE SMOOTH",
"328 584 LINE SMOOTH",
"274 584 OFFCURVE",
"239 588 OFFCURVE",
"196 596 CURVE",
"121 505 LINE",
"164 497 OFFCURVE",
"199 493 OFFCURVE",
"253 493 CURVE SMOOTH",
"310 493 LINE SMOOTH",
"431 493 OFFCURVE",
"484 468 OFFCURVE",
"484 354 CURVE SMOOTH",
"484 0 LINE"
);
},
{
closed = 1;
nodes = (
"598 0 LINE",
"674 90 LINE",
"170 90 LINE",
"95 0 LINE"
);
}
);
};
layerId = "5539344D-F27C-4FBD-A9E2-D2F022F19CCA";
paths = (
{
closed = 1;
nodes = (
"380 0 LINE",
"385 31 OFFCURVE",
"389 64 OFFCURVE",
"391 104 CURVE",
"396 159 OFFCURVE",
"395 220 OFFCURVE",
"393 296 CURVE SMOOTH",
"389 449 OFFCURVE",
"381 500 OFFCURVE",
"258 500 CURVE SMOOTH",
"218 500 LINE SMOOTH",
"153 500 OFFCURVE",
"113 504 OFFCURVE",
"92 513 CURVE",
"70 513 LINE",
"58 486 OFFCURVE",
"48 456 OFFCURVE",
"45 433 CURVE",
"68 416 OFFCURVE",
"131 411 OFFCURVE",
"177 411 CURVE SMOOTH",
"217 411 LINE SMOOTH",
"319 411 OFFCURVE",
"312 396 OFFCURVE",
"318 278 CURVE SMOOTH",
"325 146 OFFCURVE",
"324 98 OFFCURVE",
"329 0 CURVE"
);
},
{
closed = 1;
nodes = (
"440 0 LINE",
"453 31 OFFCURVE",
"463 61 OFFCURVE",
"470 101 CURVE",
"48 101 LINE",
"42 76 OFFCURVE",
"33 19 OFFCURVE",
"34 0 CURVE"
);
}
);
width = 505;
},
{
background = {
paths = (
{
closed = 1;
nodes = (
"199 461 OFFCURVE",
"236 458 OFFCURVE",
"288 458 CURVE SMOOTH",
"345 458 LINE SMOOTH",
"459 458 OFFCURVE",
"484 438 OFFCURVE",
"484 354 CURVE SMOOTH",
"484 0 LINE",
"554 0 LINE",
"554 354 LINE SMOOTH",
"554 481 OFFCURVE",
"495 528 OFFCURVE",
"345 528 CURVE SMOOTH",
"288 528 LINE SMOOTH",
"240 528 OFFCURVE",
"207 531 OFFCURVE",
"162 539 CURVE",
"150 471 LINE"
);
},
{
closed = 1;
nodes = (
"130 35 LINE",
"130 -35 LINE",
"633 -35 LINE",
"633 35 LINE"
);
}
);
};
layerId = "798D7B20-9AF4-495F-9307-CAE61518AA1C";
paths = (
{
closed = 1;
nodes = (
"386 6 LINE",
"386 91 OFFCURVE",
"386 131 OFFCURVE",
"386 184 CURVE SMOOTH",
"386 235 OFFCURVE",
"386 257 OFFCURVE",
"386 295 CURVE SMOOTH",
"386 417 OFFCURVE",
"358 477 OFFCURVE",
"245 477 CURVE SMOOTH",
"225 477 LINE SMOOTH",
"183 477 OFFCURVE",
"134 477 OFFCURVE",
"79 477 CURVE",
"60 477 LINE",
"60 455 OFFCURVE",
"60 432 OFFCURVE",
"60 407 CURVE",
"83 407 OFFCURVE",
"179 407 OFFCURVE",
"225 407 CURVE SMOOTH",
"245 407 LINE SMOOTH",
"296 407 OFFCURVE",
"310 382 OFFCURVE",
"310 295 CURVE SMOOTH",
"310 124 OFFCURVE",
"310 194 OFFCURVE",
"310 6 CURVE"
);
},
{
closed = 1;
nodes = (
"446 0 LINE",
"446 23 OFFCURVE",
"446 47 OFFCURVE",
"446 70 CURVE",
"37 70 LINE",
"37 47 OFFCURVE",
"37 23 OFFCURVE",
"37 0 CURVE SMOOTH"
);
}
);
width = 461;
},
{
background = {
paths = (
{
closed = 1;
nodes = (
"232 441 OFFCURVE",
"265 438 OFFCURVE",
"316 438 CURVE SMOOTH",
"373 438 LINE SMOOTH",
"495 438 OFFCURVE",
"522 421 OFFCURVE",
"522 354 CURVE SMOOTH",
"522 0 LINE",
"572 0 LINE",
"572 354 LINE SMOOTH",
"572 497 OFFCURVE",
"518 548 OFFCURVE",
"373 548 CURVE SMOOTH",
"316 548 LINE SMOOTH",
"268 548 OFFCURVE",
"231 551 OFFCURVE",
"189 559 CURVE",
"179 451 LINE"
);
},
{
closed = 1;
nodes = (
"158 55 LINE",
"158 -55 LINE",
"661 -55 LINE",
"661 55 LINE"
);
}
);
};
layerId = "C42C1682-C410-46D1-BF5A-F68DB0880154";
paths = (
{
closed = 1;
nodes = (
"357 11 LINE",
"364 51 OFFCURVE",
"373 58 OFFCURVE",
"373 116 CURVE SMOOTH",
"373 165 OFFCURVE",
"373 221 OFFCURVE",
"373 282 CURVE SMOOTH",
"373 462 OFFCURVE",
"355 486 OFFCURVE",
"235 486 CURVE SMOOTH",
"201 486 LINE SMOOTH",
"115 486 OFFCURVE",
"106 492 OFFCURVE",
"96 512 CURVE",
"74 512 LINE",
"63 489 OFFCURVE",
"58 459 OFFCURVE",
"58 435 CURVE SMOOTH",
"58 382 OFFCURVE",
"71 377 OFFCURVE",
"201 377 CURVE SMOOTH",
"235 377 LINE SMOOTH",
"313 377 OFFCURVE",
"328 359 OFFCURVE",
"329 282 CURVE SMOOTH",
"330 178 OFFCURVE",
"327 66 OFFCURVE",
"326 11 CURVE"
);
},
{
closed = 1;
nodes = (
"416 0 LINE",
"421 25 OFFCURVE",
"422 81 OFFCURVE",
"419 106 CURVE",
"52 107 LINE",
"47 89 OFFCURVE",
"47 21 OFFCURVE",
"52 0 CURVE"
);
}
);
width = 460;
},
{
background = {
paths = (
{
closed = 1;
nodes = (
"186 401 OFFCURVE",
"216 398 OFFCURVE",
"266 398 CURVE SMOOTH",
"323 398 LINE SMOOTH",
"453 398 OFFCURVE",
"470 397 OFFCURVE",
"470 354 CURVE SMOOTH",
"470 0 LINE",
"524 0 LINE",
"524 354 LINE SMOOTH",
"524 521 OFFCURVE",
"473 588 OFFCURVE",
"323 588 CURVE SMOOTH",
"266 588 LINE SMOOTH",
"218 588 OFFCURVE",
"177 591 OFFCURVE",
"139 598 CURVE",
"129 412 LINE"
);
},
{
closed = 1;
nodes = (
"108 95 LINE",
"108 -95 LINE",
"611 -95 LINE",
"611 95 LINE"
);
}
);
};
layerId = "E84AB450-BED0-484C-851E-2EB7B7ED9E73";
paths = (
{
closed = 1;
nodes = (
"324 0 LINE",
"324 40 OFFCURVE",
"319 74 OFFCURVE",
"319 103 CURVE SMOOTH",
"319 170 OFFCURVE",
"320 206 OFFCURVE",
"320 272 CURVE SMOOTH",
"320 467 OFFCURVE",
"306 486 OFFCURVE",
"213 486 CURVE SMOOTH",
"136 486 LINE SMOOTH",
"89 486 OFFCURVE",
"66 489 OFFCURVE",
"61 512 CURVE",
"30 512 LINE",
"19 475 OFFCURVE",
"18 431 OFFCURVE",
"18 397 CURVE SMOOTH",
"18 311 OFFCURVE",
"50 294 OFFCURVE",
"136 294 CURVE SMOOTH",
"213 294 LINE SMOOTH",
"265 294 OFFCURVE",
"269 289 OFFCURVE",
"269 248 CURVE SMOOTH",
"269 165 OFFCURVE",
"267 83 OFFCURVE",
"275 0 CURVE"
);
},
{
closed = 1;
nodes = (
"353 0 LINE",
"366 30 OFFCURVE",
"363 165 OFFCURVE",
"355 194 CURVE",
"25 194 LINE",
"17 170 OFFCURVE",
"17 29 OFFCURVE",
"25 0 CURVE"
);
}
);
width = 357;
},
{
background = {
paths = (
{
closed = 1;
nodes = (
"178 435 OFFCURVE",
"218 431 OFFCURVE",
"271 431 CURVE SMOOTH",
"328 431 LINE SMOOTH",
"427 431 OFFCURVE",
"437 421 OFFCURVE",
"437 354 CURVE SMOOTH",
"437 0 LINE",
"567 0 LINE",
"567 354 LINE SMOOTH",
"567 496 OFFCURVE",
"494 555 OFFCURVE",
"328 555 CURVE SMOOTH",
"271 555 LINE SMOOTH",
"225 555 OFFCURVE",
"195 558 OFFCURVE",
"151 566 CURVE",
"127 444 LINE"
);
},
{
closed = 1;
nodes = (
"113 62 LINE",
"113 -62 LINE",
"616 -62 LINE",
"616 62 LINE"
);
}
);
};
layerId = "FB8990CA-0F96-4B7B-86A4-9D429D534475";
paths = (
{
closed = 1;
nodes = (
"410 0 LINE",
"410 47 OFFCURVE",
"410 87 OFFCURVE",
"410 119 CURVE SMOOTH",
"410 172 OFFCURVE",
"410 199 OFFCURVE",
"410 279 CURVE SMOOTH",
"410 459 OFFCURVE",
"355 500 OFFCURVE",
"182 500 CURVE SMOOTH",
"162 500 LINE SMOOTH",
"146 500 OFFCURVE",
"103 500 OFFCURVE",
"60 500 CURVE",
"34 500 LINE",
"34 479 OFFCURVE",
"34 400 OFFCURVE",
"34 374 CURVE",
"79 374 OFFCURVE",
"123 374 OFFCURVE",
"162 374 CURVE SMOOTH",
"182 374 LINE SMOOTH",
"261 374 OFFCURVE",
"274 362 OFFCURVE",
"274 279 CURVE SMOOTH",
"274 108 OFFCURVE",
"274 109 OFFCURVE",
"274 0 CURVE"
);
},
{
closed = 1;
nodes = (
"469 0 LINE",
"469 47 OFFCURVE",
"469 106 OFFCURVE",
"469 138 CURVE",
"30 138 LINE",
"30 104 OFFCURVE",
"30 32 OFFCURVE",
"30 0 CURVE"
);
}
);
width = 472;
}
);
leftMetricsKey = "nun-hb";
unicode = 05D1;
},
{
color = 4;
glyphname = "gimel-hb";
lastChange = "2019-04-07 11:47:51 +0000";
layers = (
{
layerId = "D0BE0C1E-19E7-43D2-9BC3-AB141F408D31";
paths = (
{
closed = 1;
nodes = (
"264 17 LINE",
"262 48 OFFCURVE",
"256 96 OFFCURVE",
"253 146 CURVE SMOOTH",
"250 189 OFFCURVE",
"245 239 OFFCURVE",
"235 335 CURVE SMOOTH",
"226 420 OFFCURVE",
"213 446 OFFCURVE",
"166 474 CURVE SMOOTH",
"142 490 OFFCURVE",
"120 501 OFFCURVE",
"102 509 CURVE",
"78 509 LINE",
"65 480 OFFCURVE",
"55 442 OFFCURVE",
"46 410 CURVE",
"74 397 OFFCURVE",
"98 388 OFFCURVE",
"124 371 CURVE SMOOTH",
"159 350 OFFCURVE",
"165 341 OFFCURVE",
"177 271 CURVE SMOOTH",
"186 216 OFFCURVE",
"192 174 OFFCURVE",
"195 152 CURVE SMOOTH",
"202 99 OFFCURVE",
"212 50 OFFCURVE",
"222 -2 CURVE"
);
},
{
closed = 1;
nodes = (
"139 23 OFFCURVE",
"168 65 OFFCURVE",
"210 156 CURVE",
"194 172 LINE",
"141 142 OFFCURVE",
"85 123 OFFCURVE",
"44 112 CURVE",
"33 91 OFFCURVE",
"18 17 OFFCURVE",
"16 -8 CURVE"
);
}
);
width = 285;
},
{
layerId = "AFDF4EF8-A213-4348-ACF7-371209F0497C";
paths = (
{
closed = 1;
nodes = (
"292 2 LINE",
"296 79 OFFCURVE",
"291 157 OFFCURVE",
"286 216 CURVE SMOOTH",
"281 273 OFFCURVE",
"280 288 OFFCURVE",
"274 342 CURVE SMOOTH",
"261 453 OFFCURVE",
"229 474 OFFCURVE",
"152 494 CURVE SMOOTH",
"133 499 OFFCURVE",
"117 506 OFFCURVE",
"107 509 CURVE",
"82 509 LINE",
"65 467 OFFCURVE",
"42 378 OFFCURVE",
"41 322 CURVE",
"72 310 OFFCURVE",
"101 302 OFFCURVE",
"142 287 CURVE SMOOTH",
"178 274 OFFCURVE",
"188 266 OFFCURVE",
"198 220 CURVE SMOOTH",
"200 208 OFFCURVE",
"204 194 OFFCURVE",
"209 170 CURVE SMOOTH",
"224 93 OFFCURVE",
"228 66 OFFCURVE",
"240 -7 CURVE"
);
},
{
closed = 1;
nodes = (
"119 -11 OFFCURVE",
"172 -10 OFFCURVE",
"223 176 CURVE",
"214 201 LINE",
"178 192 OFFCURVE",
"112 183 OFFCURVE",
"52 180 CURVE",
"32 142 OFFCURVE",
"4 43 OFFCURVE",
"2 -13 CURVE"
);
}
);
width = 300;
},
{
layerId = "A396904D-C838-4FF7-A96F-91F438939708";
paths = (
{
closed = 1;
nodes = (
"299 36 LINE",
"292 83 OFFCURVE",
"291 127 OFFCURVE",
"282 195 CURVE SMOOTH",
"275 268 OFFCURVE",
"271 307 OFFCURVE",
"260 363 CURVE SMOOTH",
"245 441 OFFCURVE",
"219 451 OFFCURVE",
"150 483 CURVE SMOOTH",
"113 500 OFFCURVE",
"101 504 OFFCURVE",
"84 512 CURVE",
"57 511 LINE",
"47 469 OFFCURVE",
"28 387 OFFCURVE",
"25 340 CURVE",
"38 336 OFFCURVE",
"75 324 OFFCURVE",
"91 318 CURVE SMOOTH",
"130 304 OFFCURVE",
"135 295 OFFCURVE",
"148 226 CURVE SMOOTH",
"158 174 OFFCURVE",
"170 130 OFFCURVE",
"182 90 CURVE SMOOTH",
"196 42 OFFCURVE",
"201 17 OFFCURVE",
"211 -19 CURVE"
);
},
{
closed = 1;
nodes = (
"83 -2 OFFCURVE",
"164 52 OFFCURVE",
"211 97 CURVE",
"179 220 LINE",
"121 190 OFFCURVE",
"73 164 OFFCURVE",
"31 145 CURVE",
"23 115 OFFCURVE",
"5 8 OFFCURVE",
"1 -42 CURVE"
);
}
);
width = 300;
},
{
layerId = "5539344D-F27C-4FBD-A9E2-D2F022F19CCA";
paths = (
{
closed = 1;
nodes = (
"291 16 LINE",
"287 60 OFFCURVE",
"283 95 OFFCURVE",
"279 137 CURVE SMOOTH",
"274 185 OFFCURVE",
"268 231 OFFCURVE",
"259 300 CURVE SMOOTH",
"245 405 OFFCURVE",
"226 435 OFFCURVE",
"177 466 CURVE SMOOTH",
"147 487 OFFCURVE",
"115 504 OFFCURVE",
"93 513 CURVE",
"71 513 LINE",
"59 491 OFFCURVE",
"49 461 OFFCURVE",
"42 426 CURVE",
"67 412 OFFCURVE",
"101 397 OFFCURVE",
"126 382 CURVE SMOOTH",
"169 359 OFFCURVE",
"171 351 OFFCURVE",
"184 282 CURVE SMOOTH",
"194 227 OFFCURVE",
"203 154 OFFCURVE",
"209 120 CURVE SMOOTH",
"216 81 OFFCURVE",
"222 40 OFFCURVE",
"232 -11 CURVE"
);
},
{
closed = 1;
nodes = (
"109 22 OFFCURVE",
"157 58 OFFCURVE",
"224 118 CURVE",
"214 180 LINE",
"145 144 OFFCURVE",
"98 118 OFFCURVE",
"45 93 CURVE",
"35 69 OFFCURVE",
"32 12 OFFCURVE",
"37 -16 CURVE"
);
}
);
width = 300;
},
{
layerId = "798D7B20-9AF4-495F-9307-CAE61518AA1C";
paths = (
{
closed = 1;
nodes = (
"256 0 LINE",
"256 88 OFFCURVE",
"256 87 OFFCURVE",
"256 174 CURVE SMOOTH",
"256 214 OFFCURVE",
"256 253 OFFCURVE",
"256 325 CURVE SMOOTH",
"256 426 OFFCURVE",
"222 477 OFFCURVE",
"115 477 CURVE SMOOTH",
"105 477 OFFCURVE",
"97 477 OFFCURVE",
"87 477 CURVE",
"63 477 LINE",
"63 455 OFFCURVE",
"63 432 OFFCURVE",
"63 407 CURVE",
"80 407 OFFCURVE",
"92 407 OFFCURVE",
"115 407 CURVE SMOOTH",
"159 407 OFFCURVE",
"180 390 OFFCURVE",
"180 325 CURVE SMOOTH",
"180 228 OFFCURVE",
"180 239 OFFCURVE",
"180 166 CURVE SMOOTH",
"180 82 OFFCURVE",
"180 42 OFFCURVE",
"180 0 CURVE"
);
},
{
closed = 1;
nodes = (
"134 -5 OFFCURVE",
"207 69 OFFCURVE",
"207 253 CURVE",
"180 253 LINE",
"180 131 OFFCURVE",
"130 82 OFFCURVE",
"41 82 CURVE",
"41 62 OFFCURVE",
"41 15 OFFCURVE",
"41 -5 CURVE"
);
}
);
width = 300;
},
{
layerId = "C42C1682-C410-46D1-BF5A-F68DB0880154";
paths = (
{
closed = 1;
nodes = (
"234 0 LINE",
"241 30 OFFCURVE",
"247 50 OFFCURVE",
"247 96 CURVE SMOOTH",
"247 157 OFFCURVE",
"225 175 OFFCURVE",
"225 292 CURVE SMOOTH",
"225 446 OFFCURVE",
"213 486 OFFCURVE",
"131 486 CURVE SMOOTH",
"94 486 OFFCURVE",
"88 497 OFFCURVE",
"81 512 CURVE",
"60 512 LINE",
"49 489 OFFCURVE",
"47 467 OFFCURVE",
"47 444 CURVE SMOOTH",
"47 392 OFFCURVE",
"60 377 OFFCURVE",
"121 377 CURVE SMOOTH",
"170 377 OFFCURVE",
"181 362 OFFCURVE",
"181 294 CURVE SMOOTH",
"181 227 OFFCURVE",
"187 131 OFFCURVE",
"190 100 CURVE SMOOTH",
"193 66 OFFCURVE",
"195 41 OFFCURVE",
"203 0 CURVE"
);
},
{
closed = 1;
nodes = (
"135 -4 OFFCURVE",
"199 92 OFFCURVE",
"199 295 CURVE",
"181 294 LINE",
"181 163 OFFCURVE",
"141 120 OFFCURVE",
"44 117 CURVE",
"36 99 OFFCURVE",
"36 16 OFFCURVE",
"44 -4 CURVE"
);
}
);
width = 285;
},
{
layerId = "E84AB450-BED0-484C-851E-2EB7B7ED9E73";
paths = (
{
closed = 1;
nodes = (
"226 0 LINE",
"233 40 OFFCURVE",
"234 74 OFFCURVE",
"234 103 CURVE SMOOTH",
"234 170 OFFCURVE",
"220 206 OFFCURVE",
"220 272 CURVE SMOOTH",
"220 467 OFFCURVE",
"206 486 OFFCURVE",
"101 486 CURVE SMOOTH",
"80 486 OFFCURVE",
"74 489 OFFCURVE",
"69 512 CURVE",
"38 512 LINE",
"27 475 OFFCURVE",
"26 431 OFFCURVE",
"26 397 CURVE SMOOTH",
"26 311 OFFCURVE",
"41 294 OFFCURVE",
"111 294 CURVE SMOOTH",
"151 294 OFFCURVE",
"169 279 OFFCURVE",
"169 249 CURVE SMOOTH",
"169 180 OFFCURVE",
"172 143 OFFCURVE",
"175 101 CURVE SMOOTH",
"177 74 OFFCURVE",
"179 46 OFFCURVE",
"184 0 CURVE"
);
},
{
closed = 1;
nodes = (
"124 -7 OFFCURVE",
"173 30 OFFCURVE",
"177 250 CURVE",
"169 250 LINE",
"169 210 OFFCURVE",
"149 199 OFFCURVE",
"34 192 CURVE",
"25 169 OFFCURVE",
"25 23 OFFCURVE",
"34 -7 CURVE"
);
}
);
width = 258;
},
{
layerId = "FB8990CA-0F96-4B7B-86A4-9D429D534475";
paths = (
{
closed = 1;
nodes = (
"283 0 LINE",
"283 46 OFFCURVE",
"283 86 OFFCURVE",
"283 119 CURVE SMOOTH",
"283 198 OFFCURVE",
"283 225 OFFCURVE",
"283 305 CURVE SMOOTH",
"283 465 OFFCURVE",
"241 500 OFFCURVE",
"117 500 CURVE SMOOTH",
"98 500 OFFCURVE",
"83 500 OFFCURVE",
"63 500 CURVE",
"28 500 LINE",
"28 479 OFFCURVE",
"28 400 OFFCURVE",
"28 374 CURVE",
"52 374 OFFCURVE",
"66 374 OFFCURVE",
"95 374 CURVE SMOOTH",
"139 374 OFFCURVE",
"144 358 OFFCURVE",
"144 264 CURVE SMOOTH",
"144 230 OFFCURVE",
"167 235 OFFCURVE",
"168 203 CURVE SMOOTH",
"171 102 OFFCURVE",
"174 39 OFFCURVE",
"178 0 CURVE"
);
},
{
closed = 1;
nodes = (
"125 -4 OFFCURVE",
"189 32 OFFCURVE",
"189 231 CURVE",
"144 264 LINE",
"143 161 OFFCURVE",
"117 141 OFFCURVE",
"25 141 CURVE",
"25 105 OFFCURVE",
"25 32 OFFCURVE",
"25 -4 CURVE"
);
}
);
width = 312;
}
);
unicode = 05D2;
},
{
color = 4;
glyphname = "dalet-hb";
lastChange = "2019-04-07 14:15:25 +0000";
layers = (
{
associatedMasterId = "D0BE0C1E-19E7-43D2-9BC3-AB141F408D31";
layerId = "0D2F9F62-6D50-490D-B425-4005BBEB55D2";
name = Paths;
paths = (
{
closed = 0;
nodes = (
"408 0 LINE",
"408 337 LINE SMOOTH",
"408 390 OFFCURVE",
"419 455 OFFCURVE",
"441 495 CURVE"
);
},
{
closed = 0;
nodes = (
"569 493 LINE",
"292 493 LINE SMOOTH",
"214 493 OFFCURVE",
"154 504 OFFCURVE",
"100 525 CURVE"
);
}
);
width = 654;
},
{
layerId = "D0BE0C1E-19E7-43D2-9BC3-AB141F408D31";
paths = (
{
closed = 1;
nodes = (
"396 398 LINE",
"409 429 OFFCURVE",
"418 462 OFFCURVE",
"425 499 CURVE",
"181 500 LINE SMOOTH",
"102 500 OFFCURVE",
"92 500 OFFCURVE",
"59 516 CURVE",
"36 516 LINE",
"22 487 OFFCURVE",
"14 456 OFFCURVE",
"10 420 CURVE",
"46 400 OFFCURVE",
"84 397 OFFCURVE",
"170 397 CURVE SMOOTH"
);
},
{
closed = 1;
nodes = (
"305 0 LINE",
"317 31 OFFCURVE",
"326 64 OFFCURVE",
"334 99 CURVE",
"334 170 OFFCURVE",
"334 241 OFFCURVE",
"334 312 CURVE SMOOTH",
"334 354 OFFCURVE",
"338 407 OFFCURVE",
"345 439 CURVE",
"304 439 LINE",
"286 403 OFFCURVE",
"273 314 OFFCURVE",
"273 261 CURVE SMOOTH",
"273 0 LINE"
);
}
);
width = 438;
},
{
background = {
paths = (
{
closed = 1;
nodes = (
"298 0 LINE",
"312 59 OFFCURVE",
"330 118 OFFCURVE",
"338 177 CURVE",
"341 322 LINE SMOOTH",
"342 375 OFFCURVE",
"352 440 OFFCURVE",
"374 480 CURVE",
"288 329 LINE",
"266 289 OFFCURVE",
"253 224 OFFCURVE",
"255 171 CURVE",
"259 0 LINE"
);
},
{
closed = 1;
nodes = (
"104 500 OFFCURVE",
"96 501 OFFCURVE",
"76 509 CURVE",
"51 509 LINE",
"35 469 OFFCURVE",
"16 389 OFFCURVE",
"15 336 CURVE",
"69 323 OFFCURVE",
"95 318 OFFCURVE",
"178 318 CURVE SMOOTH",
"416 317 LINE",
"437 374 OFFCURVE",
"453 446 OFFCURVE",
"456 499 CURVE",
"186 500 LINE SMOOTH"
);
}
);
};
layerId = "AFDF4EF8-A213-4348-ACF7-371209F0497C";
paths = (
{
closed = 1;
nodes = (
"416 318 LINE",
"437 374 OFFCURVE",
"453 446 OFFCURVE",
"456 499 CURVE",
"186 500 LINE SMOOTH",
"104 500 OFFCURVE",
"96 501 OFFCURVE",
"76 509 CURVE",
"51 509 LINE",
"35 469 OFFCURVE",
"16 389 OFFCURVE",
"15 336 CURVE",
"69 323 OFFCURVE",
"95 318 OFFCURVE",
"178 318 CURVE SMOOTH"
);
},
{
closed = 1;
nodes = (
"298 0 LINE",
"312 59 OFFCURVE",
"330 118 OFFCURVE",
"338 177 CURVE",
"339 225 OFFCURVE",
"340 274 OFFCURVE",
"341 322 CURVE SMOOTH",
"342 375 OFFCURVE",
"352 440 OFFCURVE",
"374 480 CURVE",
"288 329 LINE",
"266 289 OFFCURVE",
"253 224 OFFCURVE",
"255 171 CURVE",
"259 0 LINE"
);
}
);
width = 466;
},
{
background = {
paths = (
{
closed = 1;
nodes = (
"342 0 LINE",
"356 53 OFFCURVE",
"367 107 OFFCURVE",
"373 160 CURVE",
"368 346 LINE SMOOTH",
"367 399 OFFCURVE",
"379 456 OFFCURVE",
"401 496 CURVE",
"280 343 LINE",
"258 303 OFFCURVE",
"247 238 OFFCURVE",
"247 185 CURVE SMOOTH",
"247 0 LINE"
);
},
{
closed = 1;
nodes = (
"109 500 OFFCURVE",
"95 502 OFFCURVE",
"65 512 CURVE",
"38 512 LINE",
"28 487 OFFCURVE",
"9 395 OFFCURVE",
"6 348 CURVE",
"34 339 OFFCURVE",
"84 335 OFFCURVE",
"131 335 CURVE SMOOTH",
"447 335 LINE",
"479 500 LINE",
"189 500 LINE SMOOTH"
);
}
);
};
layerId = "A396904D-C838-4FF7-A96F-91F438939708";
paths = (
{
closed = 1;
nodes = (
"447 335 LINE",
"459 379 OFFCURVE",
"472 445 OFFCURVE",
"479 500 CURVE",
"189 500 LINE SMOOTH",
"109 500 OFFCURVE",
"95 502 OFFCURVE",
"65 512 CURVE",
"38 512 LINE",
"28 487 OFFCURVE",
"9 395 OFFCURVE",
"6 348 CURVE",
"34 339 OFFCURVE",
"84 335 OFFCURVE",
"131 335 CURVE SMOOTH"
);
},
{
closed = 1;
nodes = (
"342 0 LINE",
"356 53 OFFCURVE",
"367 107 OFFCURVE",
"373 160 CURVE",
"371 222 OFFCURVE",
"370 284 OFFCURVE",
"368 346 CURVE SMOOTH",
"367 399 OFFCURVE",
"379 456 OFFCURVE",
"401 496 CURVE",
"280 343 LINE",
"258 303 OFFCURVE",
"247 238 OFFCURVE",
"247 185 CURVE SMOOTH",
"247 0 LINE"
);
}
);
width = 489;
},
{
background = {
paths = (
{
closed = 1;
nodes = (
"329 -1 LINE",
"336 34 OFFCURVE",
"339 68 OFFCURVE",
"340 103 CURVE",
"354 344 LINE SMOOTH",
"357 397 OFFCURVE",
"365 462 OFFCURVE",
"387 502 CURVE",
"310 411 LINE",
"288 371 OFFCURVE",
"277 306 OFFCURVE",
"277 253 CURVE",
"275 168 OFFCURVE",
"275 84 OFFCURVE",
"277 -1 CURVE"
);
},
{
closed = 1;
nodes = (
"118 500 OFFCURVE",
"78 504 OFFCURVE",
"57 513 CURVE",
"35 513 LINE",
"23 486 OFFCURVE",
"13 456 OFFCURVE",
"10 433 CURVE",
"33 416 OFFCURVE",
"96 411 OFFCURVE",
"152 411 CURVE SMOOTH",
"422 411 LINE",
"451 500 LINE",
"193 500 LINE SMOOTH"
);
}
);
};
layerId = "5539344D-F27C-4FBD-A9E2-D2F022F19CCA";
paths = (
{
closed = 1;
nodes = (
"422 411 LINE",
"428 433 OFFCURVE",
"437 483 OFFCURVE",
"436 500 CURVE",
"193 500 LINE SMOOTH",
"118 500 OFFCURVE",
"78 504 OFFCURVE",
"57 513 CURVE",
"35 513 LINE",
"23 486 OFFCURVE",
"13 456 OFFCURVE",
"10 433 CURVE",
"33 416 OFFCURVE",
"96 411 OFFCURVE",
"152 411 CURVE SMOOTH"
);
},
{
closed = 1;
nodes = (
"329 -1 LINE",
"343 34 OFFCURVE",
"351 78 OFFCURVE",
"352 113 CURVE",
"353 190 OFFCURVE",
"353 267 OFFCURVE",
"354 344 CURVE SMOOTH",
"354 375 OFFCURVE",
"356 409 OFFCURVE",
"361 433 CURVE",
"307 433 LINE",
"286 387 OFFCURVE",
"277 313 OFFCURVE",
"277 253 CURVE",
"277 -1 LINE"
);
}
);
width = 461;
},
{
background = {
paths = (
{
closed = 1;
nodes = (
"304 421 OFFCURVE",
"289 351 OFFCURVE",
"289 287 CURVE SMOOTH",
"289 0 LINE",
"359 0 LINE",
"359 287 LINE SMOOTH",
"359 341 OFFCURVE",
"370 397 OFFCURVE",
"388 428 CURVE",
"326 462 LINE"
);
},
{
closed = 1;
nodes = (
"156 477 OFFCURVE",
"107 477 OFFCURVE",
"52 477 CURVE",
"33 477 LINE",
"33 455 OFFCURVE",
"33 432 OFFCURVE",
"33 407 CURVE",
"56 407 OFFCURVE",
"152 407 OFFCURVE",
"208 407 CURVE SMOOTH",
"485 407 LINE",
"485 477 LINE",
"208 477 LINE SMOOTH"
);
}
);
};
layerId = "798D7B20-9AF4-495F-9307-CAE61518AA1C";
paths = (
{
closed = 1;
nodes = (
"442 407 LINE",
"442 430 OFFCURVE",
"442 454 OFFCURVE",
"442 477 CURVE",
"195 477 LINE",
"143 477 OFFCURVE",
"94 477 OFFCURVE",
"39 477 CURVE",
"20 477 LINE",
"20 455 OFFCURVE",
"20 432 OFFCURVE",
"20 407 CURVE",
"43 407 OFFCURVE",
"139 407 OFFCURVE",
"195 407 CURVE"
);
},
{
closed = 1;
nodes = (
"355 0 LINE",
"355 85 OFFCURVE",
"355 131 OFFCURVE",
"355 184 CURVE",
"355 235 OFFCURVE",
"355 257 OFFCURVE",
"355 295 CURVE SMOOTH",
"355 343 OFFCURVE",
"355 392 OFFCURVE",
"355 440 CURVE",
"279 440 LINE",
"279 392 OFFCURVE",
"279 343 OFFCURVE",
"279 295 CURVE",
"279 0 LINE"
);
}
);
width = 495;
},
{
background = {
paths = (
{
closed = 1;
nodes = (
"280 424 OFFCURVE",
"264 333 OFFCURVE",
"264 267 CURVE SMOOTH",
"265 169 OFFCURVE",
"263 59 OFFCURVE",
"261 0 CURVE",
"292 0 LINE",
"306 40 OFFCURVE",
"320 49 OFFCURVE",
"320 107 CURVE SMOOTH",
"320 156 OFFCURVE",
"308 212 OFFCURVE",
"308 275 CURVE SMOOTH",
"308 329 OFFCURVE",
"324 369 OFFCURVE",
"344 406 CURVE",
"300 460 LINE"
);
},
{
closed = 1;
nodes = (
"77 486 OFFCURVE",
"68 492 OFFCURVE",
"58 512 CURVE",
"36 512 LINE",
"25 489 OFFCURVE",
"20 459 OFFCURVE",
"20 435 CURVE SMOOTH",
"20 382 OFFCURVE",
"33 377 OFFCURVE",
"173 377 CURVE SMOOTH",
"450 377 LINE",
"450 487 LINE",
"173 486 LINE SMOOTH"
);
}
);
};
layerId = "C42C1682-C410-46D1-BF5A-F68DB0880154";
paths = (
{
closed = 1;
nodes = (
"380 377 LINE",
"388 393 OFFCURVE",
"388 471 OFFCURVE",
"380 487 CURVE",
"173 486 LINE SMOOTH",
"77 486 OFFCURVE",
"68 492 OFFCURVE",
"58 512 CURVE",
"36 512 LINE",
"25 489 OFFCURVE",
"20 459 OFFCURVE",
"20 435 CURVE SMOOTH",
"20 382 OFFCURVE",
"33 377 OFFCURVE",
"173 377 CURVE SMOOTH"
);
},
{
closed = 1;
nodes = (
"309 0 LINE",
"323 40 OFFCURVE",
"330 64 OFFCURVE",
"330 107 CURVE SMOOTH",
"330 156 OFFCURVE",
"318 212 OFFCURVE",
"318 275 CURVE SMOOTH",
"318 326 OFFCURVE",
"320 359 OFFCURVE",
"326 394 CURVE",
"287 401 LINE",
"278 375 OFFCURVE",
"274 315 OFFCURVE",
"274 267 CURVE",
"271 0 LINE"
);
}
);
width = 460;
},
{
background = {
paths = (
{
closed = 1;
nodes = (
"208 406 OFFCURVE",
"189 305 OFFCURVE",
"189 235 CURVE SMOOTH",
"189 0 LINE",
"243 0 LINE",
"243 235 LINE SMOOTH",
"243 286 OFFCURVE",
"248 302 OFFCURVE",
"273 347 CURVE",
"225 439 LINE"
);
},
{
closed = 1;
nodes = (
"-25 305 OFFCURVE",
"18 296 OFFCURVE",
"100 296 CURVE SMOOTH",
"327 296 LINE",
"327 486 LINE",
"100 486 LINE SMOOTH",
"31 486 OFFCURVE",
"-44 497 OFFCURVE",
"-82 512 CURVE",
"-102 334 LINE"
);
}
);
};
layerId = "E84AB450-BED0-484C-851E-2EB7B7ED9E73";
paths = (
{
closed = 1;
nodes = (
"340 294 LINE",
"349 323 OFFCURVE",
"349 462 OFFCURVE",
"340 486 CURVE",
"138 486 LINE SMOOTH",
"81 486 OFFCURVE",
"58 489 OFFCURVE",
"53 512 CURVE",
"22 512 LINE",
"11 475 OFFCURVE",
"10 431 OFFCURVE",
"10 397 CURVE SMOOTH",
"10 311 OFFCURVE",
"30 294 OFFCURVE",
"118 294 CURVE SMOOTH"
);
},
{
closed = 1;
nodes = (
"285 0 LINE",
"294 40 OFFCURVE",
"295 74 OFFCURVE",
"295 103 CURVE SMOOTH",
"295 170 OFFCURVE",
"286 205 OFFCURVE",
"286 271 CURVE SMOOTH",
"286 281 OFFCURVE",
"286 291 OFFCURVE",
"290 328 CURVE",
"239 328 LINE",
"234 314 OFFCURVE",
"229 277 OFFCURVE",
"229 248 CURVE",
"235 0 LINE"
);
}
);
width = 348;
},
{
background = {
paths = (
{
closed = 1;
nodes = (
"133 500 OFFCURVE",
"84 500 OFFCURVE",
"37 500 CURVE",
"11 500 LINE",
"11 479 OFFCURVE",
"11 400 OFFCURVE",
"11 374 CURVE",
"60 374 OFFCURVE",
"107 374 OFFCURVE",
"159 374 CURVE SMOOTH",
"436 376 LINE",
"436 500 LINE",
"159 500 LINE SMOOTH"
);
},
{
closed = 1;
nodes = (
"374 0 LINE",
"374 85 OFFCURVE",
"374 131 OFFCURVE",
"374 184 CURVE SMOOTH",
"374 235 OFFCURVE",
"374 257 OFFCURVE",
"374 295 CURVE SMOOTH",
"374 440 LINE",
"238 440 LINE",
"238 295 LINE SMOOTH",
"238 124 OFFCURVE",
"238 188 OFFCURVE",
"238 0 CURVE"
);
}
);
};
layerId = "FB8990CA-0F96-4B7B-86A4-9D429D534475";
paths = (
{
closed = 1;
nodes = (
"436 376 LINE",
"436 417 OFFCURVE",
"436 459 OFFCURVE",
"436 500 CURVE",
"159 500 LINE SMOOTH",
"133 500 OFFCURVE",
"84 500 OFFCURVE",
"37 500 CURVE",
"11 500 LINE",
"11 479 OFFCURVE",
"11 400 OFFCURVE",
"11 374 CURVE",
"54 374 OFFCURVE",
"113 374 OFFCURVE",
"159 374 CURVE SMOOTH"
);
},
{
closed = 1;
nodes = (
"374 0 LINE",
"374 85 OFFCURVE",
"374 131 OFFCURVE",
"374 184 CURVE SMOOTH",
"374 235 OFFCURVE",
"374 257 OFFCURVE",
"374 295 CURVE SMOOTH",
"374 343 OFFCURVE",
"374 392 OFFCURVE",
"374 440 CURVE",
"238 440 LINE",
"238 392 OFFCURVE",
"238 343 OFFCURVE",
"238 295 CURVE",
"238 0 LINE"
);
}
);
width = 446;
}
);
unicode = 05D3;
},
{
color = 4;
glyphname = "he-hb";
lastChange = "2019-04-30 14:18:53 +0000";
layers = (
{
layerId = "D0BE0C1E-19E7-43D2-9BC3-AB141F408D31";
paths = (
{
closed = 1;
nodes = (
"402 0 LINE",
"415 32 OFFCURVE",
"426 65 OFFCURVE",
"436 109 CURVE",
"436 192 OFFCURVE",
"437 279 OFFCURVE",
"435 357 CURVE SMOOTH",
"432 471 OFFCURVE",
"395 500 OFFCURVE",
"279 500 CURVE SMOOTH",
"181 500 LINE SMOOTH",
"112 500 OFFCURVE",
"102 500 OFFCURVE",
"69 516 CURVE",
"46 516 LINE",
"32 487 OFFCURVE",
"24 456 OFFCURVE",
"20 420 CURVE",
"56 400 OFFCURVE",
"94 397 OFFCURVE",
"170 397 CURVE SMOOTH",
"268 397 LINE SMOOTH",
"358 397 OFFCURVE",
"363 388 OFFCURVE",
"366 307 CURVE SMOOTH",
"369 237 OFFCURVE",
"371 152 OFFCURVE",
"374 0 CURVE"
);
},
{
closed = 1;
nodes = (
"71 -2 LINE",
"87 32 OFFCURVE",
"100 70 OFFCURVE",
"110 125 CURVE",
"110 139 LINE SMOOTH",
"110 183 OFFCURVE",
"110 244 OFFCURVE",
"110 306 CURVE",
"81 306 LINE",
"68 273 OFFCURVE",
"59 235 OFFCURVE",
"48 194 CURVE",
"44 162 OFFCURVE",
"39 88 OFFCURVE",
"39 45 CURVE SMOOTH",
"39 -2 LINE"
);
}
);
width = 486;
},
{
layerId = "AFDF4EF8-A213-4348-ACF7-371209F0497C";
paths = (
{
closed = 1;
nodes = (
"377 0 LINE",
"394 54 OFFCURVE",
"409 111 OFFCURVE",
"416 177 CURVE",
"416 251 OFFCURVE",
"415 298 OFFCURVE",
"410 367 CURVE SMOOTH",
"403 465 OFFCURVE",
"363 500 OFFCURVE",
"261 500 CURVE SMOOTH",
"181 500 LINE SMOOTH",
"109 500 OFFCURVE",
"101 501 OFFCURVE",
"81 509 CURVE",
"56 509 LINE",
"40 469 OFFCURVE",
"21 389 OFFCURVE",
"20 336 CURVE",
"74 323 OFFCURVE",
"100 318 OFFCURVE",
"173 318 CURVE SMOOTH",
"253 318 LINE SMOOTH",
"314 318 OFFCURVE",
"324 304 OFFCURVE",
"328 226 CURVE SMOOTH",
"332 156 OFFCURVE",
"335 81 OFFCURVE",
"338 0 CURVE"
);
},
{
closed = 1;
nodes = (
"81 0 LINE",
"101 40 OFFCURVE",
"109 84 OFFCURVE",
"115 140 CURVE",
"115 169 LINE SMOOTH",
"115 198 OFFCURVE",
"114 210 OFFCURVE",
"112 245 CURVE",
"65 250 LINE",
"52 208 OFFCURVE",
"43 165 OFFCURVE",
"37 114 CURVE",
"36 99 OFFCURVE",
"35 58 OFFCURVE",
"36 37 CURVE SMOOTH",
"38 0 LINE"
);
}
);
width = 438;
},
{
layerId = "A396904D-C838-4FF7-A96F-91F438939708";
paths = (
{
closed = 1;
nodes = (
"448 0 LINE",
"459 45 OFFCURVE",
"473 100 OFFCURVE",
"479 161 CURVE",
"479 232 OFFCURVE",
"478 315 OFFCURVE",
"474 378 CURVE SMOOTH",
"469 456 OFFCURVE",
"425 500 OFFCURVE",
"300 500 CURVE SMOOTH",
"200 500 LINE SMOOTH",
"130 500 OFFCURVE",
"115 502 OFFCURVE",
"85 512 CURVE",
"58 512 LINE",
"48 487 OFFCURVE",
"29 395 OFFCURVE",
"26 348 CURVE",
"54 339 OFFCURVE",
"104 335 OFFCURVE",
"141 335 CURVE SMOOTH",
"241 335 LINE SMOOTH",
"345 335 OFFCURVE",
"356 318 OFFCURVE",
"359 232 CURVE SMOOTH",
"361 180 OFFCURVE",
"365 79 OFFCURVE",
"365 0 CURVE"
);
},
{
closed = 1;
nodes = (
"135 0 LINE",
"144 37 OFFCURVE",
"154 78 OFFCURVE",
"158 120 CURVE",
"158 147 LINE SMOOTH",
"158 178 OFFCURVE",
"158 221 OFFCURVE",
"159 255 CURVE",
"55 260 LINE",
"49 230 OFFCURVE",
"41 189 OFFCURVE",
"37 155 CURVE",
"34 136 OFFCURVE",
"32 97 OFFCURVE",
"31 69 CURVE SMOOTH",
"29 0 LINE"
);
}
);
width = 500;
},
{
layerId = "5539344D-F27C-4FBD-A9E2-D2F022F19CCA";
paths = (
{
closed = 1;
nodes = (
"455 0 LINE",
"460 31 OFFCURVE",
"464 64 OFFCURVE",
"466 104 CURVE",
"469 159 OFFCURVE",
"470 220 OFFCURVE",
"468 296 CURVE SMOOTH",
"464 449 OFFCURVE",
"444 500 OFFCURVE",
"293 500 CURVE SMOOTH",
"215 500 LINE SMOOTH",
"150 500 OFFCURVE",
"110 504 OFFCURVE",
"89 513 CURVE",
"67 513 LINE",
"55 486 OFFCURVE",
"45 456 OFFCURVE",
"42 433 CURVE",
"65 416 OFFCURVE",
"128 411 OFFCURVE",
"174 411 CURVE SMOOTH",
"252 411 LINE SMOOTH",
"383 411 OFFCURVE",
"387 396 OFFCURVE",
"393 278 CURVE SMOOTH",
"400 146 OFFCURVE",
"399 98 OFFCURVE",
"404 0 CURVE"
);
},
{
closed = 1;
nodes = (
"105 0 LINE",
"113 34 OFFCURVE",
"125 74 OFFCURVE",
"131 120 CURVE",
"130 176 LINE SMOOTH",
"129 224 OFFCURVE",
"131 265 OFFCURVE",
"131 301 CURVE",
"101 307 LINE",
"86 280 OFFCURVE",
"74 250 OFFCURVE",
"65 217 CURVE",
"59 178 OFFCURVE",
"56 117 OFFCURVE",
"56 56 CURVE SMOOTH",
"56 0 LINE"
);
}
);
width = 498;
},
{
layerId = "798D7B20-9AF4-495F-9307-CAE61518AA1C";
paths = (
{
closed = 1;
nodes = (
"422 0 LINE",
"422 85 OFFCURVE",
"422 131 OFFCURVE",
"422 184 CURVE SMOOTH",
"422 235 OFFCURVE",
"422 257 OFFCURVE",
"422 295 CURVE SMOOTH",
"422 417 OFFCURVE",
"393 477 OFFCURVE",
"260 477 CURVE SMOOTH",
"201 477 LINE SMOOTH",
"159 477 OFFCURVE",
"110 477 OFFCURVE",
"55 477 CURVE",
"36 477 LINE",
"36 455 OFFCURVE",
"36 432 OFFCURVE",
"36 407 CURVE",
"59 407 OFFCURVE",
"155 407 OFFCURVE",
"201 407 CURVE SMOOTH",
"260 407 LINE SMOOTH",
"331 407 OFFCURVE",
"346 382 OFFCURVE",
"346 295 CURVE SMOOTH",
"346 124 OFFCURVE",
"346 188 OFFCURVE",
"346 0 CURVE"
);
},
{
closed = 1;
nodes = (
"65 0 LINE",
"81 0 OFFCURVE",
"97 0 OFFCURVE",
"113 0 CURVE",
"113 156 LINE SMOOTH",
"113 193 OFFCURVE",
"113 249 OFFCURVE",
"113 275 CURVE",
"85 275 LINE",
"69 275 OFFCURVE",
"52 275 OFFCURVE",
"36 275 CURVE",
"36 256 OFFCURVE",
"36 198 OFFCURVE",
"36 158 CURVE SMOOTH",
"36 0 LINE"
);
}
);
width = 472;
},
{
layerId = "C42C1682-C410-46D1-BF5A-F68DB0880154";
paths = (
{
closed = 1;
nodes = (
"375 -4 LINE",
"389 36 OFFCURVE",
"403 58 OFFCURVE",
"403 116 CURVE SMOOTH",
"403 165 OFFCURVE",
"391 221 OFFCURVE",
"391 284 CURVE SMOOTH",
"391 476 OFFCURVE",
"373 486 OFFCURVE",
"232 486 CURVE SMOOTH",
"173 486 LINE SMOOTH",
"87 486 OFFCURVE",
"78 492 OFFCURVE",
"68 512 CURVE",
"46 512 LINE",
"35 489 OFFCURVE",
"30 459 OFFCURVE",
"30 435 CURVE SMOOTH",
"30 382 OFFCURVE",
"43 377 OFFCURVE",
"173 377 CURVE SMOOTH",
"232 377 LINE SMOOTH",
"330 377 OFFCURVE",
"346 359 OFFCURVE",
"347 276 CURVE SMOOTH",
"348 178 OFFCURVE",
"346 55 OFFCURVE",
"344 0 CURVE"
);
},
{
closed = 1;
nodes = (
"73 -6 LINE",
"92 25 OFFCURVE",
"107 88 OFFCURVE",
"108 121 CURVE",
"107 146 LINE SMOOTH",
"105 192 OFFCURVE",
"102 225 OFFCURVE",
"102 252 CURVE",
"64 252 LINE",
"58 231 OFFCURVE",
"53 205 OFFCURVE",
"48 172 CURVE",
"46 143 OFFCURVE",
"43 106 OFFCURVE",
"43 67 CURVE SMOOTH",
"43 0 LINE"
);
}
);
width = 453;
},
{
layerId = "E84AB450-BED0-484C-851E-2EB7B7ED9E73";
paths = (
{
closed = 1;
nodes = (
"353 0 LINE",
"368 40 OFFCURVE",
"369 74 OFFCURVE",
"369 103 CURVE SMOOTH",
"369 170 OFFCURVE",
"355 206 OFFCURVE",
"355 272 CURVE SMOOTH",
"355 467 OFFCURVE",
"341 486 OFFCURVE",
"188 486 CURVE SMOOTH",
"128 486 LINE SMOOTH",
"81 486 OFFCURVE",
"58 489 OFFCURVE",
"53 512 CURVE",
"22 512 LINE",
"11 475 OFFCURVE",
"10 431 OFFCURVE",
"10 397 CURVE SMOOTH",
"10 311 OFFCURVE",
"42 294 OFFCURVE",
"128 294 CURVE SMOOTH",
"188 294 LINE SMOOTH",
"300 294 OFFCURVE",
"304 289 OFFCURVE",
"304 248 CURVE SMOOTH",
"304 165 OFFCURVE",
"303 83 OFFCURVE",
"304 0 CURVE"
);
},
{
closed = 1;
nodes = (
"82 0 LINE",
"101 48 OFFCURVE",
"102 67 OFFCURVE",
"102 97 CURVE SMOOTH",
"102 112 LINE SMOOTH",
"102 174 OFFCURVE",
"89 213 OFFCURVE",
"82 235 CURVE",
"40 235 LINE",
"34 221 OFFCURVE",
"27 187 OFFCURVE",
"26 151 CURVE",
"26 134 OFFCURVE",
"26 114 OFFCURVE",
"26 96 CURVE SMOOTH",
"26 0 LINE"
);
}
);
width = 399;
},
{
layerId = "FB8990CA-0F96-4B7B-86A4-9D429D534475";
paths = (
{
closed = 1;
nodes = (
"476 0 LINE",
"476 47 OFFCURVE",
"476 87 OFFCURVE",
"476 119 CURVE SMOOTH",
"476 172 OFFCURVE",
"476 199 OFFCURVE",
"476 279 CURVE SMOOTH",
"476 459 OFFCURVE",
"423 500 OFFCURVE",
"258 500 CURVE SMOOTH",
"238 500 LINE SMOOTH",
"192 500 OFFCURVE",
"84 500 OFFCURVE",
"53 500 CURVE",
"27 500 LINE",
"27 479 OFFCURVE",
"27 400 OFFCURVE",
"27 374 CURVE",
"61 374 OFFCURVE",
"173 374 OFFCURVE",
"238 374 CURVE SMOOTH",
"258 374 LINE SMOOTH",
"328 374 OFFCURVE",
"340 362 OFFCURVE",
"340 279 CURVE SMOOTH",
"340 186 OFFCURVE",
"340 93 OFFCURVE",
"340 0 CURVE"
);
},
{
closed = 1;
nodes = (
"75 0 LINE",
"104 0 OFFCURVE",
"132 0 OFFCURVE",
"161 0 CURVE",
"161 105 LINE",
"161 156 OFFCURVE",
"161 207 OFFCURVE",
"161 258 CURVE",
"114 258 LINE",
"84 258 OFFCURVE",
"55 258 OFFCURVE",
"25 258 CURVE",
"25 228 OFFCURVE",
"25 158 OFFCURVE",
"25 109 CURVE SMOOTH",
"25 0 LINE"
);
}
);
width = 506;
}
);
rightMetricsKey = "resh-hb";
unicode = 05D4;
},
{
color = 4;
glyphname = "vav-hb";
lastChange = "2019-04-07 13:28:43 +0000";
layers = (
{
layerId = "D0BE0C1E-19E7-43D2-9BC3-AB141F408D31";
paths = (
{
closed = 1;
nodes = (
"195 0 LINE",
"206 30 OFFCURVE",
"214 64 OFFCURVE",
"222 99 CURVE",
"225 192 OFFCURVE",
"224 227 OFFCURVE",
"221 315 CURVE SMOOTH",
"217 420 OFFCURVE",
"209 446 OFFCURVE",
"162 474 CURVE SMOOTH",
"133 491 OFFCURVE",
"104 501 OFFCURVE",
"82 509 CURVE",
"58 509 LINE",
"45 480 OFFCURVE",
"35 442 OFFCURVE",
"26 410 CURVE",
"53 397 OFFCURVE",
"85 384 OFFCURVE",
"116 367 CURVE SMOOTH",
"150 347 OFFCURVE",
"153 342 OFFCURVE",
"156 271 CURVE SMOOTH",
"160 201 OFFCURVE",
"161 102 OFFCURVE",
"163 0 CURVE"
);
}
);
width = 283;
},
{
layerId = "AFDF4EF8-A213-4348-ACF7-371209F0497C";
paths = (
{
closed = 1;
nodes = (
"179 0 LINE",
"194 54 OFFCURVE",
"207 111 OFFCURVE",
"211 168 CURVE",
"213 242 OFFCURVE",
"213 282 OFFCURVE",
"209 345 CURVE SMOOTH",
"202 449 OFFCURVE",
"189 463 OFFCURVE",
"112 497 CURVE SMOOTH",
"95 505 OFFCURVE",
"87 508 OFFCURVE",
"82 509 CURVE",
"57 509 LINE",
"40 467 OFFCURVE",
"21 385 OFFCURVE",
"18 329 CURVE",
"42 320 OFFCURVE",
"54 315 OFFCURVE",
"77 305 CURVE SMOOTH",
"109 291 OFFCURVE",
"115 277 OFFCURVE",
"118 198 CURVE SMOOTH",
"121 124 OFFCURVE",
"122 81 OFFCURVE",
"124 0 CURVE"
);
}
);
width = 234;
},
{
layerId = "A396904D-C838-4FF7-A96F-91F438939708";
paths = (
{
closed = 1;
nodes = (
"225 0 LINE",
"231 31 OFFCURVE",
"238 69 OFFCURVE",
"241 111 CURVE",
"242 193 OFFCURVE",
"242 289 OFFCURVE",
"237 366 CURVE SMOOTH",
"231 442 OFFCURVE",
"221 450 OFFCURVE",
"138 488 CURVE SMOOTH",
"114 499 OFFCURVE",
"99 505 OFFCURVE",
"77 512 CURVE",
"50 512 LINE",
"41 471 OFFCURVE",
"26 390 OFFCURVE",
"17 340 CURVE",
"27 336 OFFCURVE",
"55 326 OFFCURVE",
"69 320 CURVE SMOOTH",
"109 303 OFFCURVE",
"115 294 OFFCURVE",
"117 234 CURVE SMOOTH",
"119 172 OFFCURVE",
"122 90 OFFCURVE",
"124 0 CURVE"
);
}
);
width = 278;
},
{
layerId = "5539344D-F27C-4FBD-A9E2-D2F022F19CCA";
paths = (
{
closed = 1;
nodes = (
"205 0 LINE",
"211 31 OFFCURVE",
"217 65 OFFCURVE",
"219 105 CURVE",
"222 160 OFFCURVE",
"222 225 OFFCURVE",
"221 321 CURVE SMOOTH",
"220 413 OFFCURVE",
"208 443 OFFCURVE",
"145 480 CURVE SMOOTH",
"121 494 OFFCURVE",
"96 506 OFFCURVE",
"78 513 CURVE",
"56 513 LINE",
"44 491 OFFCURVE",
"34 461 OFFCURVE",
"27 426 CURVE",
"47 415 OFFCURVE",
"75 403 OFFCURVE",
"95 392 CURVE SMOOTH",
"139 368 OFFCURVE",
"147 353 OFFCURVE",
"149 272 CURVE SMOOTH",
"152 150 OFFCURVE",
"152 98 OFFCURVE",
"154 0 CURVE"
);
}
);
width = 262;
},
{
layerId = "798D7B20-9AF4-495F-9307-CAE61518AA1C";
paths = (
{
closed = 1;
nodes = (
"178 0 LINE",
"178 94 OFFCURVE",
"178 145 OFFCURVE",
"178 204 CURVE SMOOTH",
"178 285 OFFCURVE",
"178 342 OFFCURVE",
"178 386 CURVE SMOOTH",
"178 457 OFFCURVE",
"158 477 OFFCURVE",
"76 477 CURVE SMOOTH",
"53 477 OFFCURVE",
"59 477 OFFCURVE",
"42 477 CURVE",
"29 477 LINE",
"29 455 OFFCURVE",
"29 432 OFFCURVE",
"29 407 CURVE",
"46 407 OFFCURVE",
"63 407 OFFCURVE",
"76 407 CURVE SMOOTH",
"99 407 OFFCURVE",
"102 403 OFFCURVE",
"102 376 CURVE SMOOTH",
"102 124 OFFCURVE",
"102 269 OFFCURVE",
"102 0 CURVE"
);
}
);
width = 223;
},
{
layerId = "C42C1682-C410-46D1-BF5A-F68DB0880154";
paths = (
{
closed = 1;
nodes = (
"183 0 LINE",
"192 42 OFFCURVE",
"200 66 OFFCURVE",
"200 127 CURVE SMOOTH",
"200 173 OFFCURVE",
"188 233 OFFCURVE",
"188 292 CURVE SMOOTH",
"188 446 OFFCURVE",
"176 486 OFFCURVE",
"94 486 CURVE SMOOTH",
"67 486 OFFCURVE",
"61 497 OFFCURVE",
"55 512 CURVE",
"33 512 LINE",
"22 489 OFFCURVE",
"20 467 OFFCURVE",
"20 444 CURVE SMOOTH",
"20 392 OFFCURVE",
"33 377 OFFCURVE",
"84 377 CURVE SMOOTH",
"133 377 OFFCURVE",
"145 362 OFFCURVE",
"145 294 CURVE SMOOTH",
"145 196 OFFCURVE",
"145 121 OFFCURVE",
"145 0 CURVE"
);
}
);
width = 260;
},
{
layerId = "E84AB450-BED0-484C-851E-2EB7B7ED9E73";
paths = (
{
closed = 1;
nodes = (
"176 0 LINE",
"183 40 OFFCURVE",
"184 74 OFFCURVE",
"184 103 CURVE SMOOTH",
"184 170 OFFCURVE",
"177 216 OFFCURVE",
"177 302 CURVE SMOOTH",
"177 477 OFFCURVE",
"165 486 OFFCURVE",
"95 486 CURVE SMOOTH",
"80 486 OFFCURVE",
"68 489 OFFCURVE",
"63 512 CURVE",
"32 512 LINE",
"21 475 OFFCURVE",
"20 431 OFFCURVE",
"20 397 CURVE SMOOTH",
"20 311 OFFCURVE",
"52 294 OFFCURVE",
"85 294 CURVE SMOOTH",
"108 294 OFFCURVE",
"126 286 OFFCURVE",
"126 249 CURVE SMOOTH",
"126 166 OFFCURVE",
"121 83 OFFCURVE",
"122 0 CURVE"
);
}
);
width = 214;
},
{
layerId = "FB8990CA-0F96-4B7B-86A4-9D429D534475";
paths = (
{
closed = 1;
nodes = (
"241 0 LINE",
"241 47 OFFCURVE",
"241 87 OFFCURVE",
"241 119 CURVE SMOOTH",
"241 223 OFFCURVE",
"241 259 OFFCURVE",
"241 365 CURVE SMOOTH",
"241 469 OFFCURVE",
"211 500 OFFCURVE",
"123 500 CURVE SMOOTH",
"92 500 OFFCURVE",
"68 500 OFFCURVE",
"36 500 CURVE",
"39 500 LINE",
"39 479 OFFCURVE",
"39 400 OFFCURVE",
"39 374 CURVE",
"52 374 OFFCURVE",
"60 374 OFFCURVE",
"71 374 CURVE SMOOTH",
"96 374 OFFCURVE",
"105 371 OFFCURVE",
"105 345 CURVE SMOOTH",
"105 134 OFFCURVE",
"105 147 OFFCURVE",
"105 0 CURVE"
);
}
);
width = 286;
}
);
unicode = 05D5;
},
{
color = 4;
glyphname = "zayin-hb";
lastChange = "2019-04-07 14:51:31 +0000";
layers = (
{
associatedMasterId = "D0BE0C1E-19E7-43D2-9BC3-AB141F408D31";
layerId = "0D2F9F62-6D50-490D-B425-4005BBEB55D2";
name = Paths;
paths = (
{
closed = 0;
nodes = (
"231 0 LINE",
"257 54 OFFCURVE",
"261 82 OFFCURVE",
"261 148 CURVE SMOOTH",
"261 170 OFFCURVE",
"253 198 OFFCURVE",
"244 229 CURVE SMOOTH",
"232 269 OFFCURVE",
"220 311 OFFCURVE",
"223 347 CURVE SMOOTH",
"229 411 OFFCURVE",
"258 465 OFFCURVE",
"314 495 CURVE"
);
},
{
closed = 0;
nodes = (
"372 493 LINE",
"235 493 LINE SMOOTH",
"190 493 OFFCURVE",
"156 500 OFFCURVE",
"125 515 CURVE"
);
}
);
width = 487;
},
{
background = {
paths = (
{
closed = 1;
nodes = (
"291 100 LINE",
"318 154 OFFCURVE",
"322 182 OFFCURVE",
"322 248 CURVE SMOOTH",
"322 270 OFFCURVE",
"313 299 OFFCURVE",
"304 329 CURVE SMOOTH",
"292 370 OFFCURVE",
"280 412 OFFCURVE",
"283 448 CURVE SMOOTH",
"289 512 OFFCURVE",
"319 566 OFFCURVE",
"375 596 CURVE",
"314 495 LINE",
"258 465 OFFCURVE",
"229 411 OFFCURVE",
"223 347 CURVE SMOOTH",
"220 311 OFFCURVE",
"232 269 OFFCURVE",
"244 229 CURVE SMOOTH",
"253 198 OFFCURVE",
"261 170 OFFCURVE",
"261 148 CURVE SMOOTH",
"261 82 OFFCURVE",
"257 54 OFFCURVE",
"231 0 CURVE"
);
},
{
closed = 1;
nodes = (
"372 493 LINE",
"433 594 LINE",
"295 594 LINE SMOOTH",
"250 594 OFFCURVE",
"216 601 OFFCURVE",
"185 616 CURVE",
"125 515 LINE",
"156 500 OFFCURVE",
"190 493 OFFCURVE",
"235 493 CURVE SMOOTH"
);
}
);
};
layerId = "D0BE0C1E-19E7-43D2-9BC3-AB141F408D31";
paths = (
{
closed = 1;
nodes = (
"199 0 LINE",
"209 32 OFFCURVE",
"219 63 OFFCURVE",
"223 92 CURVE",
"193 169 LINE SMOOTH",
"171 225 OFFCURVE",
"156 262 OFFCURVE",
"156 304 CURVE SMOOTH",
"156 345 OFFCURVE",
"167 367 OFFCURVE",
"194 412 CURVE",
"161 412 LINE",
"134 390 OFFCURVE",
"96 342 OFFCURVE",
"96 276 CURVE SMOOTH",
"96 225 OFFCURVE",
"112 176 OFFCURVE",
"130 120 CURVE SMOOTH",
"169 0 LINE"
);
},
{
closed = 1;
nodes = (
"266 398 LINE",
"278 429 OFFCURVE",
"286 462 OFFCURVE",
"289 499 CURVE",
"191 500 LINE SMOOTH",
"118 501 OFFCURVE",
"105 503 OFFCURVE",
"79 520 CURVE",
"56 520 LINE",
"42 490 OFFCURVE",
"34 458 OFFCURVE",
"30 420 CURVE",
"64 400 OFFCURVE",
"99 396 OFFCURVE",
"180 397 CURVE SMOOTH"
);
}
);
width = 319;
},
{
background = {
paths = (
{
closed = 1;
nodes = (
"316 180 LINE SMOOTH",
"343 234 OFFCURVE",
"347 262 OFFCURVE",
"347 328 CURVE SMOOTH",
"347 350 OFFCURVE",
"338 379 OFFCURVE",
"329 409 CURVE SMOOTH",
"317 450 OFFCURVE",
"305 492 OFFCURVE",
"308 528 CURVE SMOOTH",
"314 592 OFFCURVE",
"344 646 OFFCURVE",
"400 676 CURVE",
"314 495 LINE",
"258 465 OFFCURVE",
"229 411 OFFCURVE",
"223 347 CURVE SMOOTH",
"220 311 OFFCURVE",
"232 269 OFFCURVE",
"244 229 CURVE SMOOTH",
"253 198 OFFCURVE",
"261 170 OFFCURVE",
"261 148 CURVE SMOOTH",
"261 82 OFFCURVE",
"257 54 OFFCURVE",
"231 0 CURVE"
);
},
{
closed = 1;
nodes = (
"372 493 LINE",
"458 674 LINE",
"320 674 LINE SMOOTH",
"275 674 OFFCURVE",
"241 681 OFFCURVE",
"210 696 CURVE",
"125 515 LINE",
"156 500 OFFCURVE",
"190 493 OFFCURVE",
"235 493 CURVE SMOOTH"
);
}
);
};
layerId = "AFDF4EF8-A213-4348-ACF7-371209F0497C";
paths = (
{
closed = 1;
nodes = (
"201 1 LINE",
"217 56 OFFCURVE",
"225 109 OFFCURVE",
"225 158 CURVE",
"203 198 LINE SMOOTH",
"178 243 OFFCURVE",
"164 268 OFFCURVE",
"164 306 CURVE SMOOTH",
"164 326 OFFCURVE",
"174 336 OFFCURVE",
"184 363 CURVE",
"127 368 LINE",
"116 354 OFFCURVE",
"85 286 OFFCURVE",
"85 226 CURVE SMOOTH",
"85 165 OFFCURVE",
"89 142 OFFCURVE",
"115 64 CURVE SMOOTH",
"136 1 LINE"
);
},
{
closed = 1;
nodes = (
"236 318 LINE",
"254 374 OFFCURVE",
"268 444 OFFCURVE",
"270 498 CURVE",
"186 499 LINE SMOOTH",
"140 500 OFFCURVE",
"109 504 OFFCURVE",
"87 517 CURVE",
"62 517 LINE",
"46 478 OFFCURVE",
"27 401 OFFCURVE",
"26 353 CURVE",
"69 325 OFFCURVE",
"132 318 OFFCURVE",
"178 318 CURVE SMOOTH"
);
}
);
width = 295;
},
{
background = {
paths = (
{
closed = 1;
nodes = (
"334 160 LINE",
"361 214 OFFCURVE",
"365 242 OFFCURVE",
"365 308 CURVE SMOOTH",
"365 330 OFFCURVE",
"356 359 OFFCURVE",
"347 389 CURVE SMOOTH",
"335 430 OFFCURVE",
"323 472 OFFCURVE",
"326 508 CURVE SMOOTH",
"332 572 OFFCURVE",
"362 626 OFFCURVE",
"418 656 CURVE",
"297 495 LINE",
"241 465 OFFCURVE",
"212 411 OFFCURVE",
"206 347 CURVE SMOOTH",
"203 311 OFFCURVE",
"215 269 OFFCURVE",
"227 229 CURVE SMOOTH",
"236 198 OFFCURVE",
"244 170 OFFCURVE",
"244 148 CURVE SMOOTH",
"244 82 OFFCURVE",
"240 54 OFFCURVE",
"214 0 CURVE"
);
},
{
closed = 1;
nodes = (
"355 493 LINE",
"476 654 LINE",
"338 654 LINE SMOOTH",
"293 654 OFFCURVE",
"259 661 OFFCURVE",
"228 676 CURVE",
"108 515 LINE",
"139 500 OFFCURVE",
"173 493 OFFCURVE",
"218 493 CURVE SMOOTH"
);
}
);
};
layerId = "A396904D-C838-4FF7-A96F-91F438939708";
paths = (
{
closed = 1;
nodes = (
"216 1 LINE",
"232 56 OFFCURVE",
"240 109 OFFCURVE",
"240 158 CURVE",
"223 198 LINE SMOOTH",
"205 240 OFFCURVE",
"197 262 OFFCURVE",
"197 296 CURVE SMOOTH",
"197 319 OFFCURVE",
"200 331 OFFCURVE",
"207 363 CURVE",
"120 368 LINE",
"109 354 OFFCURVE",
"78 286 OFFCURVE",
"78 226 CURVE SMOOTH",
"78 165 OFFCURVE",
"90 110 OFFCURVE",
"103 65 CURVE SMOOTH",
"121 1 LINE"
);
},
{
closed = 1;
nodes = (
"280 335 LINE",
"292 367 OFFCURVE",
"306 465 OFFCURVE",
"306 500 CURVE",
"222 500 LINE SMOOTH",
"139 500 OFFCURVE",
"104 503 OFFCURVE",
"73 517 CURVE",
"46 517 LINE",
"36 494 OFFCURVE",
"18 408 OFFCURVE",
"20 360 CURVE",
"54 343 OFFCURVE",
"116 335 OFFCURVE",
"174 335 CURVE SMOOTH"
);
}
);
width = 326;
},
{
background = {
paths = (
{
closed = 1;
nodes = (
"305 90 LINE",
"332 144 OFFCURVE",
"336 172 OFFCURVE",
"336 238 CURVE SMOOTH",
"336 260 OFFCURVE",
"327 289 OFFCURVE",
"318 319 CURVE SMOOTH",
"306 360 OFFCURVE",
"294 402 OFFCURVE",
"297 438 CURVE SMOOTH",
"303 502 OFFCURVE",
"333 556 OFFCURVE",
"389 586 CURVE",
"313 495 LINE",
"257 465 OFFCURVE",
"228 411 OFFCURVE",
"222 347 CURVE SMOOTH",
"219 311 OFFCURVE",
"231 269 OFFCURVE",
"243 229 CURVE SMOOTH",
"252 198 OFFCURVE",
"260 170 OFFCURVE",
"260 148 CURVE SMOOTH",
"260 82 OFFCURVE",
"256 54 OFFCURVE",
"230 0 CURVE"
);
},
{
closed = 1;
nodes = (
"371 493 LINE",
"447 584 LINE",
"309 584 LINE SMOOTH",
"264 584 OFFCURVE",
"230 591 OFFCURVE",
"199 606 CURVE",
"124 515 LINE",
"155 500 OFFCURVE",
"189 493 OFFCURVE",
"234 493 CURVE SMOOTH"
);
}
);
};
layerId = "5539344D-F27C-4FBD-A9E2-D2F022F19CCA";
paths = (
{
closed = 1;
nodes = (
"199 1 LINE",
"210 29 OFFCURVE",
"230 87 OFFCURVE",
"230 123 CURVE",
"216 175 LINE SMOOTH",
"202 228 OFFCURVE",
"185 292 OFFCURVE",
"185 337 CURVE SMOOTH",
"185 369 OFFCURVE",
"194 393 OFFCURVE",
"211 430 CURVE",
"152 430 LINE",
"136 389 OFFCURVE",
"119 351 OFFCURVE",
"119 300 CURVE SMOOTH",
"119 252 OFFCURVE",
"130 180 OFFCURVE",
"147 96 CURVE SMOOTH",
"167 -3 LINE"
);
},
{
closed = 1;
nodes = (
"283 411 LINE",
"289 433 OFFCURVE",
"298 483 OFFCURVE",
"297 500 CURVE",
"206 500 LINE SMOOTH",
"140 500 OFFCURVE",
"105 506 OFFCURVE",
"86 519 CURVE",
"64 519 LINE",
"52 489 OFFCURVE",
"43 456 OFFCURVE",
"40 431 CURVE",
"62 416 OFFCURVE",
"122 411 OFFCURVE",
"175 411 CURVE SMOOTH"
);
}
);
width = 337;
},
{
background = {
paths = (
{
closed = 1;
nodes = (
"190 492 OFFCURVE",
"152 430 OFFCURVE",
"144 350 CURVE SMOOTH",
"141 308 OFFCURVE",
"154 259 OFFCURVE",
"166 219 CURVE SMOOTH",
"179 177 OFFCURVE",
"182 161 OFFCURVE",
"182 148 CURVE SMOOTH",
"182 82 OFFCURVE",
"178 62 OFFCURVE",
"155 15 CURVE",
"219 -15 LINE",
"245 40 OFFCURVE",
"252 73 OFFCURVE",
"252 148 CURVE SMOOTH",
"252 175 OFFCURVE",
"243 208 OFFCURVE",
"234 239 CURVE SMOOTH",
"217 294 OFFCURVE",
"212 321 OFFCURVE",
"214 344 CURVE SMOOTH",
"219 401 OFFCURVE",
"244 441 OFFCURVE",
"287 464 CURVE",
"253 526 LINE"
);
},
{
closed = 1;
nodes = (
"101 466 OFFCURVE",
"142 458 OFFCURVE",
"191 458 CURVE SMOOTH",
"328 458 LINE",
"328 528 LINE",
"191 528 LINE SMOOTH",
"151 528 OFFCURVE",
"123 533 OFFCURVE",
"96 547 CURVE",
"66 483 LINE"
);
}
);
};
layerId = "798D7B20-9AF4-495F-9307-CAE61518AA1C";
paths = (
{
closed = 1;
nodes = (
"182 0 LINE",
"202 0 OFFCURVE",
"222 0 OFFCURVE",
"242 0 CURVE",
"181 176 LINE SMOOTH",
"160 238 OFFCURVE",
"154 258 OFFCURVE",
"154 292 CURVE SMOOTH",
"154 360 OFFCURVE",
"180 391 OFFCURVE",
"216 419 CURVE",
"149 419 LINE",
"99 370 OFFCURVE",
"82 335 OFFCURVE",
"82 289 CURVE SMOOTH",
"82 245 OFFCURVE",
"95 203 OFFCURVE",
"108 159 CURVE SMOOTH",
"156 0 LINE"
);
},
{
closed = 1;
nodes = (
"272 407 LINE",
"272 430 OFFCURVE",
"272 454 OFFCURVE",
"272 477 CURVE",
"95 477 LINE",
"80 477 OFFCURVE",
"65 477 OFFCURVE",
"49 477 CURVE",
"30 477 LINE",
"30 455 OFFCURVE",
"30 432 OFFCURVE",
"30 407 CURVE",
"41 407 OFFCURVE",
"74 407 OFFCURVE",
"95 407 CURVE"
);
}
);
width = 302;
},
{
background = {
paths = (
{
closed = 1;
nodes = (
"257 514 OFFCURVE",
"216 439 OFFCURVE",
"208 352 CURVE SMOOTH",
"204 303 OFFCURVE",
"220 246 OFFCURVE",
"230 213 CURVE SMOOTH",
"241 175 OFFCURVE",
"246 158 OFFCURVE",
"246 148 CURVE SMOOTH",
"246 86 OFFCURVE",
"244 77 OFFCURVE",
"218 24 CURVE",
"264 -24 LINE",
"289 30 OFFCURVE",
"296 76 OFFCURVE",
"296 148 CURVE SMOOTH",
"296 173 OFFCURVE",
"289 206 OFFCURVE",
"278 245 CURVE SMOOTH",
"264 292 OFFCURVE",
"256 319 OFFCURVE",
"258 342 CURVE SMOOTH",
"263 392 OFFCURVE",
"282 418 OFFCURVE",
"336 447 CURVE",
"312 543 LINE"
);
},
{
closed = 1;
nodes = (
"168 444 OFFCURVE",
"195 438 OFFCURVE",
"245 438 CURVE SMOOTH",
"382 438 LINE",
"382 548 LINE",
"245 548 LINE SMOOTH",
"205 548 OFFCURVE",
"167 554 OFFCURVE",
"146 565 CURVE",
"124 465 LINE"
);
}
);
};
layerId = "C42C1682-C410-46D1-BF5A-F68DB0880154";
paths = (
{
closed = 1;
nodes = (
"203 0 LINE",
"213 39 OFFCURVE",
"219 70 OFFCURVE",
"222 107 CURVE",
"181 211 LINE SMOOTH",
"159 266 OFFCURVE",
"158 280 OFFCURVE",
"158 300 CURVE SMOOTH",
"158 334 OFFCURVE",
"168 351 OFFCURVE",
"203 389 CURVE",
"161 389 LINE",
"131 355 OFFCURVE",
"110 319 OFFCURVE",
"110 271 CURVE SMOOTH",
"110 216 OFFCURVE",
"124 174 OFFCURVE",
"143 105 CURVE SMOOTH",
"172 0 LINE"
);
},
{
closed = 1;
nodes = (
"260 377 LINE",
"268 393 OFFCURVE",
"268 471 OFFCURVE",
"260 487 CURVE",
"163 486 LINE SMOOTH",
"108 485 OFFCURVE",
"89 499 OFFCURVE",
"79 515 CURVE",
"57 515 LINE",
"46 492 OFFCURVE",
"41 462 OFFCURVE",
"41 438 CURVE SMOOTH",
"41 389 OFFCURVE",
"67 377 OFFCURVE",
"163 377 CURVE SMOOTH"
);
}
);
width = 309;
},
{
background = {
paths = (
{
closed = 1;
nodes = (
"263 549 OFFCURVE",
"222 450 OFFCURVE",
"213 355 CURVE SMOOTH",
"210 312 OFFCURVE",
"219 254 OFFCURVE",
"235 202 CURVE SMOOTH",
"250 152 OFFCURVE",
"251 148 OFFCURVE",
"251 148 CURVE",
"251 88 OFFCURVE",
"254 103 OFFCURVE",
"224 41 CURVE",
"272 -41 LINE",
"295 6 OFFCURVE",
"305 64 OFFCURVE",
"305 148 CURVE SMOOTH",
"305 181 OFFCURVE",
"298 219 OFFCURVE",
"287 256 CURVE SMOOTH",
"270 312 OFFCURVE",
"266 327 OFFCURVE",
"267 339 CURVE SMOOTH",
"271 380 OFFCURVE",
"270 372 OFFCURVE",
"344 411 CURVE",
"318 579 LINE"
);
},
{
closed = 1;
nodes = (
"186 403 OFFCURVE",
"198 398 OFFCURVE",
"252 398 CURVE SMOOTH",
"389 398 LINE",
"389 588 LINE",
"252 588 LINE SMOOTH",
"203 588 OFFCURVE",
"162 596 OFFCURVE",
"154 601 CURVE",
"130 429 LINE"
);
}
);
};
layerId = "E84AB450-BED0-484C-851E-2EB7B7ED9E73";
paths = (
{
closed = 1;
nodes = (
"119 0 LINE",
"144 56 OFFCURVE",
"150 108 OFFCURVE",
"150 158 CURVE",
"147 172 LINE SMOOTH",
"138 214 OFFCURVE",
"118 244 OFFCURVE",
"118 277 CURVE SMOOTH",
"118 285 OFFCURVE",
"118 293 OFFCURVE",
"124 302 CURVE",
"100 302 LINE",
"69 260 OFFCURVE",
"57 216 OFFCURVE",
"57 186 CURVE SMOOTH",
"57 174 OFFCURVE",
"62 129 OFFCURVE",
"73 70 CURVE SMOOTH",
"86 0 LINE"
);
},
{
closed = 1;
nodes = (
"163 292 LINE",
"186 321 OFFCURVE",
"186 460 OFFCURVE",
"162 484 CURVE",
"124 486 LINE SMOOTH",
"97 487 OFFCURVE",
"74 489 OFFCURVE",
"69 512 CURVE",
"42 512 LINE",
"28 475 OFFCURVE",
"19 433 OFFCURVE",
"19 399 CURVE SMOOTH",
"19 313 OFFCURVE",
"46 298 OFFCURVE",
"104 295 CURVE SMOOTH"
);
}
);
width = 201;
},
{
background = {
paths = (
{
closed = 1;
nodes = (
"231 511 OFFCURVE",
"187 441 OFFCURVE",
"178 352 CURVE SMOOTH",
"174 305 OFFCURVE",
"189 252 OFFCURVE",
"202 211 CURVE SMOOTH",
"213 173 OFFCURVE",
"216 158 OFFCURVE",
"216 148 CURVE SMOOTH",
"216 85 OFFCURVE",
"213 70 OFFCURVE",
"192 27 CURVE",
"310 -27 LINE",
"338 32 OFFCURVE",
"346 71 OFFCURVE",
"346 148 CURVE SMOOTH",
"346 178 OFFCURVE",
"336 214 OFFCURVE",
"326 247 CURVE SMOOTH",
"311 299 OFFCURVE",
"306 323 OFFCURVE",
"308 342 CURVE SMOOTH",
"312 389 OFFCURVE",
"332 423 OFFCURVE",
"365 440 CURVE",
"303 550 LINE"
);
},
{
closed = 1;
nodes = (
"155 441 OFFCURVE",
"203 431 OFFCURVE",
"255 431 CURVE SMOOTH",
"392 431 LINE",
"392 555 LINE",
"255 555 LINE SMOOTH",
"218 555 OFFCURVE",
"198 559 OFFCURVE",
"173 571 CURVE",
"117 459 LINE"
);
}
);
};
layerId = "FB8990CA-0F96-4B7B-86A4-9D429D534475";
paths = (
{
closed = 1;
nodes = (
"184 0 LINE",
"219 0 OFFCURVE",
"250 0 OFFCURVE",
"285 0 CURVE",
"232 180 LINE SMOOTH",
"215 239 OFFCURVE",
"213 267 OFFCURVE",
"213 292 CURVE SMOOTH",
"213 326 OFFCURVE",
"221 355 OFFCURVE",
"256 391 CURVE",
"155 391 LINE",
"101 351 OFFCURVE",
"86 312 OFFCURVE",
"86 273 CURVE SMOOTH",
"86 230 OFFCURVE",
"98 179 OFFCURVE",
"120 95 CURVE SMOOTH",
"145 0 LINE"
);
},
{
closed = 1;
nodes = (
"330 374 LINE",
"330 416 OFFCURVE",
"330 459 OFFCURVE",
"330 500 CURVE",
"149 500 LINE SMOOTH",
"135 500 OFFCURVE",
"93 500 OFFCURVE",
"57 500 CURVE",
"30 500 LINE",
"30 479 OFFCURVE",
"30 399 OFFCURVE",
"30 374 CURVE",
"58 374 OFFCURVE",
"113 374 OFFCURVE",
"149 374 CURVE SMOOTH"
);
}
);
width = 360;
}
);
unicode = 05D6;
},
{
color = 4;
glyphname = "het-hb";
lastChange = "2019-04-07 13:20:13 +0000";
layers = (
{
layerId = "D0BE0C1E-19E7-43D2-9BC3-AB141F408D31";
paths = (
{
closed = 1;
nodes = (
"398 0 LINE",
"411 32 OFFCURVE",
"422 65 OFFCURVE",
"432 109 CURVE",
"432 192 OFFCURVE",
"433 279 OFFCURVE",
"431 357 CURVE SMOOTH",
"428 471 OFFCURVE",
"391 500 OFFCURVE",
"275 500 CURVE SMOOTH",
"255 500 LINE SMOOTH",
"149 500 OFFCURVE",
"123 500 OFFCURVE",
"102 516 CURVE",
"79 516 LINE",
"65 487 OFFCURVE",
"57 456 OFFCURVE",
"53 420 CURVE",
"83 400 OFFCURVE",
"128 397 OFFCURVE",
"244 397 CURVE SMOOTH",
"264 397 LINE SMOOTH",
"354 397 OFFCURVE",
"359 388 OFFCURVE",
"362 307 CURVE SMOOTH",
"365 237 OFFCURVE",
"367 152 OFFCURVE",
"370 0 CURVE"
);
},
{
closed = 1;
nodes = (
"98 0 LINE",
"110 31 OFFCURVE",
"119 64 OFFCURVE",
"127 99 CURVE",
"128 151 OFFCURVE",
"131 202 OFFCURVE",
"131 254 CURVE SMOOTH",
"131 317 OFFCURVE",
"124 425 OFFCURVE",
"104 480 CURVE",
"53 420 LINE",
"63 346 OFFCURVE",
"64 293 OFFCURVE",
"64 198 CURVE SMOOTH",
"63 0 LINE"
);
}
);
width = 482;
},
{
layerId = "AFDF4EF8-A213-4348-ACF7-371209F0497C";
paths = (
{
closed = 1;
nodes = (
"392 0 LINE",
"407 56 OFFCURVE",
"422 113 OFFCURVE",
"431 177 CURVE",
"431 251 OFFCURVE",
"430 298 OFFCURVE",
"425 367 CURVE SMOOTH",
"418 466 OFFCURVE",
"377 500 OFFCURVE",
"276 500 CURVE SMOOTH",
"256 500 LINE SMOOTH",
"177 500 OFFCURVE",
"111 501 OFFCURVE",
"94 509 CURVE",
"69 509 LINE",
"53 469 OFFCURVE",
"34 389 OFFCURVE",
"33 336 CURVE",
"87 323 OFFCURVE",
"166 318 OFFCURVE",
"248 318 CURVE SMOOTH",
"268 318 LINE SMOOTH",
"329 318 OFFCURVE",
"339 304 OFFCURVE",
"343 226 CURVE SMOOTH",
"347 156 OFFCURVE",
"350 81 OFFCURVE",
"353 0 CURVE"
);
},
{
closed = 1;
nodes = (
"91 0 LINE",
"105 59 OFFCURVE",
"123 118 OFFCURVE",
"131 177 CURVE",
"131 192 OFFCURVE",
"132 207 OFFCURVE",
"132 222 CURVE SMOOTH",
"133 272 OFFCURVE",
"127 334 OFFCURVE",
"116 372 CURVE",
"33 336 LINE",
"42 294 OFFCURVE",
"49 226 OFFCURVE",
"48 171 CURVE",
"52 0 LINE"
);
}
);
width = 453;
},
{
layerId = "A396904D-C838-4FF7-A96F-91F438939708";
paths = (
{
closed = 1;
nodes = (
"445 0 LINE",
"456 45 OFFCURVE",
"470 100 OFFCURVE",
"476 161 CURVE",
"474 234 OFFCURVE",
"475 316 OFFCURVE",
"471 378 CURVE SMOOTH",
"466 456 OFFCURVE",
"423 500 OFFCURVE",
"297 500 CURVE SMOOTH",
"247 500 LINE SMOOTH",
"163 500 OFFCURVE",
"118 502 OFFCURVE",
"99 512 CURVE",
"72 512 LINE",
"62 487 OFFCURVE",
"43 395 OFFCURVE",
"40 348 CURVE",
"57 339 OFFCURVE",
"137 335 OFFCURVE",
"174 335 CURVE SMOOTH",
"255 335 LINE SMOOTH",
"342 335 OFFCURVE",
"353 318 OFFCURVE",
"356 232 CURVE SMOOTH",
"358 177 OFFCURVE",
"362 68 OFFCURVE",
"362 0 CURVE"
);
},
{
closed = 1;
nodes = (
"154 0 LINE",
"168 53 OFFCURVE",
"170 107 OFFCURVE",
"176 160 CURVE",
"179 222 OFFCURVE",
"172 284 OFFCURVE",
"171 346 CURVE SMOOTH",
"170 399 OFFCURVE",
"160 413 OFFCURVE",
"149 439 CURVE",
"40 348 LINE",
"53 275 OFFCURVE",
"55 208 OFFCURVE",
"56 145 CURVE SMOOTH",
"59 0 LINE"
);
}
);
width = 497;
},
{
layerId = "5539344D-F27C-4FBD-A9E2-D2F022F19CCA";
paths = (
{
closed = 1;
nodes = (
"482 0 LINE",
"487 31 OFFCURVE",
"491 64 OFFCURVE",
"493 104 CURVE",
"496 159 OFFCURVE",
"497 220 OFFCURVE",
"495 296 CURVE SMOOTH",
"491 449 OFFCURVE",
"471 500 OFFCURVE",
"320 500 CURVE SMOOTH",
"243 500 LINE SMOOTH",
"178 500 OFFCURVE",
"118 504 OFFCURVE",
"97 513 CURVE",
"75 513 LINE",
"63 486 OFFCURVE",
"53 456 OFFCURVE",
"50 433 CURVE",
"72 416 OFFCURVE",
"156 411 OFFCURVE",
"202 411 CURVE SMOOTH",
"279 411 LINE SMOOTH",
"410 411 OFFCURVE",
"414 396 OFFCURVE",
"420 278 CURVE SMOOTH",
"427 146 OFFCURVE",
"426 98 OFFCURVE",
"431 0 CURVE"
);
},
{
closed = 1;
nodes = (
"126 0 LINE",
"132 31 OFFCURVE",
"138 65 OFFCURVE",
"140 105 CURVE",
"143 160 OFFCURVE",
"144 225 OFFCURVE",
"142 321 CURVE SMOOTH",
"142 361 OFFCURVE",
"138 414 OFFCURVE",
"123 445 CURVE",
"50 433 LINE",
"70 409 OFFCURVE",
"69 335 OFFCURVE",
"70 272 CURVE SMOOTH",
"75 0 LINE"
);
}
);
width = 525;
},
{
layerId = "798D7B20-9AF4-495F-9307-CAE61518AA1C";
paths = (
{
closed = 1;
nodes = (
"470 0 LINE",
"470 85 OFFCURVE",
"470 131 OFFCURVE",
"470 184 CURVE SMOOTH",
"470 235 OFFCURVE",
"470 257 OFFCURVE",
"470 295 CURVE SMOOTH",
"470 417 OFFCURVE",
"442 477 OFFCURVE",
"299 477 CURVE SMOOTH",
"219 477 LINE SMOOTH",
"177 477 OFFCURVE",
"88 477 OFFCURVE",
"33 477 CURVE",
"14 477 LINE",
"14 455 OFFCURVE",
"14 432 OFFCURVE",
"14 407 CURVE",
"37 407 OFFCURVE",
"173 407 OFFCURVE",
"219 407 CURVE SMOOTH",
"299 407 LINE SMOOTH",
"380 407 OFFCURVE",
"394 382 OFFCURVE",
"394 295 CURVE SMOOTH",
"394 124 OFFCURVE",
"394 188 OFFCURVE",
"394 0 CURVE"
);
},
{
closed = 1;
nodes = (
"146 0 LINE",
"146 94 OFFCURVE",
"146 145 OFFCURVE",
"146 204 CURVE SMOOTH",
"146 285 OFFCURVE",
"146 361 OFFCURVE",
"146 386 CURVE SMOOTH",
"146 409 OFFCURVE",
"146 409 OFFCURVE",
"146 439 CURVE",
"70 438 LINE",
"70 403 OFFCURVE",
"70 392 OFFCURVE",
"70 366 CURVE SMOOTH",
"70 0 LINE"
);
}
);
width = 520;
},
{
layerId = "C42C1682-C410-46D1-BF5A-F68DB0880154";
paths = (
{
closed = 1;
nodes = (
"405 -4 LINE",
"419 36 OFFCURVE",
"433 58 OFFCURVE",
"433 116 CURVE SMOOTH",
"433 165 OFFCURVE",
"421 221 OFFCURVE",
"421 284 CURVE SMOOTH",
"421 476 OFFCURVE",
"403 486 OFFCURVE",
"262 486 CURVE SMOOTH",
"183 486 LINE SMOOTH",
"77 486 OFFCURVE",
"68 492 OFFCURVE",
"58 512 CURVE",
"36 512 LINE",
"25 489 OFFCURVE",
"20 459 OFFCURVE",
"20 435 CURVE SMOOTH",
"20 382 OFFCURVE",
"33 377 OFFCURVE",
"183 377 CURVE SMOOTH",
"262 377 LINE SMOOTH",
"360 377 OFFCURVE",
"376 359 OFFCURVE",
"377 276 CURVE SMOOTH",
"378 177 OFFCURVE",
"376 54 OFFCURVE",
"374 0 CURVE"
);
},
{
closed = 1;
nodes = (
"92 -4 LINE",
"113 35 OFFCURVE",
"121 62 OFFCURVE",
"121 116 CURVE SMOOTH",
"121 165 OFFCURVE",
"114 209 OFFCURVE",
"114 275 CURVE SMOOTH",
"114 329 OFFCURVE",
"117 369 OFFCURVE",
"137 406 CURVE",
"94 406 LINE",
"71 377 OFFCURVE",
"62 324 OFFCURVE",
"62 267 CURVE SMOOTH",
"62 0 LINE"
);
}
);
width = 483;
},
{
layerId = "E84AB450-BED0-484C-851E-2EB7B7ED9E73";
paths = (
{
closed = 1;
nodes = (
"379 0 LINE",
"388 40 OFFCURVE",
"389 74 OFFCURVE",
"389 103 CURVE SMOOTH",
"389 170 OFFCURVE",
"375 206 OFFCURVE",
"375 272 CURVE SMOOTH",
"375 467 OFFCURVE",
"362 486 OFFCURVE",
"198 486 CURVE SMOOTH",
"158 486 LINE SMOOTH",
"81 486 OFFCURVE",
"58 489 OFFCURVE",
"53 512 CURVE",
"22 512 LINE",
"11 475 OFFCURVE",
"10 431 OFFCURVE",
"10 397 CURVE SMOOTH",
"10 311 OFFCURVE",
"42 294 OFFCURVE",
"158 294 CURVE SMOOTH",
"198 294 LINE SMOOTH",
"320 294 OFFCURVE",
"324 289 OFFCURVE",
"324 218 CURVE SMOOTH",
"324 165 OFFCURVE",
"322 83 OFFCURVE",
"330 0 CURVE"
);
},
{
closed = 1;
nodes = (
"104 0 LINE",
"113 40 OFFCURVE",
"114 74 OFFCURVE",
"114 103 CURVE SMOOTH",
"114 146 OFFCURVE",
"108 171 OFFCURVE",
"108 223 CURVE SMOOTH",
"108 269 OFFCURVE",
"114 280 OFFCURVE",
"130 332 CURVE",
"86 331 LINE",
"68 289 OFFCURVE",
"47 244 OFFCURVE",
"49 148 CURVE SMOOTH",
"52 0 LINE"
);
}
);
width = 419;
},
{
layerId = "FB8990CA-0F96-4B7B-86A4-9D429D534475";
paths = (
{
closed = 1;
nodes = (
"517 0 LINE",
"517 47 OFFCURVE",
"517 87 OFFCURVE",
"517 119 CURVE SMOOTH",
"517 172 OFFCURVE",
"517 199 OFFCURVE",
"517 279 CURVE SMOOTH",
"517 459 OFFCURVE",
"464 500 OFFCURVE",
"299 500 CURVE SMOOTH",
"229 500 LINE SMOOTH",
"213 500 OFFCURVE",
"84 500 OFFCURVE",
"37 500 CURVE",
"11 500 LINE",
"11 479 OFFCURVE",
"11 400 OFFCURVE",
"11 374 CURVE",
"60 374 OFFCURVE",
"187 374 OFFCURVE",
"229 374 CURVE SMOOTH",
"299 374 LINE SMOOTH",
"369 374 OFFCURVE",
"381 362 OFFCURVE",
"381 279 CURVE SMOOTH",
"381 108 OFFCURVE",
"381 109 OFFCURVE",
"381 0 CURVE"
);
},
{
closed = 1;
nodes = (
"207 0 LINE",
"207 47 OFFCURVE",
"207 87 OFFCURVE",
"207 119 CURVE SMOOTH",
"207 223 OFFCURVE",
"207 259 OFFCURVE",
"207 365 CURVE",
"207 382 OFFCURVE",
"207 399 OFFCURVE",
"207 416 CURVE",
"71 416 LINE",
"71 392 OFFCURVE",
"71 369 OFFCURVE",
"71 345 CURVE",
"71 0 LINE"
);
}
);
width = 547;
}
);
rightMetricsKey = "resh-hb";
unicode = 05D7;
},
{
color = 4;
glyphname = "yod-hb";
lastChange = "2019-04-07 11:39:34 +0000";
layers = (
{
layerId = "D0BE0C1E-19E7-43D2-9BC3-AB141F408D31";
paths = (
{
closed = 1;
nodes = (
"143 180 OFFCURVE",
"159 210 OFFCURVE",
"176 250 CURVE SMOOTH",
"201 309 OFFCURVE",
"210 337 OFFCURVE",
"210 368 CURVE SMOOTH",
"210 443 OFFCURVE",
"178 459 OFFCURVE",
"131 487 CURVE SMOOTH",
"111 499 OFFCURVE",
"91 506 OFFCURVE",
"76 512 CURVE",
"52 512 LINE",
"39 483 OFFCURVE",
"29 445 OFFCURVE",
"20 413 CURVE",
"40 403 OFFCURVE",
"63 393 OFFCURVE",
"85 380 CURVE SMOOTH",
"119 360 OFFCURVE",
"137 349 OFFCURVE",
"125 284 CURVE SMOOTH",
"118 241 OFFCURVE",
"109 211 OFFCURVE",
"97 161 CURVE",
"124 154 LINE"
);
}
);
width = 250;
},
{
layerId = "AFDF4EF8-A213-4348-ACF7-371209F0497C";
paths = (
{
closed = 1;
nodes = (
"146 174 OFFCURVE",
"166 214 OFFCURVE",
"178 248 CURVE SMOOTH",
"189 279 OFFCURVE",
"209 326 OFFCURVE",
"209 375 CURVE SMOOTH",
"209 438 OFFCURVE",
"199 459 OFFCURVE",
"146 482 CURVE SMOOTH",
"105 501 OFFCURVE",
"87 508 OFFCURVE",
"82 509 CURVE",
"57 509 LINE",
"40 467 OFFCURVE",
"21 385 OFFCURVE",
"18 329 CURVE",
"42 320 OFFCURVE",
"54 315 OFFCURVE",
"77 305 CURVE SMOOTH",
"102 294 OFFCURVE",
"105 284 OFFCURVE",
"95 239 CURVE SMOOTH",
"86 197 OFFCURVE",
"81 184 OFFCURVE",
"75 158 CURVE",
"129 138 LINE"
);
}
);
width = 229;
},
{
layerId = "A396904D-C838-4FF7-A96F-91F438939708";
paths = (
{
closed = 1;
nodes = (
"179 177 OFFCURVE",
"192 221 OFFCURVE",
"200 256 CURVE SMOOTH",
"209 298 OFFCURVE",
"214 342 OFFCURVE",
"214 378 CURVE SMOOTH",
"214 441 OFFCURVE",
"199 459 OFFCURVE",
"146 482 CURVE SMOOTH",
"105 501 OFFCURVE",
"87 508 OFFCURVE",
"82 509 CURVE",
"57 509 LINE",
"40 467 OFFCURVE",
"21 385 OFFCURVE",
"18 329 CURVE",
"37 322 OFFCURVE",
"45 320 OFFCURVE",
"61 313 CURVE SMOOTH",
"80 305 OFFCURVE",
"84 290 OFFCURVE",
"77 245 CURVE SMOOTH",
"72 211 OFFCURVE",
"67 186 OFFCURVE",
"62 159 CURVE",
"164 138 LINE"
);
}
);
width = 230;
},
{
layerId = "5539344D-F27C-4FBD-A9E2-D2F022F19CCA";
paths = (
{
closed = 1;
nodes = (
"151 191 OFFCURVE",
"167 218 OFFCURVE",
"180 251 CURVE",
"198 294 OFFCURVE",
"216 338 OFFCURVE",
"216 388 CURVE SMOOTH",
"216 420 OFFCURVE",
"208 445 OFFCURVE",
"145 480 CURVE SMOOTH",
"121 494 OFFCURVE",
"96 506 OFFCURVE",
"78 513 CURVE",
"56 513 LINE",
"44 491 OFFCURVE",
"34 461 OFFCURVE",
"27 426 CURVE",
"47 415 OFFCURVE",
"75 403 OFFCURVE",
"95 392 CURVE SMOOTH",
"139 368 OFFCURVE",
"144 360 OFFCURVE",
"124 291 CURVE SMOOTH",
"109 237 OFFCURVE",
"105 228 OFFCURVE",
"92 185 CURVE",
"134 168 LINE"
);
}
);
width = 250;
},
{
layerId = "798D7B20-9AF4-495F-9307-CAE61518AA1C";
paths = (
{
closed = 1;
nodes = (
"163 247 OFFCURVE",
"163 253 OFFCURVE",
"163 264 CURVE SMOOTH",
"163 318 OFFCURVE",
"163 357 OFFCURVE",
"163 386 CURVE SMOOTH",
"163 457 OFFCURVE",
"143 477 OFFCURVE",
"66 477 CURVE SMOOTH",
"43 477 OFFCURVE",
"49 477 OFFCURVE",
"32 477 CURVE",
"19 477 LINE",
"19 455 OFFCURVE",
"19 432 OFFCURVE",
"19 407 CURVE",
"34 407 OFFCURVE",
"49 407 OFFCURVE",
"61 407 CURVE SMOOTH",
"84 407 OFFCURVE",
"87 403 OFFCURVE",
"87 376 CURVE SMOOTH",
"87 273 OFFCURVE",
"87 340 OFFCURVE",
"87 230 CURVE",
"163 230 LINE"
);
}
);
width = 208;
},
{
layerId = "C42C1682-C410-46D1-BF5A-F68DB0880154";
paths = (
{
closed = 1;
nodes = (
"131 177 OFFCURVE",
"143 190 OFFCURVE",
"156 211 CURVE SMOOTH",
"171 236 OFFCURVE",
"188 280 OFFCURVE",
"188 339 CURVE SMOOTH",
"188 463 OFFCURVE",
"171 486 OFFCURVE",
"94 486 CURVE SMOOTH",
"67 486 OFFCURVE",
"61 497 OFFCURVE",
"55 512 CURVE",
"33 512 LINE",
"22 489 OFFCURVE",
"20 467 OFFCURVE",
"20 444 CURVE SMOOTH",
"20 392 OFFCURVE",
"33 377 OFFCURVE",
"84 377 CURVE SMOOTH",
"128 377 OFFCURVE",
"140 372 OFFCURVE",
"140 314 CURVE SMOOTH",
"140 267 OFFCURVE",
"128 230 OFFCURVE",
"87 184 CURVE",
"109 161 LINE"
);
}
);
width = 218;
},
{
layerId = "E84AB450-BED0-484C-851E-2EB7B7ED9E73";
paths = (
{
closed = 1;
nodes = (
"125 157 OFFCURVE",
"145 174 OFFCURVE",
"162 203 CURVE SMOOTH",
"182 236 OFFCURVE",
"193 274 OFFCURVE",
"193 363 CURVE SMOOTH",
"193 468 OFFCURVE",
"160 486 OFFCURVE",
"90 486 CURVE SMOOTH",
"75 486 OFFCURVE",
"63 489 OFFCURVE",
"58 512 CURVE",
"27 512 LINE",
"16 475 OFFCURVE",
"15 431 OFFCURVE",
"15 397 CURVE SMOOTH",
"15 311 OFFCURVE",
"47 294 OFFCURVE",
"80 294 CURVE SMOOTH",
"108 294 OFFCURVE",
"120 286 OFFCURVE",
"120 256 CURVE SMOOTH",
"120 225 OFFCURVE",
"104 204 OFFCURVE",
"71 175 CURVE",
"97 141 LINE"
);
}
);
width = 218;
},
{
layerId = "FB8990CA-0F96-4B7B-86A4-9D429D534475";
paths = (
{
closed = 1;
nodes = (
"231 219 OFFCURVE",
"231 229 OFFCURVE",
"231 239 CURVE SMOOTH",
"231 284 OFFCURVE",
"231 319 OFFCURVE",
"231 365 CURVE SMOOTH",
"231 469 OFFCURVE",
"201 500 OFFCURVE",
"113 500 CURVE SMOOTH",
"82 500 OFFCURVE",
"58 500 OFFCURVE",
"26 500 CURVE",
"29 500 LINE",
"29 479 OFFCURVE",
"29 400 OFFCURVE",
"29 374 CURVE",
"42 374 OFFCURVE",
"50 374 OFFCURVE",
"61 374 CURVE SMOOTH",
"86 374 OFFCURVE",
"95 371 OFFCURVE",
"95 345 CURVE SMOOTH",
"95 270 OFFCURVE",
"95 281 OFFCURVE",
"95 207 CURVE",
"231 207 LINE"
);
}
);
width = 276;
}
);
unicode = 05D9;
},
{
color = 4;
glyphname = "finalkaf-hb";
lastChange = "2019-03-20 19:16:15 +0000";
layers = (
{
layerId = "D0BE0C1E-19E7-43D2-9BC3-AB141F408D31";
paths = (
{
closed = 1;
nodes = (
"314 -150 LINE",
"327 -118 OFFCURVE",
"338 -85 OFFCURVE",
"348 -41 CURVE",
"348 54 OFFCURVE",
"349 268 OFFCURVE",
"347 357 CURVE SMOOTH",
"343 471 OFFCURVE",
"307 500 OFFCURVE",
"181 500 CURVE SMOOTH",
"102 500 OFFCURVE",
"92 500 OFFCURVE",
"59 516 CURVE",
"36 516 LINE",
"22 487 OFFCURVE",
"14 456 OFFCURVE",
"10 420 CURVE",
"46 400 OFFCURVE",
"84 397 OFFCURVE",
"170 397 CURVE SMOOTH",
"270 397 OFFCURVE",
"274 388 OFFCURVE",
"278 307 CURVE SMOOTH",
"281 228 OFFCURVE",
"283 21 OFFCURVE",
"286 -150 CURVE"
);
}
);
width = 398;
},
{
layerId = "AFDF4EF8-A213-4348-ACF7-371209F0497C";
paths = (
{
closed = 1;
nodes = (
"312 -150 LINE",
"327 -94 OFFCURVE",
"342 -37 OFFCURVE",
"351 27 CURVE",
"351 159 OFFCURVE",
"350 244 OFFCURVE",
"345 367 CURVE SMOOTH",
"338 465 OFFCURVE",
"298 500 OFFCURVE",
"186 500 CURVE SMOOTH",
"104 500 OFFCURVE",
"96 501 OFFCURVE",
"76 509 CURVE",
"51 509 LINE",
"35 469 OFFCURVE",
"16 389 OFFCURVE",
"15 336 CURVE",
"69 323 OFFCURVE",
"95 318 OFFCURVE",
"178 318 CURVE SMOOTH",
"249 318 OFFCURVE",
"259 304 OFFCURVE",
"263 226 CURVE SMOOTH",
"267 110 OFFCURVE",
"270 -15 OFFCURVE",
"273 -150 CURVE"
);
}
);
width = 373;
},
{
layerId = "A396904D-C838-4FF7-A96F-91F438939708";
paths = (
{
closed = 1;
nodes = (
"348 -150 LINE",
"359 -105 OFFCURVE",
"373 -50 OFFCURVE",
"379 11 CURVE",
"379 131 OFFCURVE",
"378 271 OFFCURVE",
"374 378 CURVE SMOOTH",
"369 456 OFFCURVE",
"325 500 OFFCURVE",
"190 500 CURVE SMOOTH",
"110 500 OFFCURVE",
"95 502 OFFCURVE",
"65 512 CURVE",
"38 512 LINE",
"28 487 OFFCURVE",
"9 395 OFFCURVE",
"6 348 CURVE",
"34 339 OFFCURVE",
"84 335 OFFCURVE",
"131 335 CURVE SMOOTH",
"245 335 OFFCURVE",
"256 318 OFFCURVE",
"259 232 CURVE SMOOTH",
"261 146 OFFCURVE",
"265 -20 OFFCURVE",
"265 -150 CURVE"
);
}
);
width = 400;
},
{
layerId = "5539344D-F27C-4FBD-A9E2-D2F022F19CCA";
paths = (
{
closed = 1;
nodes = (
"365 -150 LINE",
"370 -119 OFFCURVE",
"374 -86 OFFCURVE",
"376 -46 CURVE",
"379 52 OFFCURVE",
"380 161 OFFCURVE",
"378 296 CURVE SMOOTH",
"374 449 OFFCURVE",
"354 500 OFFCURVE",
"193 500 CURVE SMOOTH",
"118 500 OFFCURVE",
"78 504 OFFCURVE",
"57 513 CURVE",
"35 513 LINE",
"23 486 OFFCURVE",
"13 456 OFFCURVE",
"10 433 CURVE",
"33 416 OFFCURVE",
"96 411 OFFCURVE",
"152 411 CURVE SMOOTH",
"293 411 OFFCURVE",
"297 396 OFFCURVE",
"303 278 CURVE SMOOTH",
"310 75 OFFCURVE",
"309 1 OFFCURVE",
"314 -150 CURVE"
);
}
);
width = 408;
},
{
layerId = "798D7B20-9AF4-495F-9307-CAE61518AA1C";
paths = (
{
closed = 1;
nodes = (
"346 -150 LINE",
"346 -72 OFFCURVE",
"346 -30 OFFCURVE",
"346 18 CURVE SMOOTH",
"346 145 OFFCURVE",
"346 200 OFFCURVE",
"346 295 CURVE SMOOTH",
"346 417 OFFCURVE",
"318 477 OFFCURVE",
"195 477 CURVE SMOOTH",
"143 477 OFFCURVE",
"94 477 OFFCURVE",
"39 477 CURVE",
"20 477 LINE",
"20 455 OFFCURVE",
"20 432 OFFCURVE",
"20 407 CURVE",
"43 407 OFFCURVE",
"139 407 OFFCURVE",
"195 407 CURVE SMOOTH",
"256 407 OFFCURVE",
"270 382 OFFCURVE",
"270 295 CURVE SMOOTH",
"270 37 OFFCURVE",
"270 134 OFFCURVE",
"270 -150 CURVE"
);
}
);
width = 396;
},
{
layerId = "C42C1682-C410-46D1-BF5A-F68DB0880154";
paths = (
{
closed = 1;
nodes = (
"326 -154 LINE",
"340 -114 OFFCURVE",
"354 -92 OFFCURVE",
"354 -34 CURVE SMOOTH",
"354 59 OFFCURVE",
"342 165 OFFCURVE",
"342 284 CURVE SMOOTH",
"342 476 OFFCURVE",
"324 486 OFFCURVE",
"173 486 CURVE SMOOTH",
"77 486 OFFCURVE",
"68 492 OFFCURVE",
"58 512 CURVE",
"36 512 LINE",
"25 489 OFFCURVE",
"20 459 OFFCURVE",
"20 435 CURVE SMOOTH",
"20 382 OFFCURVE",
"33 377 OFFCURVE",
"173 377 CURVE SMOOTH",
"281 377 OFFCURVE",
"297 359 OFFCURVE",
"298 276 CURVE SMOOTH",
"299 125 OFFCURVE",
"285 5 OFFCURVE",
"292 -150 CURVE"
);
}
);
width = 404;
},
{
layerId = "E84AB450-BED0-484C-851E-2EB7B7ED9E73";
paths = (
{
closed = 1;
nodes = (
"315 -150 LINE",
"326 -110 OFFCURVE",
"329 -76 OFFCURVE",
"329 -47 CURVE SMOOTH",
"329 49 OFFCURVE",
"315 147 OFFCURVE",
"315 272 CURVE SMOOTH",
"315 467 OFFCURVE",
"301 486 OFFCURVE",
"138 486 CURVE SMOOTH",
"81 486 OFFCURVE",
"58 489 OFFCURVE",
"53 512 CURVE",
"22 512 LINE",
"11 475 OFFCURVE",
"10 431 OFFCURVE",
"10 397 CURVE SMOOTH",
"10 311 OFFCURVE",
"42 294 OFFCURVE",
"138 294 CURVE SMOOTH",
"260 294 OFFCURVE",
"264 289 OFFCURVE",
"264 248 CURVE SMOOTH",
"264 115 OFFCURVE",
"250 -17 OFFCURVE",
"266 -150 CURVE"
);
}
);
width = 359;
},
{
layerId = "FB8990CA-0F96-4B7B-86A4-9D429D534475";
paths = (
{
closed = 1;
nodes = (
"387 -150 LINE",
"387 -103 OFFCURVE",
"387 -63 OFFCURVE",
"387 -31 CURVE SMOOTH",
"387 22 OFFCURVE",
"387 199 OFFCURVE",
"387 279 CURVE SMOOTH",
"387 459 OFFCURVE",
"334 500 OFFCURVE",
"159 500 CURVE SMOOTH",
"133 500 OFFCURVE",
"84 500 OFFCURVE",
"37 500 CURVE",
"11 500 LINE",
"11 479 OFFCURVE",
"11 400 OFFCURVE",
"11 374 CURVE",
"60 374 OFFCURVE",
"107 374 OFFCURVE",
"159 374 CURVE SMOOTH",
"239 374 OFFCURVE",
"251 362 OFFCURVE",
"251 279 CURVE SMOOTH",
"251 108 OFFCURVE",
"251 -41 OFFCURVE",
"251 -150 CURVE"
);
}
);
width = 417;
}
);
leftMetricsKey = "resh-hb";
rightMetricsKey = "resh-hb";
unicode = 05DA;
},
{
color = 4;
glyphname = "kaf-hb";
lastChange = "2019-04-07 13:39:13 +0000";
layers = (
{
layerId = "D0BE0C1E-19E7-43D2-9BC3-AB141F408D31";
paths = (
{
closed = 1;
nodes = (
"97 0 OFFCURVE",
"158 0 OFFCURVE",
"219 0 CURVE SMOOTH",
"335 0 OFFCURVE",
"387 67 OFFCURVE",
"387 197 CURVE SMOOTH",
"387 237 OFFCURVE",
"387 277 OFFCURVE",
"387 317 CURVE SMOOTH",
"387 465 OFFCURVE",
"319 500 OFFCURVE",
"233 500 CURVE SMOOTH",
"181 500 LINE SMOOTH",
"132 500 OFFCURVE",
"122 500 OFFCURVE",
"89 516 CURVE",
"66 516 LINE",
"52 487 OFFCURVE",
"44 456 OFFCURVE",
"40 420 CURVE",
"76 400 OFFCURVE",
"114 397 OFFCURVE",
"170 397 CURVE SMOOTH",
"222 397 LINE SMOOTH",
"300 397 OFFCURVE",
"324 356 OFFCURVE",
"324 301 CURVE SMOOTH",
"324 274 OFFCURVE",
"324 245 OFFCURVE",
"324 209 CURVE SMOOTH",
"324 116 OFFCURVE",
"304 100 OFFCURVE",
"219 100 CURVE SMOOTH",
"163 100 OFFCURVE",
"108 100 OFFCURVE",
"52 100 CURVE",
"46 82 OFFCURVE",
"37 21 OFFCURVE",
"36 0 CURVE"
);
}
);
width = 427;
},
{
layerId = "AFDF4EF8-A213-4348-ACF7-371209F0497C";
paths = (
{
closed = 1;
nodes = (
"106 -2 OFFCURVE",
"130 0 OFFCURVE",
"190 0 CURVE SMOOTH",
"331 0 OFFCURVE",
"358 55 OFFCURVE",
"358 204 CURVE SMOOTH",
"358 237 OFFCURVE",
"358 253 OFFCURVE",
"358 284 CURVE SMOOTH",
"358 443 OFFCURVE",
"315 500 OFFCURVE",
"196 500 CURVE SMOOTH",
"159 500 LINE SMOOTH",
"141 500 OFFCURVE",
"117 501 OFFCURVE",
"99 509 CURVE",
"74 509 LINE",
"58 469 OFFCURVE",
"39 390 OFFCURVE",
"38 332 CURVE",
"85 321 OFFCURVE",
"123 320 OFFCURVE",
"156 319 CURVE SMOOTH",
"200 318 LINE SMOOTH",
"246 317 OFFCURVE",
"271 301 OFFCURVE",
"271 256 CURVE SMOOTH",
"271 247 OFFCURVE",
"271 240 OFFCURVE",
"271 232 CURVE SMOOTH",
"271 195 OFFCURVE",
"248 182 OFFCURVE",
"207 182 CURVE SMOOTH",
"145 182 OFFCURVE",
"111 182 OFFCURVE",
"53 182 CURVE",
"44 145 OFFCURVE",
"27 52 OFFCURVE",
"25 0 CURVE"
);
}
);
width = 376;
},
{
layerId = "A396904D-C838-4FF7-A96F-91F438939708";
paths = (
{
closed = 1;
nodes = (
"78 0 OFFCURVE",
"140 0 OFFCURVE",
"200 0 CURVE SMOOTH",
"315 0 OFFCURVE",
"380 51 OFFCURVE",
"380 228 CURVE SMOOTH",
"380 241 OFFCURVE",
"380 259 OFFCURVE",
"380 272 CURVE SMOOTH",
"380 458 OFFCURVE",
"308 500 OFFCURVE",
"191 500 CURVE SMOOTH",
"171 500 LINE SMOOTH",
"119 500 OFFCURVE",
"105 502 OFFCURVE",
"83 512 CURVE",
"56 512 LINE",
"46 487 OFFCURVE",
"27 395 OFFCURVE",
"24 348 CURVE",
"52 339 OFFCURVE",
"102 335 OFFCURVE",
"139 335 CURVE SMOOTH",
"165 335 LINE SMOOTH",
"245 335 OFFCURVE",
"265 310 OFFCURVE",
"265 257 CURVE SMOOTH",
"265 252 OFFCURVE",
"265 247 OFFCURVE",
"265 242 CURVE SMOOTH",
"265 187 OFFCURVE",
"240 167 OFFCURVE",
"185 167 CURVE SMOOTH",
"138 167 OFFCURVE",
"90 167 OFFCURVE",
"43 167 CURVE",
"36 138 OFFCURVE",
"21 44 OFFCURVE",
"18 0 CURVE"
);
}
);
width = 397;
},
{
layerId = "5539344D-F27C-4FBD-A9E2-D2F022F19CCA";
paths = (
{
closed = 1;
nodes = (
"102 0 OFFCURVE",
"127 0 OFFCURVE",
"178 0 CURVE SMOOTH",
"345 0 OFFCURVE",
"384 76 OFFCURVE",
"384 201 CURVE SMOOTH",
"384 228 OFFCURVE",
"384 258 OFFCURVE",
"384 289 CURVE SMOOTH",
"384 447 OFFCURVE",
"334 500 OFFCURVE",
"207 500 CURVE SMOOTH",
"197 500 LINE SMOOTH",
"137 500 OFFCURVE",
"100 504 OFFCURVE",
"81 513 CURVE",
"59 513 LINE",
"47 486 OFFCURVE",
"37 456 OFFCURVE",
"34 433 CURVE",
"57 416 OFFCURVE",
"120 411 OFFCURVE",
"166 411 CURVE SMOOTH",
"176 411 LINE SMOOTH",
"279 411 OFFCURVE",
"315 396 OFFCURVE",
"315 278 CURVE SMOOTH",
"315 254 OFFCURVE",
"315 233 OFFCURVE",
"315 213 CURVE SMOOTH",
"315 130 OFFCURVE",
"296 101 OFFCURVE",
"178 101 CURVE SMOOTH",
"138 101 OFFCURVE",
"114 101 OFFCURVE",
"51 101 CURVE",
"45 76 OFFCURVE",
"36 19 OFFCURVE",
"37 0 CURVE"
);
}
);
width = 407;
},
{
layerId = "798D7B20-9AF4-495F-9307-CAE61518AA1C";
paths = (
{
closed = 1;
nodes = (
"83 0 OFFCURVE",
"128 0 OFFCURVE",
"167 0 CURVE SMOOTH",
"332 0 OFFCURVE",
"394 79 OFFCURVE",
"394 188 CURVE SMOOTH",
"394 215 OFFCURVE",
"394 238 OFFCURVE",
"394 265 CURVE SMOOTH",
"394 400 OFFCURVE",
"346 477 OFFCURVE",
"193 477 CURVE SMOOTH",
"171 477 LINE SMOOTH",
"132 477 OFFCURVE",
"96 477 OFFCURVE",
"55 477 CURVE",
"37 477 LINE",
"37 455 OFFCURVE",
"37 432 OFFCURVE",
"37 407 CURVE",
"55 407 OFFCURVE",
"128 407 OFFCURVE",
"171 407 CURVE SMOOTH",
"193 407 LINE SMOOTH",
"284 407 OFFCURVE",
"318 368 OFFCURVE",
"318 265 CURVE SMOOTH",
"318 238 OFFCURVE",
"318 215 OFFCURVE",
"318 188 CURVE SMOOTH",
"318 113 OFFCURVE",
"275 70 OFFCURVE",
"167 70 CURVE SMOOTH",
"128 70 OFFCURVE",
"83 70 OFFCURVE",
"37 70 CURVE",
"37 50 OFFCURVE",
"37 25 OFFCURVE",
"37 0 CURVE"
);
}
);
width = 434;
},
{
layerId = "C42C1682-C410-46D1-BF5A-F68DB0880154";
paths = (
{
closed = 1;
nodes = (
"111 0 OFFCURVE",
"156 0 OFFCURVE",
"204 0 CURVE SMOOTH",
"344 0 OFFCURVE",
"375 77 OFFCURVE",
"375 211 CURVE SMOOTH",
"375 230 OFFCURVE",
"375 250 OFFCURVE",
"375 270 CURVE SMOOTH",
"375 460 OFFCURVE",
"333 486 OFFCURVE",
"208 486 CURVE SMOOTH",
"146 486 LINE SMOOTH",
"107 486 OFFCURVE",
"98 492 OFFCURVE",
"88 512 CURVE",
"66 512 LINE",
"55 489 OFFCURVE",
"50 459 OFFCURVE",
"50 435 CURVE SMOOTH",
"50 382 OFFCURVE",
"63 377 OFFCURVE",
"146 377 CURVE SMOOTH",
"208 377 LINE SMOOTH",
"315 377 OFFCURVE",
"330 353 OFFCURVE",
"330 262 CURVE SMOOTH",
"330 249 OFFCURVE",
"330 235 OFFCURVE",
"330 222 CURVE SMOOTH",
"330 136 OFFCURVE",
"308 107 OFFCURVE",
"204 107 CURVE SMOOTH",
"164 107 OFFCURVE",
"115 107 OFFCURVE",
"54 107 CURVE",
"46 91 OFFCURVE",
"46 16 OFFCURVE",
"54 0 CURVE"
);
}
);
width = 415;
},
{
layerId = "E84AB450-BED0-484C-851E-2EB7B7ED9E73";
paths = (
{
closed = 1;
nodes = (
"77 0 OFFCURVE",
"119 0 OFFCURVE",
"169 0 CURVE SMOOTH",
"292 0 OFFCURVE",
"319 39 OFFCURVE",
"319 222 CURVE SMOOTH",
"319 237 OFFCURVE",
"319 253 OFFCURVE",
"319 270 CURVE SMOOTH",
"319 467 OFFCURVE",
"273 486 OFFCURVE",
"156 486 CURVE SMOOTH",
"136 486 LINE SMOOTH",
"89 486 OFFCURVE",
"66 489 OFFCURVE",
"61 512 CURVE",
"30 512 LINE",
"19 478 OFFCURVE",
"18 437 OFFCURVE",
"18 396 CURVE SMOOTH",
"18 331 OFFCURVE",
"50 313 OFFCURVE",
"136 313 CURVE SMOOTH",
"180 313 LINE SMOOTH",
"241 313 OFFCURVE",
"267 300 OFFCURVE",
"267 250 CURVE SMOOTH",
"267 246 OFFCURVE",
"267 240 OFFCURVE",
"267 236 CURVE SMOOTH",
"267 189 OFFCURVE",
"242 174 OFFCURVE",
"180 174 CURVE SMOOTH",
"119 174 OFFCURVE",
"80 174 OFFCURVE",
"27 174 CURVE",
"18 152 OFFCURVE",
"17 26 OFFCURVE",
"26 0 CURVE"
);
}
);
width = 343;
},
{
layerId = "FB8990CA-0F96-4B7B-86A4-9D429D534475";
paths = (
{
closed = 1;
nodes = (
"62 0 OFFCURVE",
"91 0 OFFCURVE",
"149 0 CURVE SMOOTH",
"333 0 OFFCURVE",
"408 74 OFFCURVE",
"408 229 CURVE SMOOTH",
"408 241 OFFCURVE",
"408 257 OFFCURVE",
"408 269 CURVE SMOOTH",
"408 432 OFFCURVE",
"348 500 OFFCURVE",
"149 500 CURVE SMOOTH",
"128 500 LINE SMOOTH",
"104 500 OFFCURVE",
"90 500 OFFCURVE",
"56 500 CURVE",
"30 500 LINE",
"30 479 OFFCURVE",
"30 400 OFFCURVE",
"30 374 CURVE",
"54 374 OFFCURVE",
"77 374 OFFCURVE",
"101 374 CURVE",
"149 374 LINE SMOOTH",
"232 374 OFFCURVE",
"271 361 OFFCURVE",
"271 269 CURVE SMOOTH",
"271 257 OFFCURVE",
"271 241 OFFCURVE",
"271 229 CURVE SMOOTH",
"271 166 OFFCURVE",
"232 138 OFFCURVE",
"149 138 CURVE SMOOTH",
"112 138 OFFCURVE",
"73 138 OFFCURVE",
"30 138 CURVE",
"30 92 OFFCURVE",
"30 46 OFFCURVE",
"30 0 CURVE"
);
}
);
width = 432;
}
);
leftMetricsKey = "nun-hb";
rightMetricsKey = "=resh-hb*0.8";
unicode = 05DB;
},
{
color = 4;
glyphname = "lamed-hb";
lastChange = "2019-04-07 14:31:43 +0000";
layers = (
{
associatedMasterId = "D0BE0C1E-19E7-43D2-9BC3-AB141F408D31";
layerId = "0D2F9F62-6D50-490D-B425-4005BBEB55D2";
name = Paths;
paths = (
{
closed = 0;
nodes = (
"280 0 LINE",
"380 80 LINE SMOOTH",
"482 161 OFFCURVE",
"537 244 OFFCURVE",
"537 364 CURVE SMOOTH",
"537 481 OFFCURVE",
"492 500 OFFCURVE",
"405 500 CURVE SMOOTH",
"230 500 LINE SMOOTH",
"184 500 OFFCURVE",
"162 526 OFFCURVE",
"161 578 CURVE SMOOTH",
"158 743 LINE"
);
}
);
width = 700;
},
{
layerId = "D0BE0C1E-19E7-43D2-9BC3-AB141F408D31";
paths = (
{
closed = 1;
nodes = (
"137 -4 LINE",
"220 54 LINE SMOOTH",
"360 152 OFFCURVE",
"394 211 OFFCURVE",
"394 365 CURVE SMOOTH",
"394 472 OFFCURVE",
"363 500 OFFCURVE",
"272 500 CURVE SMOOTH",
"146 500 LINE SMOOTH",
"108 500 OFFCURVE",
"96 519 OFFCURVE",
"96 550 CURVE SMOOTH",
"96 604 OFFCURVE",
"98 658 OFFCURVE",
"81 712 CURVE",
"55 712 LINE",
"41 682 OFFCURVE",
"32 647 OFFCURVE",
"27 607 CURVE",
"44 564 OFFCURVE",
"42 521 OFFCURVE",
"42 478 CURVE SMOOTH",
"42 425 OFFCURVE",
"66 397 OFFCURVE",
"106 397 CURVE SMOOTH",
"237 397 LINE SMOOTH",
"318 397 OFFCURVE",
"326 382 OFFCURVE",
"331 312 CURVE SMOOTH",
"337 219 OFFCURVE",
"324 203 OFFCURVE",
"217 140 CURVE SMOOTH",
"134 91 LINE",
"125 64 OFFCURVE",
"118 33 OFFCURVE",
"116 2 CURVE"
);
}
);
width = 422;
},
{
layerId = "AFDF4EF8-A213-4348-ACF7-371209F0497C";
paths = (
{
closed = 1;
nodes = (
"108 -12 LINE",
"158 9 LINE SMOOTH",
"315 75 OFFCURVE",
"363 211 OFFCURVE",
"363 345 CURVE SMOOTH",
"363 472 OFFCURVE",
"332 500 OFFCURVE",
"241 500 CURVE SMOOTH",
"152 500 LINE SMOOTH",
"114 500 OFFCURVE",
"101 514 OFFCURVE",
"99 550 CURVE SMOOTH",
"96 593 OFFCURVE",
"96 617 OFFCURVE",
"96 652 CURVE",
"56 652 LINE",
"44 634 OFFCURVE",
"36 614 OFFCURVE",
"27 593 CURVE",
"18 519 OFFCURVE",
"20 479 OFFCURVE",
"20 407 CURVE SMOOTH",
"20 329 OFFCURVE",
"49 318 OFFCURVE",
"115 318 CURVE SMOOTH",
"226 318 LINE SMOOTH",
"268 318 OFFCURVE",
"281 310 OFFCURVE",
"283 285 CURVE SMOOTH",
"286 246 OFFCURVE",
"252 226 OFFCURVE",
"193 201 CURVE SMOOTH",
"105 164 LINE",
"90 112 OFFCURVE",
"81 58 OFFCURVE",
"77 -3 CURVE"
);
}
);
width = 383;
},
{
background = {
paths = (
{
closed = 1;
nodes = (
"145 151 LINE",
"302 189 LINE SMOOTH",
"339 266 OFFCURVE",
"399 289 OFFCURVE",
"399 363 CURVE SMOOTH",
"399 480 OFFCURVE",
"353 500 OFFCURVE",
"267 500 CURVE SMOOTH",
"211 500 LINE SMOOTH",
"165 500 OFFCURVE",
"143 526 OFFCURVE",
"142 578 CURVE SMOOTH",
"139 743 LINE",
"19 582 LINE",
"22 417 LINE SMOOTH",
"23 365 OFFCURVE",
"45 339 OFFCURVE",
"91 339 CURVE SMOOTH",
"196 339 LINE SMOOTH",
"263 339 OFFCURVE",
"278 331 OFFCURVE",
"278 283 CURVE SMOOTH",
"278 163 OFFCURVE",
"267 55 OFFCURVE",
"181 -1 CURVE SMOOTH",
"81 -41 LINE"
);
}
);
};
layerId = "A396904D-C838-4FF7-A96F-91F438939708";
paths = (
{
closed = 1;
nodes = (
"96 -7 LINE",
"168 24 LINE SMOOTH",
"318 88 OFFCURVE",
"397 209 OFFCURVE",
"397 351 CURVE SMOOTH",
"397 460 OFFCURVE",
"355 500 OFFCURVE",
"254 500 CURVE SMOOTH",
"194 500 LINE SMOOTH",
"153 500 OFFCURVE",
"143 509 OFFCURVE",
"141 550 CURVE SMOOTH",
"139 585 OFFCURVE",
"138 611 OFFCURVE",
"138 650 CURVE",
"110 650 LINE",
"78 643 OFFCURVE",
"46 634 OFFCURVE",
"22 622 CURVE",
"15 535 OFFCURVE",
"15 494 OFFCURVE",
"15 429 CURVE SMOOTH",
"15 347 OFFCURVE",
"56 335 OFFCURVE",
"121 335 CURVE SMOOTH",
"215 335 LINE SMOOTH",
"257 335 OFFCURVE",
"271 326 OFFCURVE",
"271 292 CURVE SMOOTH",
"271 245 OFFCURVE",
"235 223 OFFCURVE",
"156 193 CURVE SMOOTH",
"92 169 LINE",
"80 117 OFFCURVE",
"70 63 OFFCURVE",
"67 2 CURVE"
);
}
);
width = 409;
},
{
background = {
paths = (
{
closed = 1;
nodes = (
"156 59 LINE",
"257 139 LINE SMOOTH",
"360 203 OFFCURVE",
"414 268 OFFCURVE",
"414 363 CURVE SMOOTH",
"414 480 OFFCURVE",
"368 500 OFFCURVE",
"282 500 CURVE SMOOTH",
"186 500 LINE SMOOTH",
"140 500 OFFCURVE",
"118 526 OFFCURVE",
"117 578 CURVE SMOOTH",
"114 743 LINE",
"39 652 LINE",
"42 487 LINE SMOOTH",
"43 435 OFFCURVE",
"65 409 OFFCURVE",
"111 409 CURVE SMOOTH",
"206 409 LINE SMOOTH",
"293 409 OFFCURVE",
"338 390 OFFCURVE",
"338 273 CURVE SMOOTH",
"338 178 OFFCURVE",
"283 130 OFFCURVE",
"181 49 CURVE SMOOTH",
"81 -31 LINE"
);
}
);
};
layerId = "5539344D-F27C-4FBD-A9E2-D2F022F19CCA";
paths = (
{
closed = 1;
nodes = (
"158 -2 LINE",
"228 44 LINE SMOOTH",
"395 154 OFFCURVE",
"405 232 OFFCURVE",
"405 351 CURVE SMOOTH",
"405 462 OFFCURVE",
"359 500 OFFCURVE",
"260 500 CURVE SMOOTH",
"164 500 LINE SMOOTH",
"111 500 OFFCURVE",
"109 502 OFFCURVE",
"109 550 CURVE SMOOTH",
"109 604 OFFCURVE",
"107 657 OFFCURVE",
"86 711 CURVE",
"64 717 LINE",
"42 684 OFFCURVE",
"30 647 OFFCURVE",
"20 611 CURVE",
"40 564 OFFCURVE",
"41 541 OFFCURVE",
"41 488 CURVE SMOOTH",
"41 427 OFFCURVE",
"55 411 OFFCURVE",
"121 411 CURVE SMOOTH",
"238 411 LINE SMOOTH",
"319 411 OFFCURVE",
"328 398 OFFCURVE",
"333 326 CURVE SMOOTH",
"338 244 OFFCURVE",
"332 198 OFFCURVE",
"199 126 CURVE SMOOTH",
"142 95 LINE",
"130 70 OFFCURVE",
"124 31 OFFCURVE",
"126 2 CURVE"
);
}
);
width = 445;
},
{
layerId = "798D7B20-9AF4-495F-9307-CAE61518AA1C";
paths = (
{
closed = 1;
nodes = (
"212 0 LINE",
"294 146 LINE SMOOTH",
"348 242 OFFCURVE",
"368 307 OFFCURVE",
"368 351 CURVE SMOOTH",
"368 434 OFFCURVE",
"326 477 OFFCURVE",
"216 477 CURVE SMOOTH",
"114 477 LINE SMOOTH",
"100 477 OFFCURVE",
"95 482 OFFCURVE",
"95 499 CURVE SMOOTH",
"95 539 OFFCURVE",
"95 577 OFFCURVE",
"95 615 CURVE",
"69 615 LINE",
"53 615 OFFCURVE",
"36 615 OFFCURVE",
"20 615 CURVE",
"20 561 OFFCURVE",
"20 505 OFFCURVE",
"20 451 CURVE SMOOTH",
"20 419 OFFCURVE",
"33 407 OFFCURVE",
"61 407 CURVE SMOOTH",
"216 407 LINE SMOOTH",
"270 407 OFFCURVE",
"292 391 OFFCURVE",
"292 350 CURVE SMOOTH",
"292 314 OFFCURVE",
"285 277 OFFCURVE",
"220 164 CURVE SMOOTH",
"126 0 LINE",
"146 0 OFFCURVE",
"166 0 OFFCURVE",
"186 0 CURVE"
);
}
);
width = 388;
},
{
layerId = "C42C1682-C410-46D1-BF5A-F68DB0880154";
paths = (
{
closed = 1;
nodes = (
"149 0 LINE",
"214 47 LINE SMOOTH",
"283 98 OFFCURVE",
"350 181 OFFCURVE",
"350 296 CURVE SMOOTH",
"350 433 OFFCURVE",
"332 486 OFFCURVE",
"229 486 CURVE SMOOTH",
"114 486 LINE SMOOTH",
"76 486 OFFCURVE",
"69 489 OFFCURVE",
"69 520 CURVE SMOOTH",
"69 585 OFFCURVE",
"69 649 OFFCURVE",
"69 714 CURVE",
"50 714 LINE",
"37 685 OFFCURVE",
"27 649 OFFCURVE",
"20 594 CURVE",
"20 545 OFFCURVE",
"20 498 OFFCURVE",
"20 439 CURVE SMOOTH",
"20 398 OFFCURVE",
"34 376 OFFCURVE",
"84 376 CURVE SMOOTH",
"219 376 LINE SMOOTH",
"293 376 OFFCURVE",
"306 365 OFFCURVE",
"306 295 CURVE SMOOTH",
"306 220 OFFCURVE",
"253 172 OFFCURVE",
"184 128 CURVE SMOOTH",
"101 74 LINE",
"105 49 OFFCURVE",
"113 26 OFFCURVE",
"125 0 CURVE"
);
}
);
width = 380;
},
{
layerId = "E84AB450-BED0-484C-851E-2EB7B7ED9E73";
paths = (
{
closed = 1;
nodes = (
"91 0 LINE",
"117 0 LINE SMOOTH",
"268 0 OFFCURVE",
"327 151 OFFCURVE",
"327 275 CURVE SMOOTH",
"327 469 OFFCURVE",
"307 486 OFFCURVE",
"198 486 CURVE SMOOTH",
"116 486 LINE SMOOTH",
"86 486 OFFCURVE",
"75 493 OFFCURVE",
"75 523 CURVE SMOOTH",
"75 551 OFFCURVE",
"74 577 OFFCURVE",
"70 604 CURVE",
"55 604 LINE",
"47 604 OFFCURVE",
"38 604 OFFCURVE",
"30 604 CURVE",
"21 532 OFFCURVE",
"20 459 OFFCURVE",
"20 387 CURVE SMOOTH",
"20 309 OFFCURVE",
"51 294 OFFCURVE",
"118 294 CURVE SMOOTH",
"227 294 LINE SMOOTH",
"267 294 OFFCURVE",
"273 283 OFFCURVE",
"273 261 CURVE SMOOTH",
"273 221 OFFCURVE",
"238 194 OFFCURVE",
"137 194 CURVE SMOOTH",
"78 194 LINE",
"70 162 OFFCURVE",
"70 41 OFFCURVE",
"78 0 CURVE"
);
}
);
width = 357;
},
{
layerId = "FB8990CA-0F96-4B7B-86A4-9D429D534475";
paths = (
{
closed = 1;
nodes = (
"284 0 LINE",
"337 115 LINE SMOOTH",
"399 249 OFFCURVE",
"417 299 OFFCURVE",
"417 362 CURVE SMOOTH",
"417 473 OFFCURVE",
"377 500 OFFCURVE",
"260 500 CURVE SMOOTH",
"172 500 LINE SMOOTH",
"157 500 OFFCURVE",
"149 507 OFFCURVE",
"149 528 CURVE SMOOTH",
"149 569 OFFCURVE",
"149 609 OFFCURVE",
"149 650 CURVE",
"104 650 LINE",
"76 650 OFFCURVE",
"48 650 OFFCURVE",
"20 650 CURVE",
"20 592 OFFCURVE",
"20 534 OFFCURVE",
"20 476 CURVE SMOOTH",
"20 396 OFFCURVE",
"41 374 OFFCURVE",
"128 374 CURVE SMOOTH",
"216 374 LINE SMOOTH",
"264 374 OFFCURVE",
"282 365 OFFCURVE",
"282 335 CURVE SMOOTH",
"282 300 OFFCURVE",
"267 270 OFFCURVE",
"242 220 CURVE SMOOTH",
"132 0 LINE",
"170 0 OFFCURVE",
"207 0 OFFCURVE",
"245 0 CURVE"
);
}
);
width = 447;
}
);
unicode = 05DC;
},
{
color = 4;
glyphname = "finalmem-hb";
lastChange = "2019-04-07 14:07:06 +0000";
layers = (
{
layerId = "D0BE0C1E-19E7-43D2-9BC3-AB141F408D31";
paths = (
{
closed = 1;
nodes = (
"398 0 LINE",
"411 32 OFFCURVE",
"422 65 OFFCURVE",
"432 109 CURVE",
"432 192 OFFCURVE",
"433 279 OFFCURVE",
"431 357 CURVE SMOOTH",
"428 471 OFFCURVE",
"391 500 OFFCURVE",
"275 500 CURVE SMOOTH",
"255 500 LINE SMOOTH",
"149 500 OFFCURVE",
"123 500 OFFCURVE",
"102 516 CURVE",
"79 516 LINE",
"65 487 OFFCURVE",
"57 456 OFFCURVE",
"53 420 CURVE",
"83 400 OFFCURVE",
"128 397 OFFCURVE",
"244 397 CURVE SMOOTH",
"264 397 LINE SMOOTH",
"354 397 OFFCURVE",
"359 388 OFFCURVE",
"362 307 CURVE SMOOTH",
"365 237 OFFCURVE",
"367 152 OFFCURVE",
"370 0 CURVE"
);
},
{
closed = 1;
nodes = (
"98 0 LINE",
"110 31 OFFCURVE",
"119 64 OFFCURVE",
"127 99 CURVE",
"128 151 OFFCURVE",
"131 202 OFFCURVE",
"131 254 CURVE SMOOTH",
"131 317 OFFCURVE",
"124 425 OFFCURVE",
"104 480 CURVE",
"53 420 LINE",
"63 346 OFFCURVE",
"64 293 OFFCURVE",
"64 198 CURVE SMOOTH",
"63 0 LINE"
);
},
{
closed = 1;
nodes = (
"73 0 LINE",
"387 0 LINE",
"387 100 LINE",
"73 100 LINE"
);
}
);
width = 482;
},
{
layerId = "AFDF4EF8-A213-4348-ACF7-371209F0497C";
paths = (
{
closed = 1;
nodes = (
"392 0 LINE",
"407 56 OFFCURVE",
"422 113 OFFCURVE",
"431 177 CURVE",
"431 251 OFFCURVE",
"430 298 OFFCURVE",
"425 367 CURVE SMOOTH",
"418 466 OFFCURVE",
"377 500 OFFCURVE",
"276 500 CURVE SMOOTH",
"256 500 LINE SMOOTH",
"177 500 OFFCURVE",
"111 501 OFFCURVE",
"94 509 CURVE",
"69 509 LINE",
"53 469 OFFCURVE",
"34 389 OFFCURVE",
"33 336 CURVE",
"87 323 OFFCURVE",
"166 318 OFFCURVE",
"248 318 CURVE SMOOTH",
"268 318 LINE SMOOTH",
"329 318 OFFCURVE",
"339 304 OFFCURVE",
"343 226 CURVE SMOOTH",
"347 156 OFFCURVE",
"350 81 OFFCURVE",
"353 0 CURVE"
);
},
{
closed = 1;
nodes = (
"91 0 LINE",
"105 59 OFFCURVE",
"123 118 OFFCURVE",
"131 177 CURVE",
"131 192 OFFCURVE",
"132 207 OFFCURVE",
"132 222 CURVE SMOOTH",
"133 272 OFFCURVE",
"127 334 OFFCURVE",
"116 372 CURVE",
"33 336 LINE",
"42 294 OFFCURVE",
"49 226 OFFCURVE",
"48 171 CURVE",
"52 0 LINE"
);
},
{
closed = 1;
nodes = (
"65 0 LINE",
"377 0 LINE",
"377 163 LINE",
"65 163 LINE"
);
}
);
width = 453;
},
{
layerId = "A396904D-C838-4FF7-A96F-91F438939708";
paths = (
{
closed = 1;
nodes = (
"445 0 LINE",
"456 45 OFFCURVE",
"470 100 OFFCURVE",
"476 161 CURVE",
"474 234 OFFCURVE",
"475 316 OFFCURVE",
"471 378 CURVE SMOOTH",
"466 456 OFFCURVE",
"423 500 OFFCURVE",
"297 500 CURVE SMOOTH",
"247 500 LINE SMOOTH",
"163 500 OFFCURVE",
"118 502 OFFCURVE",
"99 512 CURVE",
"72 512 LINE",
"62 487 OFFCURVE",
"43 395 OFFCURVE",
"40 348 CURVE",
"57 339 OFFCURVE",
"137 335 OFFCURVE",
"174 335 CURVE SMOOTH",
"255 335 LINE SMOOTH",
"342 335 OFFCURVE",
"353 318 OFFCURVE",
"356 232 CURVE SMOOTH",
"358 177 OFFCURVE",
"362 68 OFFCURVE",
"362 0 CURVE"
);
},
{
closed = 1;
nodes = (
"154 0 LINE",
"168 53 OFFCURVE",
"170 107 OFFCURVE",
"176 160 CURVE",
"179 222 OFFCURVE",
"172 284 OFFCURVE",
"171 346 CURVE SMOOTH",
"170 399 OFFCURVE",
"160 413 OFFCURVE",
"149 439 CURVE",
"40 348 LINE",
"53 275 OFFCURVE",
"55 208 OFFCURVE",
"56 145 CURVE SMOOTH",
"59 0 LINE"
);
},
{
closed = 1;
nodes = (
"94 0 LINE",
"419 0 LINE",
"419 138 LINE",
"94 138 LINE"
);
}
);
width = 497;
},
{
layerId = "5539344D-F27C-4FBD-A9E2-D2F022F19CCA";
paths = (
{
closed = 1;
nodes = (
"482 0 LINE",
"487 31 OFFCURVE",
"491 64 OFFCURVE",
"493 104 CURVE",
"496 159 OFFCURVE",
"497 220 OFFCURVE",
"495 296 CURVE SMOOTH",
"491 449 OFFCURVE",
"471 500 OFFCURVE",
"320 500 CURVE SMOOTH",
"243 500 LINE SMOOTH",
"178 500 OFFCURVE",
"118 504 OFFCURVE",
"97 513 CURVE",
"75 513 LINE",
"63 486 OFFCURVE",
"53 456 OFFCURVE",
"50 433 CURVE",
"72 416 OFFCURVE",
"156 411 OFFCURVE",
"202 411 CURVE SMOOTH",
"279 411 LINE SMOOTH",
"410 411 OFFCURVE",
"414 396 OFFCURVE",
"420 278 CURVE SMOOTH",
"427 146 OFFCURVE",
"426 98 OFFCURVE",
"431 0 CURVE"
);
},
{
closed = 1;
nodes = (
"126 0 LINE",
"132 31 OFFCURVE",
"138 65 OFFCURVE",
"140 105 CURVE",
"143 160 OFFCURVE",
"144 225 OFFCURVE",
"142 321 CURVE SMOOTH",
"142 361 OFFCURVE",
"138 414 OFFCURVE",
"123 445 CURVE",
"50 433 LINE",
"70 409 OFFCURVE",
"69 335 OFFCURVE",
"70 272 CURVE SMOOTH",
"75 0 LINE"
);
},
{
closed = 1;
nodes = (
"96 0 LINE",
"461 0 LINE",
"461 101 LINE",
"96 101 LINE"
);
}
);
width = 525;
},
{
layerId = "798D7B20-9AF4-495F-9307-CAE61518AA1C";
paths = (
{
closed = 1;
nodes = (
"470 0 LINE",
"470 85 OFFCURVE",
"470 131 OFFCURVE",
"470 184 CURVE SMOOTH",
"470 235 OFFCURVE",
"470 257 OFFCURVE",
"470 295 CURVE SMOOTH",
"470 417 OFFCURVE",
"442 477 OFFCURVE",
"299 477 CURVE SMOOTH",
"219 477 LINE SMOOTH",
"177 477 OFFCURVE",
"88 477 OFFCURVE",
"33 477 CURVE",
"14 477 LINE",
"14 455 OFFCURVE",
"14 432 OFFCURVE",
"14 407 CURVE",
"37 407 OFFCURVE",
"173 407 OFFCURVE",
"219 407 CURVE SMOOTH",
"299 407 LINE SMOOTH",
"380 407 OFFCURVE",
"394 382 OFFCURVE",
"394 295 CURVE SMOOTH",
"394 124 OFFCURVE",
"394 188 OFFCURVE",
"394 0 CURVE"
);
},
{
closed = 1;
nodes = (
"146 0 LINE",
"146 94 OFFCURVE",
"146 145 OFFCURVE",
"146 204 CURVE SMOOTH",
"146 285 OFFCURVE",
"146 361 OFFCURVE",
"146 386 CURVE SMOOTH",
"146 409 OFFCURVE",
"146 409 OFFCURVE",
"146 439 CURVE",
"70 438 LINE",
"70 403 OFFCURVE",
"70 392 OFFCURVE",
"70 366 CURVE SMOOTH",
"70 0 LINE"
);
},
{
closed = 1;
nodes = (
"100 0 LINE",
"437 0 LINE",
"437 70 LINE",
"100 70 LINE"
);
}
);
width = 520;
},
{
layerId = "C42C1682-C410-46D1-BF5A-F68DB0880154";
paths = (
{
closed = 1;
nodes = (
"405 0 LINE",
"419 40 OFFCURVE",
"433 58 OFFCURVE",
"433 116 CURVE SMOOTH",
"433 165 OFFCURVE",
"421 221 OFFCURVE",
"421 284 CURVE SMOOTH",
"421 476 OFFCURVE",
"403 486 OFFCURVE",
"262 486 CURVE SMOOTH",
"183 486 LINE SMOOTH",
"77 486 OFFCURVE",
"68 492 OFFCURVE",
"58 512 CURVE",
"36 512 LINE",
"25 489 OFFCURVE",
"20 459 OFFCURVE",
"20 435 CURVE SMOOTH",
"20 382 OFFCURVE",
"33 377 OFFCURVE",
"183 377 CURVE SMOOTH",
"262 377 LINE SMOOTH",
"360 377 OFFCURVE",
"376 359 OFFCURVE",
"377 276 CURVE SMOOTH",
"378 177 OFFCURVE",
"376 54 OFFCURVE",
"374 0 CURVE"
);
},
{
closed = 1;
nodes = (
"92 0 LINE",
"113 39 OFFCURVE",
"121 62 OFFCURVE",
"121 116 CURVE SMOOTH",
"121 165 OFFCURVE",
"114 209 OFFCURVE",
"114 275 CURVE SMOOTH",
"114 329 OFFCURVE",
"117 369 OFFCURVE",
"137 406 CURVE",
"94 406 LINE",
"71 377 OFFCURVE",
"62 324 OFFCURVE",
"62 267 CURVE SMOOTH",
"62 0 LINE"
);
},
{
closed = 1;
nodes = (
"79 0 LINE",
"393 0 LINE",
"393 108 LINE",
"79 108 LINE"
);
}
);
width = 483;
},
{
layerId = "E84AB450-BED0-484C-851E-2EB7B7ED9E73";
paths = (
{
closed = 1;
nodes = (
"379 0 LINE",
"388 40 OFFCURVE",
"389 74 OFFCURVE",
"389 103 CURVE SMOOTH",
"389 170 OFFCURVE",
"375 206 OFFCURVE",
"375 272 CURVE SMOOTH",
"375 467 OFFCURVE",
"362 486 OFFCURVE",
"198 486 CURVE SMOOTH",
"158 486 LINE SMOOTH",
"81 486 OFFCURVE",
"58 489 OFFCURVE",
"53 512 CURVE",
"22 512 LINE",
"11 475 OFFCURVE",
"10 431 OFFCURVE",
"10 397 CURVE SMOOTH",
"10 311 OFFCURVE",
"42 294 OFFCURVE",
"158 294 CURVE SMOOTH",
"198 294 LINE SMOOTH",
"320 294 OFFCURVE",
"324 289 OFFCURVE",
"324 218 CURVE SMOOTH",
"324 165 OFFCURVE",
"322 83 OFFCURVE",
"330 0 CURVE"
);
},
{
closed = 1;
nodes = (
"104 0 LINE",
"113 40 OFFCURVE",
"114 74 OFFCURVE",
"114 103 CURVE SMOOTH",
"114 146 OFFCURVE",
"108 171 OFFCURVE",
"108 223 CURVE SMOOTH",
"108 269 OFFCURVE",
"114 280 OFFCURVE",
"130 332 CURVE",
"86 331 LINE",
"68 289 OFFCURVE",
"47 244 OFFCURVE",
"49 148 CURVE SMOOTH",
"52 0 LINE"
);
},
{
closed = 1;
nodes = (
"72 0 LINE",
"357 0 LINE",
"357 174 LINE",
"72 174 LINE"
);
}
);
width = 419;
},
{
layerId = "FB8990CA-0F96-4B7B-86A4-9D429D534475";
paths = (
{
closed = 1;
nodes = (
"517 0 LINE",
"517 47 OFFCURVE",
"517 87 OFFCURVE",
"517 119 CURVE SMOOTH",
"517 172 OFFCURVE",
"517 199 OFFCURVE",
"517 279 CURVE SMOOTH",
"517 459 OFFCURVE",
"464 500 OFFCURVE",
"299 500 CURVE SMOOTH",
"229 500 LINE SMOOTH",
"213 500 OFFCURVE",
"84 500 OFFCURVE",
"37 500 CURVE",
"11 500 LINE",
"11 479 OFFCURVE",
"11 400 OFFCURVE",
"11 374 CURVE",
"60 374 OFFCURVE",
"187 374 OFFCURVE",
"229 374 CURVE SMOOTH",
"299 374 LINE SMOOTH",
"369 374 OFFCURVE",
"381 362 OFFCURVE",
"381 279 CURVE SMOOTH",
"381 108 OFFCURVE",
"381 109 OFFCURVE",
"381 0 CURVE"
);
},
{
closed = 1;
nodes = (
"207 0 LINE",
"207 47 OFFCURVE",
"207 87 OFFCURVE",
"207 119 CURVE SMOOTH",
"207 223 OFFCURVE",
"207 259 OFFCURVE",
"207 365 CURVE",
"207 382 OFFCURVE",
"207 399 OFFCURVE",
"207 416 CURVE",
"71 416 LINE",
"71 392 OFFCURVE",
"71 369 OFFCURVE",
"71 345 CURVE",
"71 0 LINE"
);
},
{
closed = 1;
nodes = (
"109 0 LINE",
"475 0 LINE",
"475 138 LINE",
"109 138 LINE"
);
}
);
width = 547;
}
);
rightMetricsKey = "het-hb";
unicode = 05DD;
},
{
color = 4;
glyphname = "finalnun-hb";
lastChange = "2019-04-07 14:07:24 +0000";
layers = (
{
layerId = "D0BE0C1E-19E7-43D2-9BC3-AB141F408D31";
paths = (
{
closed = 1;
nodes = (
"191 -150 LINE",
"202 -120 OFFCURVE",
"210 -86 OFFCURVE",
"218 -51 CURVE",
"225 242 OFFCURVE",
"224 127 OFFCURVE",
"221 315 CURVE SMOOTH",
"219 420 OFFCURVE",
"209 446 OFFCURVE",
"162 474 CURVE SMOOTH",
"133 491 OFFCURVE",
"104 501 OFFCURVE",
"82 509 CURVE",
"58 509 LINE",
"45 480 OFFCURVE",
"35 442 OFFCURVE",
"26 410 CURVE",
"53 397 OFFCURVE",
"85 384 OFFCURVE",
"116 367 CURVE SMOOTH",
"150 347 OFFCURVE",
"153 342 OFFCURVE",
"156 271 CURVE SMOOTH",
"161 141 OFFCURVE",
"160 -28 OFFCURVE",
"159 -150 CURVE"
);
}
);
width = 282;
},
{
layerId = "AFDF4EF8-A213-4348-ACF7-371209F0497C";
paths = (
{
closed = 1;
nodes = (
"179 -150 LINE",
"192 -94 OFFCURVE",
"205 -37 OFFCURVE",
"211 18 CURVE",
"213 105 OFFCURVE",
"213 271 OFFCURVE",
"209 345 CURVE SMOOTH",
"202 449 OFFCURVE",
"189 463 OFFCURVE",
"112 497 CURVE SMOOTH",
"95 505 OFFCURVE",
"87 508 OFFCURVE",
"82 509 CURVE",
"57 509 LINE",
"40 467 OFFCURVE",
"21 385 OFFCURVE",
"18 329 CURVE",
"42 320 OFFCURVE",
"54 315 OFFCURVE",
"77 305 CURVE SMOOTH",
"109 291 OFFCURVE",
"115 277 OFFCURVE",
"118 198 CURVE SMOOTH",
"121 112 OFFCURVE",
"122 -55 OFFCURVE",
"124 -150 CURVE"
);
}
);
width = 234;
},
{
layerId = "A396904D-C838-4FF7-A96F-91F438939708";
paths = (
{
closed = 1;
nodes = (
"225 -150 LINE",
"231 -108 OFFCURVE",
"238 -56 OFFCURVE",
"241 1 CURVE",
"242 118 OFFCURVE",
"242 256 OFFCURVE",
"237 366 CURVE SMOOTH",
"231 442 OFFCURVE",
"221 450 OFFCURVE",
"138 488 CURVE SMOOTH",
"114 499 OFFCURVE",
"99 505 OFFCURVE",
"77 512 CURVE",
"50 512 LINE",
"41 471 OFFCURVE",
"26 390 OFFCURVE",
"17 340 CURVE",
"27 336 OFFCURVE",
"55 326 OFFCURVE",
"69 320 CURVE SMOOTH",
"109 303 OFFCURVE",
"115 294 OFFCURVE",
"117 234 CURVE SMOOTH",
"119 132 OFFCURVE",
"122 -2 OFFCURVE",
"124 -150 CURVE"
);
}
);
width = 278;
},
{
layerId = "5539344D-F27C-4FBD-A9E2-D2F022F19CCA";
paths = (
{
closed = 1;
nodes = (
"205 -150 LINE",
"211 -119 OFFCURVE",
"217 -85 OFFCURVE",
"219 -45 CURVE",
"222 48 OFFCURVE",
"222 158 OFFCURVE",
"221 321 CURVE SMOOTH",
"220 413 OFFCURVE",
"208 443 OFFCURVE",
"145 480 CURVE SMOOTH",
"121 494 OFFCURVE",
"96 506 OFFCURVE",
"78 513 CURVE",
"56 513 LINE",
"44 491 OFFCURVE",
"34 461 OFFCURVE",
"27 426 CURVE",
"47 415 OFFCURVE",
"75 403 OFFCURVE",
"95 392 CURVE SMOOTH",
"139 368 OFFCURVE",
"147 353 OFFCURVE",
"149 272 CURVE SMOOTH",
"152 83 OFFCURVE",
"152 2 OFFCURVE",
"154 -150 CURVE"
);
}
);
width = 262;
},
{
layerId = "798D7B20-9AF4-495F-9307-CAE61518AA1C";
paths = (
{
closed = 1;
nodes = (
"178 -150 LINE",
"178 -47 OFFCURVE",
"178 9 OFFCURVE",
"178 74 CURVE SMOOTH",
"178 213 OFFCURVE",
"178 311 OFFCURVE",
"178 386 CURVE SMOOTH",
"178 457 OFFCURVE",
"158 477 OFFCURVE",
"76 477 CURVE SMOOTH",
"53 477 OFFCURVE",
"59 477 OFFCURVE",
"42 477 CURVE",
"29 477 LINE",
"29 455 OFFCURVE",
"29 432 OFFCURVE",
"29 407 CURVE",
"46 407 OFFCURVE",
"63 407 OFFCURVE",
"76 407 CURVE SMOOTH",
"99 407 OFFCURVE",
"102 403 OFFCURVE",
"102 376 CURVE SMOOTH",
"102 -21 OFFCURVE",
"102 226 OFFCURVE",
"102 -150 CURVE"
);
}
);
width = 223;
},
{
layerId = "C42C1682-C410-46D1-BF5A-F68DB0880154";
paths = (
{
closed = 1;
nodes = (
"180 -150 LINE",
"188 -101 OFFCURVE",
"196 -74 OFFCURVE",
"197 -3 CURVE SMOOTH",
"199 79 OFFCURVE",
"188 187 OFFCURVE",
"188 292 CURVE SMOOTH",
"188 446 OFFCURVE",
"176 486 OFFCURVE",
"94 486 CURVE SMOOTH",
"67 486 OFFCURVE",
"61 497 OFFCURVE",
"55 512 CURVE",
"33 512 LINE",
"22 489 OFFCURVE",
"20 467 OFFCURVE",
"20 444 CURVE SMOOTH",
"20 392 OFFCURVE",
"33 377 OFFCURVE",
"84 377 CURVE SMOOTH",
"133 377 OFFCURVE",
"145 362 OFFCURVE",
"145 294 CURVE SMOOTH",
"145 146 OFFCURVE",
"128 13 OFFCURVE",
"142 -150 CURVE"
);
}
);
width = 257;
},
{
layerId = "E84AB450-BED0-484C-851E-2EB7B7ED9E73";
paths = (
{
closed = 1;
nodes = (
"186 -150 LINE",
"202 -91 OFFCURVE",
"204 -40 OFFCURVE",
"204 3 CURVE SMOOTH",
"204 104 OFFCURVE",
"187 173 OFFCURVE",
"187 302 CURVE SMOOTH",
"187 477 OFFCURVE",
"175 486 OFFCURVE",
"105 486 CURVE SMOOTH",
"80 486 OFFCURVE",
"68 489 OFFCURVE",
"63 512 CURVE",
"32 512 LINE",
"21 475 OFFCURVE",
"20 431 OFFCURVE",
"20 397 CURVE SMOOTH",
"20 311 OFFCURVE",
"52 294 OFFCURVE",
"95 294 CURVE SMOOTH",
"118 294 OFFCURVE",
"136 286 OFFCURVE",
"136 249 CURVE SMOOTH",
"136 116 OFFCURVE",
"121 -17 OFFCURVE",
"132 -150 CURVE"
);
}
);
width = 234;
},
{
layerId = "FB8990CA-0F96-4B7B-86A4-9D429D534475";
paths = (
{
closed = 1;
nodes = (
"241 -150 LINE",
"241 -103 OFFCURVE",
"241 -63 OFFCURVE",
"241 -31 CURVE SMOOTH",
"241 136 OFFCURVE",
"241 194 OFFCURVE",
"241 365 CURVE SMOOTH",
"241 469 OFFCURVE",
"211 500 OFFCURVE",
"123 500 CURVE SMOOTH",
"92 500 OFFCURVE",
"68 500 OFFCURVE",
"36 500 CURVE",
"39 500 LINE",
"39 479 OFFCURVE",
"39 400 OFFCURVE",
"39 374 CURVE",
"52 374 OFFCURVE",
"60 374 OFFCURVE",
"71 374 CURVE SMOOTH",
"96 374 OFFCURVE",
"105 371 OFFCURVE",
"105 345 CURVE SMOOTH",
"105 42 OFFCURVE",
"105 61 OFFCURVE",
"105 -150 CURVE"
);
}
);
width = 286;
}
);
leftMetricsKey = "vav-hb";
rightMetricsKey = "vav-hb";
unicode = 05DF;
},
{
color = 4;
glyphname = "nun-hb";
lastChange = "2019-04-07 13:32:38 +0000";
layers = (
{
layerId = "D0BE0C1E-19E7-43D2-9BC3-AB141F408D31";
paths = (
{
closed = 1;
nodes = (
"94 -2 OFFCURVE",
"152 -2 OFFCURVE",
"210 0 CURVE",
"227 30 OFFCURVE",
"240 64 OFFCURVE",
"252 99 CURVE",
"252 192 OFFCURVE",
"254 227 OFFCURVE",
"251 315 CURVE SMOOTH",
"247 420 OFFCURVE",
"239 446 OFFCURVE",
"192 474 CURVE SMOOTH",
"162 490 OFFCURVE",
"134 501 OFFCURVE",
"112 509 CURVE",
"88 509 LINE",
"75 480 OFFCURVE",
"65 442 OFFCURVE",
"56 410 CURVE",
"83 397 OFFCURVE",
"115 384 OFFCURVE",
"146 367 CURVE SMOOTH",
"181 346 OFFCURVE",
"181 342 OFFCURVE",
"188 271 CURVE SMOOTH",
"194 213 OFFCURVE",
"194 172 OFFCURVE",
"199 45 CURVE",
"222 100 LINE",
"166 100 OFFCURVE",
"108 100 OFFCURVE",
"52 100 CURVE",
"46 82 OFFCURVE",
"37 21 OFFCURVE",
"36 0 CURVE"
);
}
);
width = 303;
},
{
layerId = "AFDF4EF8-A213-4348-ACF7-371209F0497C";
paths = (
{
closed = 1;
nodes = (
"93 -3 OFFCURVE",
"161 -3 OFFCURVE",
"229 0 CURVE",
"244 57 OFFCURVE",
"259 115 OFFCURVE",
"268 178 CURVE",
"268 244 OFFCURVE",
"265 285 OFFCURVE",
"256 347 CURVE SMOOTH",
"240 458 OFFCURVE",
"209 479 OFFCURVE",
"133 504 CURVE SMOOTH",
"124 507 OFFCURVE",
"117 508 OFFCURVE",
"112 509 CURVE",
"87 509 LINE",
"70 467 OFFCURVE",
"49 382 OFFCURVE",
"48 326 CURVE",
"72 317 OFFCURVE",
"94 312 OFFCURVE",
"125 301 CURVE SMOOTH",
"161 288 OFFCURVE",
"167 271 OFFCURVE",
"179 220 CURVE SMOOTH",
"183 200 OFFCURVE",
"187 174 OFFCURVE",
"190 147 CURVE",
"214 182 LINE",
"160 182 OFFCURVE",
"107 182 OFFCURVE",
"53 182 CURVE",
"45 145 OFFCURVE",
"27 52 OFFCURVE",
"25 0 CURVE"
);
}
);
width = 290;
},
{
layerId = "A396904D-C838-4FF7-A96F-91F438939708";
paths = (
{
closed = 1;
nodes = (
"103 -2 OFFCURVE",
"180 -2 OFFCURVE",
"248 0 CURVE",
"259 45 OFFCURVE",
"273 100 OFFCURVE",
"279 161 CURVE",
"279 226 OFFCURVE",
"275 299 OFFCURVE",
"263 361 CURVE SMOOTH",
"248 439 OFFCURVE",
"229 451 OFFCURVE",
"160 483 CURVE SMOOTH",
"123 500 OFFCURVE",
"111 504 OFFCURVE",
"94 512 CURVE",
"67 512 LINE",
"57 470 OFFCURVE",
"38 387 OFFCURVE",
"35 340 CURVE",
"48 336 OFFCURVE",
"85 324 OFFCURVE",
"101 318 CURVE SMOOTH",
"140 303 OFFCURVE",
"147 296 OFFCURVE",
"152 247 CURVE SMOOTH",
"155 218 OFFCURVE",
"159 179 OFFCURVE",
"159 147 CURVE",
"183 167 LINE",
"123 167 OFFCURVE",
"85 167 OFFCURVE",
"43 167 CURVE",
"36 138 OFFCURVE",
"21 44 OFFCURVE",
"18 0 CURVE"
);
}
);
width = 300;
},
{
layerId = "5539344D-F27C-4FBD-A9E2-D2F022F19CCA";
paths = (
{
closed = 1;
nodes = (
"120 -2 OFFCURVE",
"158 -2 OFFCURVE",
"235 0 CURVE",
"248 31 OFFCURVE",
"259 64 OFFCURVE",
"266 104 CURVE",
"269 159 OFFCURVE",
"267 224 OFFCURVE",
"261 300 CURVE SMOOTH",
"252 406 OFFCURVE",
"235 435 OFFCURVE",
"186 466 CURVE SMOOTH",
"153 487 OFFCURVE",
"118 504 OFFCURVE",
"94 513 CURVE",
"72 513 LINE",
"60 491 OFFCURVE",
"50 461 OFFCURVE",
"43 426 CURVE",
"71 412 OFFCURVE",
"107 397 OFFCURVE",
"135 382 CURVE SMOOTH",
"178 359 OFFCURVE",
"179 352 OFFCURVE",
"186 282 CURVE SMOOTH",
"196 185 OFFCURVE",
"199 146 OFFCURVE",
"204 74 CURVE",
"225 101 LINE",
"136 101 OFFCURVE",
"106 101 OFFCURVE",
"48 101 CURVE",
"42 76 OFFCURVE",
"33 19 OFFCURVE",
"34 0 CURVE"
);
}
);
width = 300;
},
{
layerId = "798D7B20-9AF4-495F-9307-CAE61518AA1C";
paths = (
{
closed = 1;
nodes = (
"105 0 OFFCURVE",
"170 0 OFFCURVE",
"243 0 CURVE",
"243 94 OFFCURVE",
"243 145 OFFCURVE",
"243 204 CURVE SMOOTH",
"243 259 OFFCURVE",
"243 303 OFFCURVE",
"243 325 CURVE SMOOTH",
"243 426 OFFCURVE",
"210 477 OFFCURVE",
"106 477 CURVE SMOOTH",
"94 477 OFFCURVE",
"80 477 OFFCURVE",
"66 477 CURVE",
"47 477 LINE",
"47 455 OFFCURVE",
"47 432 OFFCURVE",
"47 407 CURVE",
"65 407 OFFCURVE",
"82 407 OFFCURVE",
"106 407 CURVE SMOOTH",
"148 407 OFFCURVE",
"167 390 OFFCURVE",
"167 325 CURVE SMOOTH",
"167 136 OFFCURVE",
"167 241 OFFCURVE",
"167 47 CURVE",
"181 70 LINE",
"132 70 OFFCURVE",
"84 70 OFFCURVE",
"37 70 CURVE",
"37 47 OFFCURVE",
"37 23 OFFCURVE",
"37 0 CURVE"
);
}
);
width = 290;
},
{
layerId = "C42C1682-C410-46D1-BF5A-F68DB0880154";
paths = (
{
closed = 1;
nodes = (
"115 0 OFFCURVE",
"176 0 OFFCURVE",
"237 0 CURVE",
"242 32 OFFCURVE",
"247 50 OFFCURVE",
"247 96 CURVE SMOOTH",
"247 151 OFFCURVE",
"228 211 OFFCURVE",
"228 292 CURVE SMOOTH",
"228 446 OFFCURVE",
"216 486 OFFCURVE",
"134 486 CURVE SMOOTH",
"97 486 OFFCURVE",
"91 497 OFFCURVE",
"85 512 CURVE",
"63 512 LINE",
"52 489 OFFCURVE",
"50 467 OFFCURVE",
"50 444 CURVE SMOOTH",
"50 392 OFFCURVE",
"63 377 OFFCURVE",
"124 377 CURVE SMOOTH",
"173 377 OFFCURVE",
"184 362 OFFCURVE",
"184 294 CURVE SMOOTH",
"184 226 OFFCURVE",
"184 120 OFFCURVE",
"184 89 CURVE",
"202 107 LINE",
"147 107 OFFCURVE",
"109 107 OFFCURVE",
"54 107 CURVE",
"46 91 OFFCURVE",
"46 16 OFFCURVE",
"54 0 CURVE"
);
}
);
width = 300;
},
{
layerId = "E84AB450-BED0-484C-851E-2EB7B7ED9E73";
paths = (
{
closed = 1;
nodes = (
"93 0 OFFCURVE",
"153 0 OFFCURVE",
"219 0 CURVE",
"226 40 OFFCURVE",
"227 74 OFFCURVE",
"227 103 CURVE SMOOTH",
"227 170 OFFCURVE",
"213 206 OFFCURVE",
"213 272 CURVE SMOOTH",
"213 467 OFFCURVE",
"199 486 OFFCURVE",
"111 486 CURVE SMOOTH",
"89 486 OFFCURVE",
"66 489 OFFCURVE",
"61 512 CURVE",
"30 512 LINE",
"19 475 OFFCURVE",
"18 431 OFFCURVE",
"18 397 CURVE SMOOTH",
"18 311 OFFCURVE",
"50 294 OFFCURVE",
"121 294 CURVE SMOOTH",
"144 294 OFFCURVE",
"162 286 OFFCURVE",
"162 249 CURVE SMOOTH",
"162 217 OFFCURVE",
"162 191 OFFCURVE",
"163 172 CURVE",
"180 194 LINE",
"127 194 OFFCURVE",
"80 194 OFFCURVE",
"29 194 CURVE",
"20 170 OFFCURVE",
"20 29 OFFCURVE",
"29 0 CURVE"
);
}
);
width = 256;
},
{
layerId = "FB8990CA-0F96-4B7B-86A4-9D429D534475";
paths = (
{
closed = 1;
nodes = (
"115 -1 OFFCURVE",
"188 -1 OFFCURVE",
"273 0 CURVE",
"273 47 OFFCURVE",
"273 87 OFFCURVE",
"273 119 CURVE SMOOTH",
"273 198 OFFCURVE",
"273 225 OFFCURVE",
"273 305 CURVE SMOOTH",
"273 455 OFFCURVE",
"230 500 OFFCURVE",
"110 500 CURVE SMOOTH",
"95 500 OFFCURVE",
"83 500 OFFCURVE",
"68 500 CURVE",
"34 500 LINE",
"34 479 OFFCURVE",
"34 400 OFFCURVE",
"34 374 CURVE",
"61 374 OFFCURVE",
"70 374 OFFCURVE",
"88 374 CURVE SMOOTH",
"127 374 OFFCURVE",
"137 365 OFFCURVE",
"137 295 CURVE SMOOTH",
"137 176 OFFCURVE",
"137 183 OFFCURVE",
"137 100 CURVE",
"164 138 LINE",
"118 138 OFFCURVE",
"80 138 OFFCURVE",
"30 138 CURVE",
"30 104 OFFCURVE",
"30 32 OFFCURVE",
"30 0 CURVE"
);
}
);
width = 313;
}
);
unicode = 05E0;
},
{
color = 4;
glyphname = "samekh-hb";
lastChange = "2019-04-30 14:24:57 +0000";
layers = (
{
associatedMasterId = "D0BE0C1E-19E7-43D2-9BC3-AB141F408D31";
layerId = "0D2F9F62-6D50-490D-B425-4005BBEB55D2";
name = Paths;
paths = (
{
closed = 0;
nodes = (
"190 500 LINE",
"181 442 OFFCURVE",
"178 399 OFFCURVE",
"178 357 CURVE SMOOTH",
"178 331 OFFCURVE",
"179 306 OFFCURVE",
"181 278 CURVE SMOOTH",
"199 -7 LINE",
"325 13 LINE SMOOTH",
"495 40 OFFCURVE",
"609 158 OFFCURVE",
"609 347 CURVE SMOOTH",
"609 455 OFFCURVE",
"574 500 OFFCURVE",
"413 500 CURVE SMOOTH",
"366 500 LINE SMOOTH",
"251 500 OFFCURVE",
"131 502 OFFCURVE",
"47 527 CURVE"
);
}
);
width = 739;
},
{
background = {
paths = (
{
closed = 1;
nodes = (
"258 278 LINE SMOOTH",
"256 306 OFFCURVE",
"255 331 OFFCURVE",
"255 357 CURVE SMOOTH",
"255 399 OFFCURVE",
"258 442 OFFCURVE",
"267 500 CURVE",
"327 600 LINE",
"318 542 OFFCURVE",
"315 499 OFFCURVE",
"315 457 CURVE SMOOTH",
"315 431 OFFCURVE",
"316 406 OFFCURVE",
"318 378 CURVE SMOOTH",
"336 93 LINE",
"462 113 LINE SMOOTH",
"632 140 OFFCURVE",
"746 258 OFFCURVE",
"746 447 CURVE SMOOTH",
"746 555 OFFCURVE",
"711 600 OFFCURVE",
"550 600 CURVE SMOOTH",
"503 600 LINE SMOOTH",
"388 600 OFFCURVE",
"268 602 OFFCURVE",
"184 627 CURVE",
"124 527 LINE",
"208 502 OFFCURVE",
"328 500 OFFCURVE",
"443 500 CURVE SMOOTH",
"490 500 LINE SMOOTH",
"651 500 OFFCURVE",
"686 455 OFFCURVE",
"686 347 CURVE SMOOTH",
"686 158 OFFCURVE",
"572 40 OFFCURVE",
"402 13 CURVE SMOOTH",
"276 -7 LINE"
);
}
);
};
layerId = "D0BE0C1E-19E7-43D2-9BC3-AB141F408D31";
paths = (
{
closed = 1;
nodes = (
"372 -5 OFFCURVE",
"464 102 OFFCURVE",
"464 315 CURVE SMOOTH",
"464 433 OFFCURVE",
"418 500 OFFCURVE",
"280 500 CURVE SMOOTH",
"178 500 LINE SMOOTH",
"129 500 OFFCURVE",
"119 500 OFFCURVE",
"79 516 CURVE",
"56 516 LINE",
"42 487 OFFCURVE",
"34 456 OFFCURVE",
"30 420 CURVE",
"93 400 OFFCURVE",
"131 397 OFFCURVE",
"187 397 CURVE SMOOTH",
"269 397 LINE SMOOTH",
"367 397 OFFCURVE",
"401 364 OFFCURVE",
"401 299 CURVE SMOOTH",
"401 154 OFFCURVE",
"339 94 OFFCURVE",
"252 94 CURVE SMOOTH",
"184 94 OFFCURVE",
"149 129 OFFCURVE",
"137 264 CURVE SMOOTH",
"131 329 OFFCURVE",
"129 400 OFFCURVE",
"112 440 CURVE",
"30 420 LINE",
"63 354 OFFCURVE",
"64 325 OFFCURVE",
"69 238 CURVE SMOOTH",
"80 57 OFFCURVE",
"136 -5 OFFCURVE",
"252 -5 CURVE SMOOTH"
);
}
);
width = 504;
},
{
background = {
paths = (
{
closed = 1;
nodes = (
"191 278 LINE SMOOTH",
"189 306 OFFCURVE",
"188 331 OFFCURVE",
"188 357 CURVE SMOOTH",
"188 399 OFFCURVE",
"191 442 OFFCURVE",
"200 500 CURVE",
"285 680 LINE",
"276 622 OFFCURVE",
"273 579 OFFCURVE",
"273 537 CURVE SMOOTH",
"273 511 OFFCURVE",
"274 486 OFFCURVE",
"276 458 CURVE SMOOTH",
"294 173 LINE",
"420 193 LINE SMOOTH",
"590 220 OFFCURVE",
"704 338 OFFCURVE",
"704 527 CURVE SMOOTH",
"704 635 OFFCURVE",
"669 680 OFFCURVE",
"508 680 CURVE SMOOTH",
"461 680 LINE SMOOTH",
"346 680 OFFCURVE",
"226 682 OFFCURVE",
"142 707 CURVE",
"57 527 LINE",
"141 502 OFFCURVE",
"261 500 OFFCURVE",
"376 500 CURVE SMOOTH",
"423 500 LINE SMOOTH",
"584 500 OFFCURVE",
"619 455 OFFCURVE",
"619 347 CURVE SMOOTH",
"619 158 OFFCURVE",
"505 40 OFFCURVE",
"335 13 CURVE SMOOTH",
"209 -7 LINE"
);
}
);
};
layerId = "AFDF4EF8-A213-4348-ACF7-371209F0497C";
paths = (
{
closed = 1;
nodes = (
"361 -8 OFFCURVE",
"437 98 OFFCURVE",
"437 307 CURVE SMOOTH",
"437 466 OFFCURVE",
"366 500 OFFCURVE",
"227 500 CURVE SMOOTH",
"172 500 LINE SMOOTH",
"134 500 OFFCURVE",
"110 501 OFFCURVE",
"84 512 CURVE",
"59 512 LINE",
"44 469 OFFCURVE",
"25 390 OFFCURVE",
"24 332 CURVE",
"98 321 OFFCURVE",
"128 322 OFFCURVE",
"151 322 CURVE SMOOTH",
"274 322 LINE SMOOTH",
"332 322 OFFCURVE",
"356 309 OFFCURVE",
"356 274 CURVE SMOOTH",
"356 203 OFFCURVE",
"315 168 OFFCURVE",
"233 168 CURVE SMOOTH",
"173 168 OFFCURVE",
"152 184 OFFCURVE",
"145 259 CURVE SMOOTH",
"141 288 OFFCURVE",
"136 334 OFFCURVE",
"122 372 CURVE",
"24 332 LINE",
"62 294 OFFCURVE",
"61 286 OFFCURVE",
"68 183 CURVE SMOOTH",
"78 35 OFFCURVE",
"126 -8 OFFCURVE",
"225 -8 CURVE SMOOTH"
);
}
);
width = 468;
},
{
background = {
paths = (
{
closed = 1;
nodes = (
"181 278 LINE SMOOTH",
"179 306 OFFCURVE",
"178 331 OFFCURVE",
"178 357 CURVE SMOOTH",
"178 399 OFFCURVE",
"181 442 OFFCURVE",
"190 500 CURVE",
"310 660 LINE",
"301 602 OFFCURVE",
"298 559 OFFCURVE",
"298 517 CURVE SMOOTH",
"298 491 OFFCURVE",
"299 466 OFFCURVE",
"301 438 CURVE SMOOTH",
"319 153 LINE",
"445 173 LINE SMOOTH",
"615 200 OFFCURVE",
"729 318 OFFCURVE",
"729 507 CURVE SMOOTH",
"729 615 OFFCURVE",
"694 660 OFFCURVE",
"533 660 CURVE SMOOTH",
"486 660 LINE SMOOTH",
"371 660 OFFCURVE",
"251 662 OFFCURVE",
"167 687 CURVE",
"47 527 LINE",
"131 502 OFFCURVE",
"251 500 OFFCURVE",
"366 500 CURVE SMOOTH",
"413 500 LINE SMOOTH",
"574 500 OFFCURVE",
"609 455 OFFCURVE",
"609 347 CURVE SMOOTH",
"609 158 OFFCURVE",
"495 40 OFFCURVE",
"325 13 CURVE SMOOTH",
"199 -7 LINE"
);
}
);
};
layerId = "A396904D-C838-4FF7-A96F-91F438939708";
paths = (
{
closed = 1;
nodes = (
"380 -8 OFFCURVE",
"485 108 OFFCURVE",
"485 297 CURVE SMOOTH",
"485 456 OFFCURVE",
"414 500 OFFCURVE",
"275 500 CURVE SMOOTH",
"150 500 LINE SMOOTH",
"132 500 OFFCURVE",
"108 501 OFFCURVE",
"82 512 CURVE",
"57 512 LINE",
"42 472 OFFCURVE",
"23 399 OFFCURVE",
"22 346 CURVE",
"96 335 OFFCURVE",
"126 336 OFFCURVE",
"169 336 CURVE SMOOTH",
"302 336 LINE SMOOTH",
"360 336 OFFCURVE",
"374 309 OFFCURVE",
"374 264 CURVE SMOOTH",
"374 191 OFFCURVE",
"325 151 OFFCURVE",
"247 151 CURVE SMOOTH",
"178 151 OFFCURVE",
"168 164 OFFCURVE",
"166 259 CURVE SMOOTH",
"165 288 OFFCURVE",
"158 348 OFFCURVE",
"147 372 CURVE",
"22 346 LINE",
"60 304 OFFCURVE",
"60 304 OFFCURVE",
"68 213 CURVE SMOOTH",
"83 45 OFFCURVE",
"108 -8 OFFCURVE",
"231 -8 CURVE SMOOTH"
);
}
);
width = 514;
},
{
background = {
paths = (
{
closed = 1;
nodes = (
"115 440 OFFCURVE",
"244 438 OFFCURVE",
"360 438 CURVE SMOOTH",
"407 438 LINE SMOOTH",
"525 438 OFFCURVE",
"538 425 OFFCURVE",
"538 347 CURVE SMOOTH",
"538 196 OFFCURVE",
"455 97 OFFCURVE",
"309 74 CURVE SMOOTH",
"254 65 LINE",
"240 282 LINE SMOOTH",
"238 310 OFFCURVE",
"237 333 OFFCURVE",
"237 357 CURVE SMOOTH",
"237 400 OFFCURVE",
"240 440 OFFCURVE",
"248 490 CURVE",
"120 510 LINE",
"111 453 OFFCURVE",
"107 406 OFFCURVE",
"107 357 CURVE SMOOTH",
"107 330 OFFCURVE",
"108 304 OFFCURVE",
"110 274 CURVE SMOOTH",
"132 -79 LINE",
"329 -48 LINE SMOOTH",
"539 -15 OFFCURVE",
"668 136 OFFCURVE",
"668 347 CURVE SMOOTH",
"668 501 OFFCURVE",
"591 562 OFFCURVE",
"407 562 CURVE SMOOTH",
"360 562 LINE SMOOTH",
"246 562 OFFCURVE",
"135 564 OFFCURVE",
"60 586 CURVE",
"22 468 LINE"
);
}
);
};
layerId = "FB8990CA-0F96-4B7B-86A4-9D429D534475";
paths = (
{
closed = 1;
nodes = (
"466 -10 OFFCURVE",
"561 101 OFFCURVE",
"561 275 CURVE SMOOTH",
"561 431 OFFCURVE",
"492 500 OFFCURVE",
"293 500 CURVE SMOOTH",
"109 500 LINE SMOOTH",
"85 500 OFFCURVE",
"71 500 OFFCURVE",
"37 500 CURVE",
"11 500 LINE",
"11 479 OFFCURVE",
"11 400 OFFCURVE",
"11 374 CURVE",
"35 374 OFFCURVE",
"58 374 OFFCURVE",
"82 374 CURVE",
"293 374 LINE SMOOTH",
"376 374 OFFCURVE",
"424 358 OFFCURVE",
"424 275 CURVE SMOOTH",
"424 173 OFFCURVE",
"388 128 OFFCURVE",
"302 128 CURVE SMOOTH",
"232 128 OFFCURVE",
"201 160 OFFCURVE",
"201 271 CURVE SMOOTH",
"201 305 OFFCURVE",
"201 356 OFFCURVE",
"201 406 CURVE",
"65 406 LINE",
"65 354 OFFCURVE",
"65 303 OFFCURVE",
"65 269 CURVE SMOOTH",
"65 83 OFFCURVE",
"143 -10 OFFCURVE",
"302 -10 CURVE SMOOTH"
);
}
);
width = 586;
},
{
background = {
paths = (
{
closed = 1;
nodes = (
"124 411 OFFCURVE",
"194 405 OFFCURVE",
"366 405 CURVE SMOOTH",
"413 405 LINE SMOOTH",
"572 405 OFFCURVE",
"582 395 OFFCURVE",
"582 347 CURVE SMOOTH",
"582 214 OFFCURVE",
"496 135 OFFCURVE",
"321 107 CURVE SMOOTH",
"220 91 LINE",
"208 284 LINE SMOOTH",
"206 314 OFFCURVE",
"205 333 OFFCURVE",
"205 357 CURVE SMOOTH",
"205 398 OFFCURVE",
"208 429 OFFCURVE",
"217 485 CURVE",
"163 515 LINE",
"155 463 OFFCURVE",
"151 408 OFFCURVE",
"151 357 CURVE SMOOTH",
"151 329 OFFCURVE",
"152 299 OFFCURVE",
"154 272 CURVE SMOOTH",
"178 -105 LINE",
"329 -81 LINE SMOOTH",
"514 -51 OFFCURVE",
"636 118 OFFCURVE",
"636 347 CURVE SMOOTH",
"636 528 OFFCURVE",
"579 595 OFFCURVE",
"413 595 CURVE SMOOTH",
"366 595 LINE SMOOTH",
"207 595 OFFCURVE",
"104 604 OFFCURVE",
"55 618 CURVE",
"39 436 LINE"
);
}
);
};
layerId = "E84AB450-BED0-484C-851E-2EB7B7ED9E73";
paths = (
{
closed = 1;
nodes = (
"310 -7 OFFCURVE",
"380 52 OFFCURVE",
"380 257 CURVE SMOOTH",
"380 464 OFFCURVE",
"334 486 OFFCURVE",
"212 486 CURVE SMOOTH",
"144 486 LINE SMOOTH",
"97 486 OFFCURVE",
"78 489 OFFCURVE",
"73 512 CURVE",
"42 512 LINE",
"31 478 OFFCURVE",
"26 437 OFFCURVE",
"26 396 CURVE SMOOTH",
"26 331 OFFCURVE",
"58 313 OFFCURVE",
"144 313 CURVE SMOOTH",
"236 313 LINE SMOOTH",
"304 313 OFFCURVE",
"330 304 OFFCURVE",
"330 256 CURVE SMOOTH",
"330 197 OFFCURVE",
"286 167 OFFCURVE",
"200 167 CURVE SMOOTH",
"144 167 OFFCURVE",
"105 185 OFFCURVE",
"105 244 CURVE SMOOTH",
"105 272 OFFCURVE",
"111 292 OFFCURVE",
"128 328 CURVE",
"83 328 LINE",
"63 292 OFFCURVE",
"48 254 OFFCURVE",
"48 194 CURVE SMOOTH",
"48 46 OFFCURVE",
"123 -7 OFFCURVE",
"201 -7 CURVE SMOOTH"
);
}
);
width = 400;
},
{
background = {
paths = (
{
closed = 1;
nodes = (
"113 452 OFFCURVE",
"199 445 OFFCURVE",
"366 445 CURVE SMOOTH",
"413 445 LINE SMOOTH",
"555 445 OFFCURVE",
"584 424 OFFCURVE",
"584 347 CURVE SMOOTH",
"584 194 OFFCURVE",
"491 94 OFFCURVE",
"321 67 CURVE SMOOTH",
"220 51 LINE",
"206 282 LINE SMOOTH",
"204 311 OFFCURVE",
"203 333 OFFCURVE",
"203 357 CURVE SMOOTH",
"203 400 OFFCURVE",
"206 438 OFFCURVE",
"215 492 CURVE",
"165 508 LINE",
"157 455 OFFCURVE",
"153 405 OFFCURVE",
"153 357 CURVE SMOOTH",
"153 330 OFFCURVE",
"154 302 OFFCURVE",
"156 274 CURVE SMOOTH",
"178 -65 LINE",
"329 -41 LINE SMOOTH",
"516 -12 OFFCURVE",
"634 139 OFFCURVE",
"634 347 CURVE SMOOTH",
"634 502 OFFCURVE",
"575 555 OFFCURVE",
"413 555 CURVE SMOOTH",
"366 555 LINE SMOOTH",
"204 555 OFFCURVE",
"113 562 OFFCURVE",
"54 580 CURVE",
"40 474 LINE"
);
}
);
};
layerId = "C42C1682-C410-46D1-BF5A-F68DB0880154";
paths = (
{
closed = 1;
nodes = (
"343 -8 OFFCURVE",
"408 104 OFFCURVE",
"408 277 CURVE SMOOTH",
"408 420 OFFCURVE",
"361 486 OFFCURVE",
"241 486 CURVE SMOOTH",
"119 486 LINE SMOOTH",
"80 486 OFFCURVE",
"71 492 OFFCURVE",
"61 512 CURVE",
"39 512 LINE",
"28 489 OFFCURVE",
"23 459 OFFCURVE",
"23 435 CURVE SMOOTH",
"23 382 OFFCURVE",
"36 377 OFFCURVE",
"119 377 CURVE SMOOTH",
"241 377 LINE SMOOTH",
"335 377 OFFCURVE",
"363 344 OFFCURVE",
"363 277 CURVE SMOOTH",
"363 145 OFFCURVE",
"304 99 OFFCURVE",
"214 99 CURVE SMOOTH",
"141 99 OFFCURVE",
"96 148 OFFCURVE",
"96 235 CURVE SMOOTH",
"96 312 OFFCURVE",
"114 364 OFFCURVE",
"160 406 CURVE",
"121 406 LINE",
"70 370 OFFCURVE",
"44 291 OFFCURVE",
"44 221 CURVE SMOOTH",
"44 65 OFFCURVE",
"111 -8 OFFCURVE",
"214 -8 CURVE SMOOTH"
);
}
);
width = 435;
},
{
background = {
paths = (
{
closed = 1;
nodes = (
"126 467 OFFCURVE",
"251 465 OFFCURVE",
"366 465 CURVE SMOOTH",
"413 465 LINE SMOOTH",
"546 465 OFFCURVE",
"574 442 OFFCURVE",
"574 347 CURVE SMOOTH",
"574 183 OFFCURVE",
"480 73 OFFCURVE",
"320 48 CURVE SMOOTH",
"232 34 LINE",
"216 280 LINE SMOOTH",
"214 308 OFFCURVE",
"213 332 OFFCURVE",
"213 357 CURVE SMOOTH",
"213 401 OFFCURVE",
"216 442 OFFCURVE",
"225 495 CURVE",
"155 505 LINE",
"147 450 OFFCURVE",
"143 405 OFFCURVE",
"143 357 CURVE SMOOTH",
"143 331 OFFCURVE",
"144 306 OFFCURVE",
"146 276 CURVE SMOOTH",
"166 -48 LINE",
"330 -22 LINE SMOOTH",
"525 9 OFFCURVE",
"644 149 OFFCURVE",
"644 347 CURVE SMOOTH",
"644 485 OFFCURVE",
"582 535 OFFCURVE",
"413 535 CURVE SMOOTH",
"366 535 LINE SMOOTH",
"251 535 OFFCURVE",
"136 537 OFFCURVE",
"57 561 CURVE",
"37 493 LINE"
);
}
);
};
layerId = "798D7B20-9AF4-495F-9307-CAE61518AA1C";
paths = (
{
closed = 1;
nodes = (
"444 0 OFFCURVE",
"528 108 OFFCURVE",
"528 281 CURVE SMOOTH",
"528 432 OFFCURVE",
"451 477 OFFCURVE",
"295 477 CURVE SMOOTH",
"171 477 LINE SMOOTH",
"132 477 OFFCURVE",
"96 477 OFFCURVE",
"55 477 CURVE",
"37 477 LINE",
"37 455 OFFCURVE",
"37 432 OFFCURVE",
"37 407 CURVE",
"55 407 OFFCURVE",
"128 407 OFFCURVE",
"171 407 CURVE SMOOTH",
"295 407 LINE SMOOTH",
"413 407 OFFCURVE",
"452 382 OFFCURVE",
"452 281 CURVE SMOOTH",
"452 148 OFFCURVE",
"407 70 OFFCURVE",
"300 70 CURVE SMOOTH",
"213 70 OFFCURVE",
"177 125 OFFCURVE",
"176 243 CURVE",
"176 305 OFFCURVE",
"176 367 OFFCURVE",
"176 429 CURVE",
"100 429 LINE",
"100 366 OFFCURVE",
"100 305 OFFCURVE",
"100 243 CURVE SMOOTH",
"100 85 OFFCURVE",
"167 0 OFFCURVE",
"300 0 CURVE SMOOTH"
);
}
);
width = 600;
},
{
background = {
paths = (
{
closed = 1;
nodes = (
"181 278 LINE SMOOTH",
"179 306 OFFCURVE",
"178 331 OFFCURVE",
"178 357 CURVE SMOOTH",
"178 399 OFFCURVE",
"181 442 OFFCURVE",
"190 500 CURVE",
"265 590 LINE",
"256 532 OFFCURVE",
"253 489 OFFCURVE",
"253 447 CURVE SMOOTH",
"253 421 OFFCURVE",
"254 396 OFFCURVE",
"256 368 CURVE SMOOTH",
"274 83 LINE",
"400 103 LINE SMOOTH",
"570 130 OFFCURVE",
"684 248 OFFCURVE",
"684 437 CURVE SMOOTH",
"684 545 OFFCURVE",
"649 590 OFFCURVE",
"488 590 CURVE SMOOTH",
"441 590 LINE SMOOTH",
"326 590 OFFCURVE",
"206 592 OFFCURVE",
"122 617 CURVE",
"47 527 LINE",
"131 502 OFFCURVE",
"251 500 OFFCURVE",
"366 500 CURVE SMOOTH",
"413 500 LINE SMOOTH",
"574 500 OFFCURVE",
"609 455 OFFCURVE",
"609 347 CURVE SMOOTH",
"609 158 OFFCURVE",
"495 40 OFFCURVE",
"325 13 CURVE SMOOTH",
"199 -7 LINE"
);
}
);
};
layerId = "5539344D-F27C-4FBD-A9E2-D2F022F19CCA";
paths = (
{
closed = 1;
nodes = (
"397 -4 OFFCURVE",
"491 109 OFFCURVE",
"491 305 CURVE SMOOTH",
"491 433 OFFCURVE",
"455 500 OFFCURVE",
"294 500 CURVE SMOOTH",
"199 500 LINE SMOOTH",
"139 500 OFFCURVE",
"102 504 OFFCURVE",
"83 513 CURVE",
"61 513 LINE",
"49 486 OFFCURVE",
"39 456 OFFCURVE",
"36 433 CURVE",
"59 416 OFFCURVE",
"122 411 OFFCURVE",
"168 411 CURVE SMOOTH",
"294 411 LINE SMOOTH",
"406 411 OFFCURVE",
"424 370 OFFCURVE",
"424 298 CURVE SMOOTH",
"424 168 OFFCURVE",
"371 95 OFFCURVE",
"264 95 CURVE SMOOTH",
"181 95 OFFCURVE",
"150 126 OFFCURVE",
"142 247 CURVE SMOOTH",
"137 327 OFFCURVE",
"130 383 OFFCURVE",
"109 445 CURVE",
"36 433 LINE",
"64 378 OFFCURVE",
"71 306 OFFCURVE",
"75 233 CURVE SMOOTH",
"84 67 OFFCURVE",
"142 -4 OFFCURVE",
"263 -4 CURVE SMOOTH"
);
}
);
width = 511;
}
);
unicode = 05E1;
},
{
color = 3;
glyphname = "ayin-hb";
lastChange = "2019-04-07 09:12:29 +0000";
layers = (
{
associatedMasterId = "D0BE0C1E-19E7-43D2-9BC3-AB141F408D31";
background = {
paths = (
{
closed = 1;
nodes = (
"419 439 LINE SMOOTH",
"472 418 OFFCURVE",
"478 408 OFFCURVE",
"475 373 CURVE SMOOTH",
"468 284 LINE SMOOTH",
"460 177 OFFCURVE",
"412 120 OFFCURVE",
"295 81 CURVE SMOOTH",
"109 18 LINE",
"151 -100 LINE",
"337 -37 LINE SMOOTH",
"502 19 OFFCURVE",
"586 118 OFFCURVE",
"598 274 CURVE SMOOTH",
"605 363 LINE SMOOTH",
"612 458 OFFCURVE",
"571 513 OFFCURVE",
"467 555 CURVE SMOOTH",
"402 581 LINE",
"354 465 LINE"
);
},
{
closed = 1;
nodes = (
"160 407 OFFCURVE",
"175 387 OFFCURVE",
"192 325 CURVE SMOOTH",
"279 17 LINE",
"405 51 LINE",
"318 359 LINE SMOOTH",
"292 448 OFFCURVE",
"257 493 OFFCURVE",
"167 555 CURVE",
"93 453 LINE"
);
}
);
};
layerId = "0D2F9F62-6D50-490D-B425-4005BBEB55D2";
name = Paths;
paths = (
{
closed = 0;
nodes = (
"130 -41 LINE",
"316 22 LINE SMOOTH",
"456 69 OFFCURVE",
"523 147 OFFCURVE",
"533 279 CURVE SMOOTH",
"540 368 LINE SMOOTH",
"545 437 OFFCURVE",
"517 467 OFFCURVE",
"443 497 CURVE SMOOTH",
"378 523 LINE"
);
},
{
closed = 0;
nodes = (
"342 34 LINE",
"255 342 LINE SMOOTH",
"235 412 OFFCURVE",
"214 446 OFFCURVE",
"130 504 CURVE"
);
}
);
width = 700;
},
{
background = {
paths = (
{
closed = 1;
nodes = (
"190 59 LINE",
"376 122 LINE SMOOTH",
"516 169 OFFCURVE",
"583 247 OFFCURVE",
"593 379 CURVE SMOOTH",
"600 468 LINE SMOOTH",
"605 537 OFFCURVE",
"577 567 OFFCURVE",
"503 597 CURVE SMOOTH",
"438 623 LINE",
"378 523 LINE",
"443 497 LINE SMOOTH",
"517 467 OFFCURVE",
"545 437 OFFCURVE",
"540 368 CURVE SMOOTH",
"533 279 LINE SMOOTH",
"523 147 OFFCURVE",
"456 69 OFFCURVE",
"316 22 CURVE SMOOTH",
"130 -41 LINE"
);
},
{
closed = 1;
nodes = (
"402 134 LINE",
"315 442 LINE SMOOTH",
"295 512 OFFCURVE",
"274 546 OFFCURVE",
"190 604 CURVE",
"130 504 LINE",
"214 446 OFFCURVE",
"235 412 OFFCURVE",
"255 342 CURVE SMOOTH",
"342 34 LINE"
);
}
);
};
layerId = "D0BE0C1E-19E7-43D2-9BC3-AB141F408D31";
width = 600;
},
{
background = {
paths = (
{
closed = 1;
nodes = (
"215 139 LINE",
"401 202 LINE SMOOTH",
"541 249 OFFCURVE",
"608 327 OFFCURVE",
"618 459 CURVE SMOOTH",
"625 548 LINE SMOOTH",
"630 617 OFFCURVE",
"602 647 OFFCURVE",
"528 677 CURVE SMOOTH",
"463 703 LINE",
"378 523 LINE",
"443 497 LINE SMOOTH",
"517 467 OFFCURVE",
"545 437 OFFCURVE",
"540 368 CURVE SMOOTH",
"533 279 LINE SMOOTH",
"523 147 OFFCURVE",
"456 69 OFFCURVE",
"316 22 CURVE SMOOTH",
"130 -41 LINE"
);
},
{
closed = 1;
nodes = (
"427 214 LINE",
"340 522 LINE SMOOTH",
"320 592 OFFCURVE",
"299 626 OFFCURVE",
"215 684 CURVE",
"130 504 LINE",
"214 446 OFFCURVE",
"235 412 OFFCURVE",
"255 342 CURVE SMOOTH",
"342 34 LINE"
);
}
);
};
layerId = "AFDF4EF8-A213-4348-ACF7-371209F0497C";
width = 600;
},
{
background = {
paths = (
{
closed = 1;
nodes = (
"250 119 LINE",
"436 182 LINE SMOOTH",
"576 229 OFFCURVE",
"643 307 OFFCURVE",
"653 439 CURVE SMOOTH",
"660 528 LINE SMOOTH",
"665 597 OFFCURVE",
"637 627 OFFCURVE",
"563 657 CURVE SMOOTH",
"498 683 LINE",
"378 523 LINE",
"443 497 LINE SMOOTH",
"517 467 OFFCURVE",
"545 437 OFFCURVE",
"540 368 CURVE SMOOTH",
"533 279 LINE SMOOTH",
"523 147 OFFCURVE",
"456 69 OFFCURVE",
"316 22 CURVE SMOOTH",
"130 -41 LINE"
);
},
{
closed = 1;
nodes = (
"462 194 LINE",
"375 502 LINE SMOOTH",
"355 572 OFFCURVE",
"334 606 OFFCURVE",
"250 664 CURVE",
"130 504 LINE",
"214 446 OFFCURVE",
"235 412 OFFCURVE",
"255 342 CURVE SMOOTH",
"342 34 LINE"
);
}
);
};
layerId = "A396904D-C838-4FF7-A96F-91F438939708";
width = 600;
},
{
background = {
paths = (
{
closed = 1;
nodes = (
"205 49 LINE",
"391 112 LINE SMOOTH",
"531 159 OFFCURVE",
"598 237 OFFCURVE",
"608 369 CURVE SMOOTH",
"615 458 LINE SMOOTH",
"620 527 OFFCURVE",
"592 557 OFFCURVE",
"518 587 CURVE SMOOTH",
"453 613 LINE",
"378 523 LINE",
"443 497 LINE SMOOTH",
"517 467 OFFCURVE",
"545 437 OFFCURVE",
"540 368 CURVE SMOOTH",
"533 279 LINE SMOOTH",
"523 147 OFFCURVE",
"456 69 OFFCURVE",
"316 22 CURVE SMOOTH",
"130 -41 LINE"
);
},
{
closed = 1;
nodes = (
"417 124 LINE",
"330 432 LINE SMOOTH",
"310 502 OFFCURVE",
"289 536 OFFCURVE",
"205 594 CURVE",
"130 504 LINE",
"214 446 OFFCURVE",
"235 412 OFFCURVE",
"255 342 CURVE SMOOTH",
"342 34 LINE"
);
}
);
};
layerId = "5539344D-F27C-4FBD-A9E2-D2F022F19CCA";
width = 600;
},
{
background = {
paths = (
{
closed = 1;
nodes = (
"430 465 LINE SMOOTH",
"495 438 OFFCURVE",
"509 420 OFFCURVE",
"505 371 CURVE SMOOTH",
"498 282 LINE SMOOTH",
"489 165 OFFCURVE",
"433 98 OFFCURVE",
"305 55 CURVE SMOOTH",
"119 -8 LINE",
"141 -74 LINE",
"327 -11 LINE SMOOTH",
"481 40 OFFCURVE",
"557 131 OFFCURVE",
"568 276 CURVE SMOOTH",
"575 365 LINE SMOOTH",
"581 447 OFFCURVE",
"548 492 OFFCURVE",
"456 529 CURVE SMOOTH",
"391 555 LINE",
"365 491 LINE"
);
},
{
closed = 1;
nodes = (
"183 425 OFFCURVE",
"202 400 OFFCURVE",
"221 332 CURVE SMOOTH",
"308 24 LINE",
"376 44 LINE",
"289 352 LINE SMOOTH",
"265 435 OFFCURVE",
"234 475 OFFCURVE",
"150 533 CURVE",
"110 475 LINE"
);
}
);
};
layerId = "798D7B20-9AF4-495F-9307-CAE61518AA1C";
width = 600;
},
{
background = {
paths = (
{
closed = 1;
nodes = (
"434 446 LINE SMOOTH",
"513 414 OFFCURVE",
"518 408 OFFCURVE",
"515 372 CURVE SMOOTH",
"508 283 LINE SMOOTH",
"500 178 OFFCURVE",
"445 120 OFFCURVE",
"308 74 CURVE SMOOTH",
"122 11 LINE",
"138 -93 LINE",
"324 -30 LINE SMOOTH",
"470 19 OFFCURVE",
"546 118 OFFCURVE",
"558 275 CURVE SMOOTH",
"565 364 LINE SMOOTH",
"572 457 OFFCURVE",
"536 514 OFFCURVE",
"452 548 CURVE SMOOTH",
"387 574 LINE",
"369 472 LINE"
);
},
{
closed = 1;
nodes = (
"199 401 OFFCURVE",
"215 383 OFFCURVE",
"231 327 CURVE SMOOTH",
"318 19 LINE",
"366 49 LINE",
"279 357 LINE SMOOTH",
"252 453 OFFCURVE",
"223 495 OFFCURVE",
"144 549 CURVE",
"116 459 LINE"
);
}
);
};
layerId = "C42C1682-C410-46D1-BF5A-F68DB0880154";
width = 600;
},
{
background = {
paths = (
{
closed = 1;
nodes = (
"433 409 LINE SMOOTH",
"568 354 OFFCURVE",
"517 436 OFFCURVE",
"513 375 CURVE SMOOTH",
"506 286 LINE SMOOTH",
"500 201 OFFCURVE",
"454 161 OFFCURVE",
"307 112 CURVE SMOOTH",
"121 49 LINE",
"139 -131 LINE",
"325 -68 LINE SMOOTH",
"469 -20 OFFCURVE",
"547 95 OFFCURVE",
"560 272 CURVE SMOOTH",
"567 361 LINE SMOOTH",
"575 466 OFFCURVE",
"540 550 OFFCURVE",
"453 585 CURVE SMOOTH",
"388 611 LINE",
"368 435 LINE"
);
},
{
closed = 1;
nodes = (
"218 354 OFFCURVE",
"216 361 OFFCURVE",
"229 316 CURVE SMOOTH",
"316 8 LINE",
"368 60 LINE",
"281 368 LINE SMOOTH",
"249 481 OFFCURVE",
"223 528 OFFCURVE",
"145 582 CURVE",
"115 426 LINE"
);
}
);
};
layerId = "E84AB450-BED0-484C-851E-2EB7B7ED9E73";
width = 600;
},
{
background = {
paths = (
{
closed = 1;
nodes = (
"419 439 LINE SMOOTH",
"472 418 OFFCURVE",
"478 408 OFFCURVE",
"475 373 CURVE SMOOTH",
"468 284 LINE SMOOTH",
"460 177 OFFCURVE",
"412 120 OFFCURVE",
"295 81 CURVE SMOOTH",
"109 18 LINE",
"151 -100 LINE",
"337 -37 LINE SMOOTH",
"502 19 OFFCURVE",
"586 118 OFFCURVE",
"598 274 CURVE SMOOTH",
"605 363 LINE SMOOTH",
"612 458 OFFCURVE",
"571 513 OFFCURVE",
"467 555 CURVE SMOOTH",
"402 581 LINE",
"354 465 LINE"
);
},
{
closed = 1;
nodes = (
"160 407 OFFCURVE",
"175 387 OFFCURVE",
"192 325 CURVE SMOOTH",
"279 17 LINE",
"405 51 LINE",
"318 359 LINE SMOOTH",
"292 448 OFFCURVE",
"257 493 OFFCURVE",
"167 555 CURVE",
"93 453 LINE"
);
}
);
};
layerId = "FB8990CA-0F96-4B7B-86A4-9D429D534475";
width = 600;
}
);
unicode = 05E2;
},
{
color = 4;
glyphname = "finalpe-hb";
lastChange = "2019-04-07 14:07:01 +0000";
layers = (
{
layerId = "D0BE0C1E-19E7-43D2-9BC3-AB141F408D31";
paths = (
{
closed = 1;
nodes = (
"365 -150 LINE",
"376 -120 OFFCURVE",
"384 -86 OFFCURVE",
"392 -51 CURVE",
"399 242 OFFCURVE",
"394 123 OFFCURVE",
"390 351 CURVE",
"381 465 OFFCURVE",
"333 487 OFFCURVE",
"223 494 CURVE SMOOTH",
"177 497 LINE SMOOTH",
"108 502 OFFCURVE",
"105 503 OFFCURVE",
"72 519 CURVE",
"49 519 LINE",
"35 490 OFFCURVE",
"27 459 OFFCURVE",
"23 423 CURVE",
"59 403 OFFCURVE",
"90 399 OFFCURVE",
"166 394 CURVE SMOOTH",
"212 391 LINE SMOOTH",
"298 385 OFFCURVE",
"320 382 OFFCURVE",
"328 301 CURVE",
"333 141 OFFCURVE",
"334 -28 OFFCURVE",
"333 -150 CURVE"
);
},
{
closed = 1;
nodes = (
"172 176 OFFCURVE",
"184 249 OFFCURVE",
"188 272 CURVE",
"131 285 LINE SMOOTH",
"103 291 OFFCURVE",
"98 299 OFFCURVE",
"100 321 CURVE SMOOTH",
"102 345 OFFCURVE",
"107 387 OFFCURVE",
"118 420 CURVE",
"74 425 LINE",
"55 348 OFFCURVE",
"35 290 OFFCURVE",
"35 240 CURVE SMOOTH",
"35 212 OFFCURVE",
"43 189 OFFCURVE",
"97 178 CURVE SMOOTH",
"164 164 LINE"
);
}
);
width = 446;
},
{
layerId = "AFDF4EF8-A213-4348-ACF7-371209F0497C";
paths = (
{
closed = 1;
nodes = (
"366 -150 LINE",
"379 -94 OFFCURVE",
"392 -37 OFFCURVE",
"398 18 CURVE",
"400 105 OFFCURVE",
"398 272 OFFCURVE",
"394 356 CURVE",
"382 464 OFFCURVE",
"331 489 OFFCURVE",
"230 500 CURVE SMOOTH",
"183 505 LINE SMOOTH",
"139 510 OFFCURVE",
"113 511 OFFCURVE",
"72 519 CURVE",
"47 519 LINE",
"34 481 OFFCURVE",
"21 411 OFFCURVE",
"19 363 CURVE",
"73 350 OFFCURVE",
"104 348 OFFCURVE",
"178 341 CURVE SMOOTH",
"222 337 LINE SMOOTH",
"298 330 OFFCURVE",
"305 319 OFFCURVE",
"316 226 CURVE",
"319 110 OFFCURVE",
"321 -55 OFFCURVE",
"323 -150 CURVE"
);
},
{
closed = 1;
nodes = (
"172 167 OFFCURVE",
"178 209 OFFCURVE",
"191 265 CURVE",
"156 271 LINE SMOOTH",
"119 277 OFFCURVE",
"117 316 OFFCURVE",
"117 331 CURVE SMOOTH",
"117 344 OFFCURVE",
"117 351 OFFCURVE",
"117 354 CURVE",
"60 373 LINE",
"46 330 OFFCURVE",
"21 223 OFFCURVE",
"21 197 CURVE SMOOTH",
"21 170 OFFCURVE",
"34 149 OFFCURVE",
"90 141 CURVE SMOOTH",
"159 131 LINE"
);
}
);
width = 421;
},
{
layerId = "A396904D-C838-4FF7-A96F-91F438939708";
paths = (
{
closed = 1;
nodes = (
"415 -150 LINE",
"421 -108 OFFCURVE",
"428 -56 OFFCURVE",
"431 1 CURVE",
"432 118 OFFCURVE",
"428 268 OFFCURVE",
"424 378 CURVE",
"418 456 OFFCURVE",
"373 491 OFFCURVE",
"252 500 CURVE SMOOTH",
"196 504 LINE SMOOTH",
"126 509 OFFCURVE",
"112 511 OFFCURVE",
"82 525 CURVE",
"55 525 LINE",
"45 497 OFFCURVE",
"27 413 OFFCURVE",
"26 369 CURVE",
"52 359 OFFCURVE",
"101 351 OFFCURVE",
"137 348 CURVE SMOOTH",
"217 342 LINE SMOOTH",
"308 335 OFFCURVE",
"310 335 OFFCURVE",
"315 259 CURVE SMOOTH",
"320 134 OFFCURVE",
"322 -2 OFFCURVE",
"324 -150 CURVE"
);
},
{
closed = 1;
nodes = (
"200 166 OFFCURVE",
"212 247 OFFCURVE",
"211 264 CURVE",
"168 271 LINE SMOOTH",
"149 274 OFFCURVE",
"142 276 OFFCURVE",
"142 293 CURVE SMOOTH",
"142 329 OFFCURVE",
"144 355 OFFCURVE",
"148 390 CURVE",
"78 407 LINE",
"64 361 OFFCURVE",
"37 261 OFFCURVE",
"37 210 CURVE SMOOTH",
"37 162 OFFCURVE",
"51 152 OFFCURVE",
"107 147 CURVE SMOOTH",
"190 139 LINE"
);
}
);
width = 452;
},
{
layerId = "5539344D-F27C-4FBD-A9E2-D2F022F19CCA";
paths = (
{
closed = 1;
nodes = (
"387 -150 LINE",
"393 -119 OFFCURVE",
"399 -85 OFFCURVE",
"401 -45 CURVE",
"404 48 OFFCURVE",
"408 158 OFFCURVE",
"406 351 CURVE",
"397 465 OFFCURVE",
"347 488 OFFCURVE",
"237 494 CURVE SMOOTH",
"181 497 LINE SMOOTH",
"112 501 OFFCURVE",
"109 503 OFFCURVE",
"76 519 CURVE",
"53 519 LINE",
"38 489 OFFCURVE",
"29 464 OFFCURVE",
"25 426 CURVE",
"62 409 OFFCURVE",
"93 405 OFFCURVE",
"170 401 CURVE SMOOTH",
"226 398 LINE SMOOTH",
"299 394 OFFCURVE",
"321 382 OFFCURVE",
"329 301 CURVE",
"334 82 OFFCURVE",
"334 2 OFFCURVE",
"336 -150 CURVE"
);
},
{
closed = 1;
nodes = (
"178 197 OFFCURVE",
"187 257 OFFCURVE",
"187 269 CURVE",
"149 277 LINE SMOOTH",
"116 284 OFFCURVE",
"112 289 OFFCURVE",
"113 311 CURVE SMOOTH",
"116 349 OFFCURVE",
"124 394 OFFCURVE",
"129 420 CURVE",
"74 425 LINE",
"57 358 OFFCURVE",
"42 281 OFFCURVE",
"42 251 CURVE SMOOTH",
"42 218 OFFCURVE",
"52 206 OFFCURVE",
"106 197 CURVE SMOOTH",
"170 186 LINE"
);
}
);
width = 436;
},
{
layerId = "798D7B20-9AF4-495F-9307-CAE61518AA1C";
paths = (
{
closed = 1;
nodes = (
"414 -150 LINE",
"414 -56 OFFCURVE",
"414 -5 OFFCURVE",
"414 55 CURVE SMOOTH",
"414 182 OFFCURVE",
"414 262 OFFCURVE",
"414 295 CURVE SMOOTH",
"414 417 OFFCURVE",
"386 477 OFFCURVE",
"233 477 CURVE SMOOTH",
"211 477 LINE SMOOTH",
"159 477 OFFCURVE",
"110 477 OFFCURVE",
"55 477 CURVE",
"37 477 LINE",
"37 455 OFFCURVE",
"37 432 OFFCURVE",
"37 407 CURVE",
"60 407 OFFCURVE",
"155 407 OFFCURVE",
"211 407 CURVE SMOOTH",
"233 407 LINE SMOOTH",
"324 407 OFFCURVE",
"338 382 OFFCURVE",
"338 295 CURVE SMOOTH",
"338 -32 OFFCURVE",
"338 194 OFFCURVE",
"338 -150 CURVE"
);
},
{
closed = 1;
nodes = (
"195 213 OFFCURVE",
"195 237 OFFCURVE",
"195 260 CURVE",
"154 260 LINE SMOOTH",
"118 260 OFFCURVE",
"113 266 OFFCURVE",
"113 297 CURVE SMOOTH",
"113 317 OFFCURVE",
"113 371 OFFCURVE",
"113 424 CURVE",
"37 424 LINE",
"37 386 OFFCURVE",
"36 316 OFFCURVE",
"36 287 CURVE SMOOTH",
"36 219 OFFCURVE",
"62 190 OFFCURVE",
"141 190 CURVE SMOOTH",
"195 190 LINE"
);
}
);
width = 464;
},
{
layerId = "C42C1682-C410-46D1-BF5A-F68DB0880154";
paths = (
{
closed = 1;
nodes = (
"377 -150 LINE",
"385 -101 OFFCURVE",
"393 -74 OFFCURVE",
"394 -3 CURVE SMOOTH",
"395 79 OFFCURVE",
"385 187 OFFCURVE",
"385 292 CURVE SMOOTH",
"385 474 OFFCURVE",
"367 486 OFFCURVE",
"226 486 CURVE SMOOTH",
"166 486 LINE SMOOTH",
"87 486 OFFCURVE",
"78 492 OFFCURVE",
"68 512 CURVE",
"46 512 LINE",
"35 489 OFFCURVE",
"30 459 OFFCURVE",
"30 435 CURVE SMOOTH",
"30 382 OFFCURVE",
"43 377 OFFCURVE",
"166 377 CURVE SMOOTH",
"226 377 LINE SMOOTH",
"324 377 OFFCURVE",
"340 359 OFFCURVE",
"341 276 CURVE SMOOTH",
"341 149 OFFCURVE",
"325 13 OFFCURVE",
"339 -150 CURVE"
);
},
{
closed = 1;
nodes = (
"189 198 OFFCURVE",
"190 249 OFFCURVE",
"188 275 CURVE",
"144 275 LINE SMOOTH",
"109 275 OFFCURVE",
"97 282 OFFCURVE",
"97 306 CURVE SMOOTH",
"97 329 OFFCURVE",
"107 369 OFFCURVE",
"134 418 CURVE",
"100 421 LINE",
"72 369 OFFCURVE",
"54 312 OFFCURVE",
"54 252 CURVE SMOOTH",
"54 206 OFFCURVE",
"68 177 OFFCURVE",
"138 177 CURVE SMOOTH",
"185 177 LINE"
);
}
);
width = 444;
},
{
layerId = "E84AB450-BED0-484C-851E-2EB7B7ED9E73";
paths = (
{
closed = 1;
nodes = (
"344 -150 LINE",
"360 -91 OFFCURVE",
"362 -40 OFFCURVE",
"362 3 CURVE SMOOTH",
"362 104 OFFCURVE",
"345 173 OFFCURVE",
"345 272 CURVE SMOOTH",
"345 467 OFFCURVE",
"341 486 OFFCURVE",
"208 486 CURVE SMOOTH",
"128 486 LINE SMOOTH",
"81 486 OFFCURVE",
"58 489 OFFCURVE",
"53 512 CURVE",
"22 512 LINE",
"11 478 OFFCURVE",
"10 437 OFFCURVE",
"10 396 CURVE SMOOTH",
"10 331 OFFCURVE",
"42 313 OFFCURVE",
"128 313 CURVE SMOOTH",
"208 313 LINE SMOOTH",
"300 313 OFFCURVE",
"295 307 OFFCURVE",
"295 249 CURVE SMOOTH",
"295 115 OFFCURVE",
"279 -19 OFFCURVE",
"290 -150 CURVE"
);
},
{
closed = 1;
nodes = (
"175 157 OFFCURVE",
"175 209 OFFCURVE",
"173 256 CURVE",
"109 256 LINE SMOOTH",
"84 256 OFFCURVE",
"73 261 OFFCURVE",
"73 277 CURVE SMOOTH",
"73 313 OFFCURVE",
"76 334 OFFCURVE",
"87 350 CURVE",
"53 353 LINE",
"32 327 OFFCURVE",
"21 264 OFFCURVE",
"21 206 CURVE SMOOTH",
"21 162 OFFCURVE",
"37 134 OFFCURVE",
"115 134 CURVE SMOOTH",
"171 134 LINE"
);
}
);
width = 392;
},
{
layerId = "FB8990CA-0F96-4B7B-86A4-9D429D534475";
paths = (
{
closed = 1;
nodes = (
"481 -150 LINE",
"481 -103 OFFCURVE",
"481 -63 OFFCURVE",
"481 -31 CURVE SMOOTH",
"481 136 OFFCURVE",
"481 108 OFFCURVE",
"481 279 CURVE SMOOTH",
"479 459 OFFCURVE",
"427 500 OFFCURVE",
"263 500 CURVE SMOOTH",
"153 500 LINE SMOOTH",
"119 500 OFFCURVE",
"85 500 OFFCURVE",
"51 500 CURVE",
"25 500 LINE",
"25 479 OFFCURVE",
"25 400 OFFCURVE",
"25 374 CURVE",
"49 374 OFFCURVE",
"72 374 OFFCURVE",
"96 374 CURVE",
"263 374 LINE SMOOTH",
"332 374 OFFCURVE",
"344 362 OFFCURVE",
"344 279 CURVE SMOOTH",
"344 -24 OFFCURVE",
"344 61 OFFCURVE",
"344 -150 CURVE"
);
},
{
closed = 1;
nodes = (
"238 191 OFFCURVE",
"238 260 OFFCURVE",
"238 276 CURVE",
"192 276 LINE SMOOTH",
"167 276 OFFCURVE",
"156 286 OFFCURVE",
"156 305 CURVE SMOOTH",
"156 320 OFFCURVE",
"156 373 OFFCURVE",
"156 392 CURVE",
"25 392 LINE",
"25 370 OFFCURVE",
"25 308 OFFCURVE",
"25 284 CURVE SMOOTH",
"25 193 OFFCURVE",
"53 162 OFFCURVE",
"160 162 CURVE SMOOTH",
"238 162 LINE"
);
}
);
width = 511;
}
);
rightMetricsKey = "he-hb";
unicode = 05E3;
},
{
color = 4;
glyphname = "pe-hb";
lastChange = "2019-04-07 14:51:36 +0000";
layers = (
{
associatedMasterId = "D0BE0C1E-19E7-43D2-9BC3-AB141F408D31";
layerId = "0D2F9F62-6D50-490D-B425-4005BBEB55D2";
name = Paths;
paths = (
{
closed = 0;
nodes = (
"137 0 LINE",
"519 0 LINE",
"520 286 LINE SMOOTH",
"520 419 OFFCURVE",
"496 474 OFFCURVE",
"388 486 CURVE SMOOTH",
"241 503 LINE SMOOTH",
"195 507 OFFCURVE",
"163 517 OFFCURVE",
"132 531 CURVE"
);
},
{
closed = 0;
nodes = (
"219 500 LINE",
"194 426 OFFCURVE",
"173 359 OFFCURVE",
"173 308 CURVE SMOOTH",
"173 260 OFFCURVE",
"190 238 OFFCURVE",
"249 229 CURVE",
"330 222 LINE"
);
}
);
width = 690;
},
{
background = {
paths = (
{
closed = 1;
nodes = (
"305 100 LINE",
"687 100 LINE",
"688 387 LINE SMOOTH",
"688 520 OFFCURVE",
"664 575 OFFCURVE",
"556 587 CURVE SMOOTH",
"409 604 LINE SMOOTH",
"363 608 OFFCURVE",
"331 618 OFFCURVE",
"300 632 CURVE",
"240 531 LINE",
"271 517 OFFCURVE",
"303 507 OFFCURVE",
"349 503 CURVE SMOOTH",
"496 486 LINE SMOOTH",
"604 474 OFFCURVE",
"628 419 OFFCURVE",
"628 286 CURVE SMOOTH",
"627 0 LINE",
"245 0 LINE"
);
}
);
};
layerId = "D0BE0C1E-19E7-43D2-9BC3-AB141F408D31";
paths = (
{
closed = 1;
nodes = (
"123 -1 OFFCURVE",
"249 -1 OFFCURVE",
"373 1 CURVE",
"385 31 OFFCURVE",
"394 62 OFFCURVE",
"401 103 CURVE",
"398 184 OFFCURVE",
"396 271 OFFCURVE",
"390 351 CURVE SMOOTH",
"381 465 OFFCURVE",
"333 487 OFFCURVE",
"223 494 CURVE SMOOTH",
"177 497 LINE SMOOTH",
"108 502 OFFCURVE",
"105 503 OFFCURVE",
"72 519 CURVE",
"49 519 LINE",
"35 490 OFFCURVE",
"27 459 OFFCURVE",
"23 423 CURVE",
"59 403 OFFCURVE",
"90 399 OFFCURVE",
"166 394 CURVE SMOOTH",
"212 391 LINE SMOOTH",
"298 385 OFFCURVE",
"320 382 OFFCURVE",
"328 301 CURVE SMOOTH",
"333 248 OFFCURVE",
"336 189 OFFCURVE",
"342 99 CURVE",
"240 99 OFFCURVE",
"138 99 OFFCURVE",
"36 99 CURVE",
"30 82 OFFCURVE",
"21 21 OFFCURVE",
"20 1 CURVE"
);
},
{
closed = 1;
nodes = (
"176 196 OFFCURVE",
"188 269 OFFCURVE",
"188 282 CURVE",
"131 295 LINE SMOOTH",
"103 301 OFFCURVE",
"98 309 OFFCURVE",
"100 331 CURVE SMOOTH",
"102 355 OFFCURVE",
"107 387 OFFCURVE",
"118 420 CURVE",
"74 425 LINE",
"55 358 OFFCURVE",
"39 300 OFFCURVE",
"39 260 CURVE SMOOTH",
"39 232 OFFCURVE",
"47 209 OFFCURVE",
"101 198 CURVE SMOOTH",
"168 184 LINE"
);
}
);
width = 441;
},
{
layerId = "AFDF4EF8-A213-4348-ACF7-371209F0497C";
paths = (
{
closed = 1;
nodes = (
"108 -3 OFFCURVE",
"265 -3 OFFCURVE",
"377 0 CURVE",
"393 54 OFFCURVE",
"406 111 OFFCURVE",
"410 177 CURVE",
"408 251 OFFCURVE",
"406 297 OFFCURVE",
"399 356 CURVE SMOOTH",
"387 464 OFFCURVE",
"336 489 OFFCURVE",
"235 500 CURVE SMOOTH",
"188 505 LINE SMOOTH",
"144 510 OFFCURVE",
"118 511 OFFCURVE",
"77 519 CURVE",
"52 519 LINE",
"39 481 OFFCURVE",
"26 411 OFFCURVE",
"24 363 CURVE",
"78 350 OFFCURVE",
"109 348 OFFCURVE",
"183 341 CURVE SMOOTH",
"227 337 LINE SMOOTH",
"303 330 OFFCURVE",
"310 319 OFFCURVE",
"321 226 CURVE SMOOTH",
"323 208 OFFCURVE",
"324 181 OFFCURVE",
"326 163 CURVE",
"209 163 OFFCURVE",
"117 163 OFFCURVE",
"48 163 CURVE",
"37 128 OFFCURVE",
"22 51 OFFCURVE",
"20 0 CURVE"
);
},
{
closed = 1;
nodes = (
"191 217 OFFCURVE",
"198 262 OFFCURVE",
"201 298 CURVE",
"155 306 LINE SMOOTH",
"128 311 OFFCURVE",
"122 316 OFFCURVE",
"122 331 CURVE SMOOTH",
"122 344 OFFCURVE",
"122 351 OFFCURVE",
"122 354 CURVE",
"65 373 LINE",
"51 330 OFFCURVE",
"40 276 OFFCURVE",
"40 250 CURVE SMOOTH",
"40 223 OFFCURVE",
"53 205 OFFCURVE",
"109 194 CURVE SMOOTH",
"178 181 LINE"
);
}
);
width = 428;
},
{
layerId = "A396904D-C838-4FF7-A96F-91F438939708";
paths = (
{
closed = 1;
nodes = (
"173 -2 OFFCURVE",
"289 -2 OFFCURVE",
"404 0 CURVE",
"417 45 OFFCURVE",
"433 118 OFFCURVE",
"436 161 CURVE",
"435 232 OFFCURVE",
"429 315 OFFCURVE",
"424 378 CURVE SMOOTH",
"418 456 OFFCURVE",
"373 491 OFFCURVE",
"252 500 CURVE SMOOTH",
"196 504 LINE SMOOTH",
"126 509 OFFCURVE",
"112 511 OFFCURVE",
"82 525 CURVE",
"55 525 LINE",
"45 497 OFFCURVE",
"27 413 OFFCURVE",
"26 369 CURVE",
"52 359 OFFCURVE",
"101 351 OFFCURVE",
"137 348 CURVE SMOOTH",
"217 342 LINE SMOOTH",
"308 335 OFFCURVE",
"310 335 OFFCURVE",
"315 259 CURVE SMOOTH",
"318 209 OFFCURVE",
"320 174 OFFCURVE",
"322 138 CURVE",
"197 138 OFFCURVE",
"138 138 OFFCURVE",
"52 138 CURVE",
"45 114 OFFCURVE",
"31 38 OFFCURVE",
"28 0 CURVE"
);
},
{
closed = 1;
nodes = (
"205 196 OFFCURVE",
"212 267 OFFCURVE",
"211 284 CURVE",
"168 291 LINE SMOOTH",
"149 294 OFFCURVE",
"142 296 OFFCURVE",
"142 313 CURVE SMOOTH",
"142 329 OFFCURVE",
"144 355 OFFCURVE",
"148 390 CURVE",
"78 407 LINE",
"64 361 OFFCURVE",
"42 281 OFFCURVE",
"42 240 CURVE SMOOTH",
"42 192 OFFCURVE",
"56 182 OFFCURVE",
"112 177 CURVE SMOOTH",
"195 169 LINE"
);
}
);
width = 453;
},
{
background = {
paths = (
{
closed = 1;
nodes = (
"508 90 LINE",
"890 90 LINE",
"891 377 LINE SMOOTH",
"891 510 OFFCURVE",
"867 565 OFFCURVE",
"759 577 CURVE SMOOTH",
"612 594 LINE SMOOTH",
"566 598 OFFCURVE",
"534 608 OFFCURVE",
"503 622 CURVE",
"428 531 LINE",
"459 517 OFFCURVE",
"491 507 OFFCURVE",
"537 503 CURVE SMOOTH",
"684 486 LINE SMOOTH",
"792 474 OFFCURVE",
"816 419 OFFCURVE",
"816 286 CURVE SMOOTH",
"815 0 LINE",
"433 0 LINE"
);
},
{
closed = 1;
nodes = (
"701 312 LINE",
"620 319 LINE",
"561 328 OFFCURVE",
"544 350 OFFCURVE",
"544 399 CURVE SMOOTH",
"544 450 OFFCURVE",
"565 517 OFFCURVE",
"590 591 CURVE",
"515 500 LINE",
"490 426 OFFCURVE",
"469 359 OFFCURVE",
"469 308 CURVE SMOOTH",
"469 260 OFFCURVE",
"486 238 OFFCURVE",
"545 229 CURVE",
"626 222 LINE"
);
}
);
};
layerId = "5539344D-F27C-4FBD-A9E2-D2F022F19CCA";
paths = (
{
closed = 1;
nodes = (
"145 -1 OFFCURVE",
"285 -1 OFFCURVE",
"409 1 CURVE",
"421 31 OFFCURVE",
"430 62 OFFCURVE",
"437 103 CURVE",
"436 184 OFFCURVE",
"434 271 OFFCURVE",
"428 351 CURVE SMOOTH",
"419 465 OFFCURVE",
"369 488 OFFCURVE",
"259 494 CURVE SMOOTH",
"203 497 LINE SMOOTH",
"134 501 OFFCURVE",
"131 503 OFFCURVE",
"98 519 CURVE",
"75 519 LINE",
"60 489 OFFCURVE",
"51 464 OFFCURVE",
"47 426 CURVE",
"84 409 OFFCURVE",
"115 405 OFFCURVE",
"192 401 CURVE SMOOTH",
"248 398 LINE SMOOTH",
"321 394 OFFCURVE",
"343 382 OFFCURVE",
"351 301 CURVE SMOOTH",
"356 249 OFFCURVE",
"359 190 OFFCURVE",
"365 101 CURVE",
"263 101 OFFCURVE",
"160 101 OFFCURVE",
"58 101 CURVE",
"52 85 OFFCURVE",
"43 21 OFFCURVE",
"42 1 CURVE"
);
},
{
closed = 1;
nodes = (
"200 207 OFFCURVE",
"209 267 OFFCURVE",
"209 279 CURVE",
"171 287 LINE SMOOTH",
"138 294 OFFCURVE",
"134 299 OFFCURVE",
"136 321 CURVE SMOOTH",
"138 349 OFFCURVE",
"146 394 OFFCURVE",
"151 420 CURVE",
"96 425 LINE",
"79 358 OFFCURVE",
"64 291 OFFCURVE",
"64 261 CURVE SMOOTH",
"64 228 OFFCURVE",
"74 216 OFFCURVE",
"128 207 CURVE SMOOTH",
"192 196 LINE"
);
}
);
width = 460;
},
{
layerId = "798D7B20-9AF4-495F-9307-CAE61518AA1C";
paths = (
{
closed = 1;
nodes = (
"161 0 OFFCURVE",
"281 0 OFFCURVE",
"414 0 CURVE",
"414 85 OFFCURVE",
"414 131 OFFCURVE",
"414 184 CURVE SMOOTH",
"414 235 OFFCURVE",
"414 257 OFFCURVE",
"414 295 CURVE SMOOTH",
"414 417 OFFCURVE",
"386 477 OFFCURVE",
"233 477 CURVE SMOOTH",
"211 477 LINE SMOOTH",
"159 477 OFFCURVE",
"110 477 OFFCURVE",
"55 477 CURVE",
"37 477 LINE",
"37 455 OFFCURVE",
"37 432 OFFCURVE",
"37 407 CURVE",
"60 407 OFFCURVE",
"155 407 OFFCURVE",
"211 407 CURVE SMOOTH",
"233 407 LINE SMOOTH",
"324 407 OFFCURVE",
"338 382 OFFCURVE",
"338 295 CURVE SMOOTH",
"338 98 OFFCURVE",
"338 231 OFFCURVE",
"338 70 CURVE",
"236 70 OFFCURVE",
"135 70 OFFCURVE",
"37 70 CURVE",
"37 47 OFFCURVE",
"37 23 OFFCURVE",
"37 0 CURVE"
);
},
{
closed = 1;
nodes = (
"195 223 OFFCURVE",
"195 247 OFFCURVE",
"195 270 CURVE",
"154 270 LINE SMOOTH",
"118 270 OFFCURVE",
"113 276 OFFCURVE",
"113 307 CURVE SMOOTH",
"113 327 OFFCURVE",
"113 371 OFFCURVE",
"113 424 CURVE",
"37 424 LINE",
"37 386 OFFCURVE",
"36 326 OFFCURVE",
"36 297 CURVE SMOOTH",
"36 229 OFFCURVE",
"62 200 OFFCURVE",
"141 200 CURVE SMOOTH",
"195 200 LINE"
);
}
);
width = 454;
},
{
layerId = "C42C1682-C410-46D1-BF5A-F68DB0880154";
paths = (
{
closed = 1;
nodes = (
"160 0 OFFCURVE",
"257 0 OFFCURVE",
"375 0 CURVE",
"385 39 OFFCURVE",
"390 88 OFFCURVE",
"390 114 CURVE SMOOTH",
"390 163 OFFCURVE",
"385 221 OFFCURVE",
"385 284 CURVE SMOOTH",
"385 476 OFFCURVE",
"367 486 OFFCURVE",
"226 486 CURVE SMOOTH",
"166 486 LINE SMOOTH",
"87 486 OFFCURVE",
"78 492 OFFCURVE",
"68 512 CURVE",
"46 512 LINE",
"35 489 OFFCURVE",
"30 459 OFFCURVE",
"30 435 CURVE SMOOTH",
"30 382 OFFCURVE",
"43 377 OFFCURVE",
"166 377 CURVE SMOOTH",
"226 377 LINE SMOOTH",
"324 377 OFFCURVE",
"340 359 OFFCURVE",
"341 276 CURVE SMOOTH",
"342 222 OFFCURVE",
"341 161 OFFCURVE",
"334 107 CURVE",
"236 107 OFFCURVE",
"150 107 OFFCURVE",
"46 107 CURVE",
"38 91 OFFCURVE",
"38 16 OFFCURVE",
"46 0 CURVE"
);
},
{
closed = 1;
nodes = (
"189 212 OFFCURVE",
"190 263 OFFCURVE",
"188 279 CURVE",
"144 279 LINE SMOOTH",
"109 279 OFFCURVE",
"97 286 OFFCURVE",
"97 310 CURVE SMOOTH",
"97 333 OFFCURVE",
"107 369 OFFCURVE",
"134 418 CURVE",
"100 421 LINE",
"72 369 OFFCURVE",
"54 316 OFFCURVE",
"54 266 CURVE SMOOTH",
"54 220 OFFCURVE",
"68 191 OFFCURVE",
"138 191 CURVE SMOOTH",
"185 191 LINE"
);
}
);
width = 430;
},
{
layerId = "E84AB450-BED0-484C-851E-2EB7B7ED9E73";
paths = (
{
closed = 1;
nodes = (
"115 0 OFFCURVE",
"206 0 OFFCURVE",
"349 0 CURVE",
"358 40 OFFCURVE",
"359 74 OFFCURVE",
"359 103 CURVE SMOOTH",
"359 170 OFFCURVE",
"345 206 OFFCURVE",
"345 272 CURVE SMOOTH",
"345 467 OFFCURVE",
"341 486 OFFCURVE",
"208 486 CURVE SMOOTH",
"128 486 LINE SMOOTH",
"81 486 OFFCURVE",
"58 489 OFFCURVE",
"53 512 CURVE",
"22 512 LINE",
"11 478 OFFCURVE",
"10 437 OFFCURVE",
"10 396 CURVE SMOOTH",
"10 331 OFFCURVE",
"42 313 OFFCURVE",
"128 313 CURVE SMOOTH",
"208 313 LINE SMOOTH",
"300 313 OFFCURVE",
"295 306 OFFCURVE",
"295 248 CURVE SMOOTH",
"295 223 OFFCURVE",
"295 199 OFFCURVE",
"290 174 CURVE",
"203 174 OFFCURVE",
"115 174 OFFCURVE",
"28 174 CURVE",
"19 152 OFFCURVE",
"18 26 OFFCURVE",
"27 0 CURVE"
);
},
{
closed = 1;
nodes = (
"175 217 OFFCURVE",
"175 269 OFFCURVE",
"173 286 CURVE",
"109 286 LINE SMOOTH",
"84 286 OFFCURVE",
"73 293 OFFCURVE",
"73 307 CURVE SMOOTH",
"73 321 OFFCURVE",
"76 334 OFFCURVE",
"87 350 CURVE",
"53 353 LINE",
"32 327 OFFCURVE",
"21 294 OFFCURVE",
"21 266 CURVE SMOOTH",
"21 222 OFFCURVE",
"37 194 OFFCURVE",
"115 194 CURVE SMOOTH",
"171 194 LINE"
);
}
);
width = 383;
},
{
layerId = "FB8990CA-0F96-4B7B-86A4-9D429D534475";
paths = (
{
closed = 1;
nodes = (
"151 -1 OFFCURVE",
"247 0 OFFCURVE",
"480 0 CURVE",
"480 54 OFFCURVE",
"480 100 OFFCURVE",
"480 137 CURVE",
"480 184 OFFCURVE",
"480 232 OFFCURVE",
"480 279 CURVE",
"480 459 OFFCURVE",
"427 500 OFFCURVE",
"263 500 CURVE SMOOTH",
"153 500 LINE SMOOTH",
"119 500 OFFCURVE",
"85 500 OFFCURVE",
"51 500 CURVE",
"25 500 LINE",
"25 479 OFFCURVE",
"25 400 OFFCURVE",
"25 374 CURVE",
"49 374 OFFCURVE",
"72 374 OFFCURVE",
"96 374 CURVE",
"263 374 LINE SMOOTH",
"332 374 OFFCURVE",
"344 362 OFFCURVE",
"344 279 CURVE SMOOTH",
"344 232 OFFCURVE",
"344 185 OFFCURVE",
"344 138 CURVE",
"237 138 OFFCURVE",
"154 138 OFFCURVE",
"34 138 CURVE",
"34 92 OFFCURVE",
"34 46 OFFCURVE",
"34 0 CURVE"
);
},
{
closed = 1;
nodes = (
"238 221 OFFCURVE",
"238 290 OFFCURVE",
"238 306 CURVE",
"192 306 LINE SMOOTH",
"167 306 OFFCURVE",
"156 316 OFFCURVE",
"156 335 CURVE SMOOTH",
"156 350 OFFCURVE",
"156 373 OFFCURVE",
"156 392 CURVE",
"25 392 LINE",
"25 370 OFFCURVE",
"25 338 OFFCURVE",
"25 314 CURVE SMOOTH",
"25 223 OFFCURVE",
"53 192 OFFCURVE",
"160 192 CURVE SMOOTH",
"238 192 LINE"
);
}
);
width = 504;
}
);
leftMetricsKey = "he-hb";
rightMetricsKey = "=resh-hb*0.8";
unicode = 05E4;
},
{
color = 4;
glyphname = "qof-hb";
lastChange = "2019-04-07 14:51:34 +0000";
layers = (
{
associatedMasterId = "D0BE0C1E-19E7-43D2-9BC3-AB141F408D31";
layerId = "0D2F9F62-6D50-490D-B425-4005BBEB55D2";
name = Paths;
paths = (
{
closed = 0;
nodes = (
"311 3 LINE",
"443 73 LINE SMOOTH",
"554 132 OFFCURVE",
"589 205 OFFCURVE",
"589 357 CURVE SMOOTH",
"589 471 OFFCURVE",
"533 500 OFFCURVE",
"447 500 CURVE SMOOTH",
"290 500 LINE SMOOTH",
"228 500 OFFCURVE",
"173 510 OFFCURVE",
"126 530 CURVE"
);
},
{
closed = 0;
nodes = (
"181 -200 LINE",
"192 107 LINE SMOOTH",
"194 171 OFFCURVE",
"206 273 OFFCURVE",
"218 315 CURVE"
);
}
);
width = 752;
},
{
layerId = "D0BE0C1E-19E7-43D2-9BC3-AB141F408D31";
paths = (
{
closed = 1;
nodes = (
"224 -4 LINE",
"288 49 LINE SMOOTH",
"409 149 OFFCURVE",
"444 211 OFFCURVE",
"444 365 CURVE SMOOTH",
"444 472 OFFCURVE",
"413 500 OFFCURVE",
"322 500 CURVE SMOOTH",
"191 500 LINE SMOOTH",
"112 500 OFFCURVE",
"102 500 OFFCURVE",
"69 516 CURVE",
"46 516 LINE",
"32 487 OFFCURVE",
"24 456 OFFCURVE",
"20 420 CURVE",
"56 400 OFFCURVE",
"94 397 OFFCURVE",
"180 397 CURVE SMOOTH",
"287 397 LINE SMOOTH",
"368 397 OFFCURVE",
"376 382 OFFCURVE",
"381 312 CURVE SMOOTH",
"388 219 OFFCURVE",
"375 197 OFFCURVE",
"285 135 CURVE SMOOTH",
"221 91 LINE",
"212 64 OFFCURVE",
"205 33 OFFCURVE",
"203 2 CURVE"
);
},
{
closed = 1;
nodes = (
"81 -162 LINE",
"97 -128 OFFCURVE",
"110 -90 OFFCURVE",
"120 -35 CURVE",
"120 139 LINE SMOOTH",
"120 183 OFFCURVE",
"120 244 OFFCURVE",
"123 306 CURVE",
"91 306 LINE",
"78 273 OFFCURVE",
"69 235 OFFCURVE",
"58 194 CURVE",
"54 162 OFFCURVE",
"49 88 OFFCURVE",
"49 45 CURVE SMOOTH",
"49 -162 LINE"
);
}
);
width = 472;
},
{
layerId = "AFDF4EF8-A213-4348-ACF7-371209F0497C";
paths = (
{
closed = 1;
nodes = (
"220 -12 LINE",
"255 9 LINE SMOOTH",
"389 89 OFFCURVE",
"434 211 OFFCURVE",
"434 345 CURVE SMOOTH",
"434 472 OFFCURVE",
"403 500 OFFCURVE",
"312 500 CURVE SMOOTH",
"191 500 LINE SMOOTH",
"109 500 OFFCURVE",
"101 501 OFFCURVE",
"81 509 CURVE",
"56 509 LINE",
"40 469 OFFCURVE",
"21 389 OFFCURVE",
"20 336 CURVE",
"74 323 OFFCURVE",
"100 318 OFFCURVE",
"183 318 CURVE SMOOTH",
"297 318 LINE SMOOTH",
"339 318 OFFCURVE",
"352 310 OFFCURVE",
"354 285 CURVE SMOOTH",
"357 246 OFFCURVE",
"333 230 OFFCURVE",
"272 196 CURVE SMOOTH",
"215 164 LINE",
"200 112 OFFCURVE",
"193 58 OFFCURVE",
"189 -3 CURVE"
);
},
{
closed = 1;
nodes = (
"79 -169 LINE",
"98 -124 OFFCURVE",
"115 -67 OFFCURVE",
"127 -4 CURVE",
"127 135 LINE SMOOTH",
"127 175 OFFCURVE",
"124 216 OFFCURVE",
"122 245 CURVE",
"75 250 LINE",
"62 220 OFFCURVE",
"51 188 OFFCURVE",
"43 150 CURVE",
"37 118 OFFCURVE",
"31 37 OFFCURVE",
"31 -13 CURVE SMOOTH",
"31 -166 LINE"
);
}
);
width = 454;
},
{
layerId = "A396904D-C838-4FF7-A96F-91F438939708";
paths = (
{
closed = 1;
nodes = (
"251 -7 LINE",
"302 27 LINE SMOOTH",
"417 104 OFFCURVE",
"480 209 OFFCURVE",
"480 351 CURVE SMOOTH",
"480 460 OFFCURVE",
"438 500 OFFCURVE",
"337 500 CURVE SMOOTH",
"235 500 LINE SMOOTH",
"132 500 OFFCURVE",
"116 502 OFFCURVE",
"86 512 CURVE",
"59 512 LINE",
"49 487 OFFCURVE",
"30 395 OFFCURVE",
"27 348 CURVE",
"55 339 OFFCURVE",
"105 335 OFFCURVE",
"172 335 CURVE SMOOTH",
"298 335 LINE SMOOTH",
"340 335 OFFCURVE",
"354 326 OFFCURVE",
"354 292 CURVE SMOOTH",
"354 245 OFFCURVE",
"337 229 OFFCURVE",
"285 197 CURVE SMOOTH",
"247 174 LINE",
"235 121 OFFCURVE",
"225 64 OFFCURVE",
"222 2 CURVE"
);
},
{
closed = 1;
nodes = (
"132 -157 LINE",
"141 -117 OFFCURVE",
"150 -71 OFFCURVE",
"153 -26 CURVE",
"157 117 LINE SMOOTH",
"158 156 OFFCURVE",
"160 211 OFFCURVE",
"163 255 CURVE",
"56 260 LINE",
"51 230 OFFCURVE",
"43 189 OFFCURVE",
"39 155 CURVE",
"33 119 OFFCURVE",
"29 43 OFFCURVE",
"28 -11 CURVE SMOOTH",
"26 -157 LINE"
);
}
);
width = 492;
},
{
layerId = "FB8990CA-0F96-4B7B-86A4-9D429D534475";
paths = (
{
closed = 1;
nodes = (
"346 0 LINE",
"399 115 LINE SMOOTH",
"465 256 OFFCURVE",
"479 310 OFFCURVE",
"479 362 CURVE SMOOTH",
"479 463 OFFCURVE",
"420 500 OFFCURVE",
"310 500 CURVE SMOOTH",
"173 500 LINE SMOOTH",
"147 500 OFFCURVE",
"98 500 OFFCURVE",
"51 500 CURVE",
"25 500 LINE",
"25 479 OFFCURVE",
"25 400 OFFCURVE",
"25 374 CURVE",
"74 374 OFFCURVE",
"121 374 OFFCURVE",
"173 374 CURVE SMOOTH",
"278 374 LINE SMOOTH",
"326 374 OFFCURVE",
"344 366 OFFCURVE",
"344 337 CURVE SMOOTH",
"344 300 OFFCURVE",
"329 270 OFFCURVE",
"308 228 CURVE SMOOTH",
"194 0 LINE",
"232 0 OFFCURVE",
"269 0 OFFCURVE",
"307 0 CURVE"
);
},
{
closed = 1;
nodes = (
"75 -140 LINE",
"104 -140 OFFCURVE",
"132 -140 OFFCURVE",
"161 -140 CURVE",
"161 105 LINE",
"161 156 OFFCURVE",
"161 207 OFFCURVE",
"161 258 CURVE",
"114 258 LINE",
"84 258 OFFCURVE",
"55 258 OFFCURVE",
"25 258 CURVE",
"25 228 OFFCURVE",
"25 158 OFFCURVE",
"25 109 CURVE SMOOTH",
"25 -140 LINE"
);
}
);
width = 509;
},
{
layerId = "E84AB450-BED0-484C-851E-2EB7B7ED9E73";
paths = (
{
closed = 1;
nodes = (
"174 0 LINE",
"200 0 LINE SMOOTH",
"351 0 OFFCURVE",
"410 151 OFFCURVE",
"410 275 CURVE SMOOTH",
"410 469 OFFCURVE",
"390 486 OFFCURVE",
"281 486 CURVE SMOOTH",
"138 486 LINE SMOOTH",
"81 486 OFFCURVE",
"58 489 OFFCURVE",
"53 512 CURVE",
"22 512 LINE",
"11 475 OFFCURVE",
"10 431 OFFCURVE",
"10 397 CURVE SMOOTH",
"10 311 OFFCURVE",
"42 294 OFFCURVE",
"138 294 CURVE SMOOTH",
"310 294 LINE SMOOTH",
"350 294 OFFCURVE",
"356 283 OFFCURVE",
"356 261 CURVE SMOOTH",
"356 221 OFFCURVE",
"321 194 OFFCURVE",
"220 194 CURVE SMOOTH",
"161 194 LINE",
"153 162 OFFCURVE",
"153 41 OFFCURVE",
"161 0 CURVE"
);
},
{
closed = 1;
nodes = (
"92 -129 LINE",
"111 -46 OFFCURVE",
"112 -14 OFFCURVE",
"112 38 CURVE SMOOTH",
"112 83 LINE SMOOTH",
"112 164 OFFCURVE",
"99 216 OFFCURVE",
"92 245 CURVE",
"50 245 LINE",
"44 224 OFFCURVE",
"37 175 OFFCURVE",
"36 122 CURVE",
"36 96 OFFCURVE",
"36 65 OFFCURVE",
"36 37 CURVE SMOOTH",
"36 -129 LINE"
);
}
);
width = 440;
},
{
background = {
paths = (
{
closed = 1;
nodes = (
"83 235 OFFCURVE",
"61 134 OFFCURVE",
"61 69 CURVE SMOOTH",
"61 -140 LINE",
"122 -140 LINE",
"122 65 LINE SMOOTH",
"122 128 OFFCURVE",
"124 224 OFFCURVE",
"131 270 CURVE",
"94 270 LINE"
);
}
);
};
layerId = "C42C1682-C410-46D1-BF5A-F68DB0880154";
paths = (
{
closed = 1;
nodes = (
"247 0 LINE",
"295 47 LINE SMOOTH",
"356 107 OFFCURVE",
"410 181 OFFCURVE",
"410 296 CURVE SMOOTH",
"410 433 OFFCURVE",
"392 486 OFFCURVE",
"289 486 CURVE SMOOTH",
"183 486 LINE SMOOTH",
"87 486 OFFCURVE",
"78 492 OFFCURVE",
"68 512 CURVE",
"46 512 LINE",
"35 489 OFFCURVE",
"30 459 OFFCURVE",
"30 435 CURVE SMOOTH",
"30 382 OFFCURVE",
"43 378 OFFCURVE",
"183 377 CURVE SMOOTH",
"279 376 LINE SMOOTH",
"353 375 OFFCURVE",
"366 365 OFFCURVE",
"366 295 CURVE SMOOTH",
"366 220 OFFCURVE",
"327 177 OFFCURVE",
"265 126 CURVE SMOOTH",
"209 80 LINE",
"210 53 OFFCURVE",
"214 27 OFFCURVE",
"223 0 CURVE"
);
},
{
closed = 1;
nodes = (
"94 -169 LINE",
"110 -134 OFFCURVE",
"129 -75 OFFCURVE",
"130 -39 CURVE",
"118 136 LINE SMOOTH",
"115 177 OFFCURVE",
"115 223 OFFCURVE",
"115 252 CURVE",
"77 252 LINE",
"71 231 OFFCURVE",
"66 205 OFFCURVE",
"61 172 CURVE",
"59 143 OFFCURVE",
"56 106 OFFCURVE",
"56 67 CURVE",
"56 -169 LINE"
);
}
);
width = 440;
},
{
layerId = "798D7B20-9AF4-495F-9307-CAE61518AA1C";
paths = (
{
closed = 1;
nodes = (
"278 0 LINE",
"360 146 LINE SMOOTH",
"414 242 OFFCURVE",
"434 307 OFFCURVE",
"434 351 CURVE SMOOTH",
"434 434 OFFCURVE",
"392 477 OFFCURVE",
"282 477 CURVE SMOOTH",
"211 477 LINE SMOOTH",
"159 477 OFFCURVE",
"110 477 OFFCURVE",
"55 477 CURVE",
"36 477 LINE",
"36 455 OFFCURVE",
"36 432 OFFCURVE",
"36 407 CURVE",
"59 407 OFFCURVE",
"155 407 OFFCURVE",
"211 407 CURVE SMOOTH",
"282 407 LINE SMOOTH",
"336 407 OFFCURVE",
"358 391 OFFCURVE",
"358 350 CURVE SMOOTH",
"358 314 OFFCURVE",
"351 277 OFFCURVE",
"286 164 CURVE SMOOTH",
"192 0 LINE",
"212 0 OFFCURVE",
"232 0 OFFCURVE",
"252 0 CURVE"
);
},
{
closed = 1;
nodes = (
"65 -120 LINE",
"81 -120 OFFCURVE",
"97 -120 OFFCURVE",
"113 -120 CURVE",
"113 106 LINE SMOOTH",
"113 159 OFFCURVE",
"113 238 OFFCURVE",
"113 275 CURVE",
"85 275 LINE",
"69 275 OFFCURVE",
"52 275 OFFCURVE",
"36 275 CURVE",
"36 248 OFFCURVE",
"36 165 OFFCURVE",
"36 108 CURVE SMOOTH",
"36 -120 LINE"
);
}
);
width = 454;
},
{
layerId = "5539344D-F27C-4FBD-A9E2-D2F022F19CCA";
paths = (
{
closed = 1;
nodes = (
"249 -2 LINE",
"306 44 LINE SMOOTH",
"462 170 OFFCURVE",
"473 232 OFFCURVE",
"473 351 CURVE SMOOTH",
"473 462 OFFCURVE",
"427 500 OFFCURVE",
"328 500 CURVE SMOOTH",
"215 500 LINE SMOOTH",
"150 500 OFFCURVE",
"110 504 OFFCURVE",
"89 513 CURVE",
"67 513 LINE",
"55 486 OFFCURVE",
"45 456 OFFCURVE",
"42 433 CURVE",
"65 416 OFFCURVE",
"128 411 OFFCURVE",
"184 411 CURVE SMOOTH",
"306 411 LINE SMOOTH",
"387 411 OFFCURVE",
"396 398 OFFCURVE",
"401 326 CURVE SMOOTH",
"407 244 OFFCURVE",
"400 213 OFFCURVE",
"277 126 CURVE SMOOTH",
"233 95 LINE",
"221 70 OFFCURVE",
"215 31 OFFCURVE",
"217 2 CURVE"
);
},
{
closed = 1;
nodes = (
"96 -200 LINE",
"112 -166 OFFCURVE",
"126 -123 OFFCURVE",
"137 -77 CURVE",
"134 76 LINE SMOOTH",
"132 162 OFFCURVE",
"133 236 OFFCURVE",
"136 301 CURVE",
"106 307 LINE",
"93 280 OFFCURVE",
"80 251 OFFCURVE",
"71 218 CURVE",
"66 181 OFFCURVE",
"59 92 OFFCURVE",
"57 6 CURVE SMOOTH",
"53 -200 LINE"
);
}
);
width = 513;
}
);
leftMetricsKey = "he-hb";
rightMetricsKey = "lamed-hb";
unicode = 05E7;
},
{
color = 4;
glyphname = "resh-hb";
lastChange = "2019-04-07 12:11:58 +0000";
layers = (
{
layerId = "D0BE0C1E-19E7-43D2-9BC3-AB141F408D31";
paths = (
{
closed = 1;
nodes = (
"314 0 LINE",
"327 32 OFFCURVE",
"338 65 OFFCURVE",
"348 109 CURVE",
"348 192 OFFCURVE",
"349 279 OFFCURVE",
"347 357 CURVE SMOOTH",
"343 471 OFFCURVE",
"307 500 OFFCURVE",
"191 500 CURVE SMOOTH",
"171 500 LINE SMOOTH",
"102 500 OFFCURVE",
"92 500 OFFCURVE",
"59 516 CURVE",
"36 516 LINE",
"22 487 OFFCURVE",
"14 456 OFFCURVE",
"10 420 CURVE",
"46 400 OFFCURVE",
"84 397 OFFCURVE",
"160 397 CURVE SMOOTH",
"180 397 LINE SMOOTH",
"270 397 OFFCURVE",
"274 388 OFFCURVE",
"278 307 CURVE SMOOTH",
"281 237 OFFCURVE",
"283 152 OFFCURVE",
"286 0 CURVE"
);
}
);
width = 398;
},
{
layerId = "AFDF4EF8-A213-4348-ACF7-371209F0497C";
paths = (
{
closed = 1;
nodes = (
"312 0 LINE",
"329 54 OFFCURVE",
"344 111 OFFCURVE",
"351 177 CURVE",
"351 251 OFFCURVE",
"350 298 OFFCURVE",
"345 367 CURVE SMOOTH",
"338 465 OFFCURVE",
"298 500 OFFCURVE",
"196 500 CURVE SMOOTH",
"176 500 LINE SMOOTH",
"104 500 OFFCURVE",
"96 501 OFFCURVE",
"76 509 CURVE",
"51 509 LINE",
"35 469 OFFCURVE",
"16 389 OFFCURVE",
"15 336 CURVE",
"69 323 OFFCURVE",
"95 318 OFFCURVE",
"168 318 CURVE SMOOTH",
"188 318 LINE SMOOTH",
"249 318 OFFCURVE",
"259 304 OFFCURVE",
"263 226 CURVE SMOOTH",
"267 156 OFFCURVE",
"270 81 OFFCURVE",
"273 0 CURVE"
);
}
);
width = 373;
},
{
layerId = "A396904D-C838-4FF7-A96F-91F438939708";
paths = (
{
closed = 1;
nodes = (
"348 0 LINE",
"359 45 OFFCURVE",
"373 100 OFFCURVE",
"379 161 CURVE",
"379 232 OFFCURVE",
"378 315 OFFCURVE",
"374 378 CURVE SMOOTH",
"369 456 OFFCURVE",
"325 500 OFFCURVE",
"200 500 CURVE SMOOTH",
"180 500 LINE SMOOTH",
"110 500 OFFCURVE",
"95 502 OFFCURVE",
"65 512 CURVE",
"38 512 LINE",
"28 487 OFFCURVE",
"9 395 OFFCURVE",
"6 348 CURVE",
"34 339 OFFCURVE",
"84 335 OFFCURVE",
"121 335 CURVE SMOOTH",
"141 335 LINE SMOOTH",
"245 335 OFFCURVE",
"256 318 OFFCURVE",
"259 232 CURVE SMOOTH",
"261 180 OFFCURVE",
"265 79 OFFCURVE",
"265 0 CURVE"
);
}
);
width = 400;
},
{
layerId = "5539344D-F27C-4FBD-A9E2-D2F022F19CCA";
paths = (
{
closed = 1;
nodes = (
"365 0 LINE",
"370 31 OFFCURVE",
"374 64 OFFCURVE",
"376 104 CURVE",
"379 159 OFFCURVE",
"380 220 OFFCURVE",
"378 296 CURVE SMOOTH",
"374 449 OFFCURVE",
"354 500 OFFCURVE",
"203 500 CURVE SMOOTH",
"183 500 LINE SMOOTH",
"118 500 OFFCURVE",
"78 504 OFFCURVE",
"57 513 CURVE",
"35 513 LINE",
"23 486 OFFCURVE",
"13 456 OFFCURVE",
"10 433 CURVE",
"33 416 OFFCURVE",
"96 411 OFFCURVE",
"142 411 CURVE SMOOTH",
"162 411 LINE SMOOTH",
"293 411 OFFCURVE",
"297 396 OFFCURVE",
"303 278 CURVE SMOOTH",
"310 146 OFFCURVE",
"309 98 OFFCURVE",
"314 0 CURVE"
);
}
);
width = 408;
},
{
layerId = "798D7B20-9AF4-495F-9307-CAE61518AA1C";
paths = (
{
closed = 1;
nodes = (
"346 0 LINE",
"346 85 OFFCURVE",
"346 131 OFFCURVE",
"346 184 CURVE SMOOTH",
"346 235 OFFCURVE",
"346 257 OFFCURVE",
"346 295 CURVE SMOOTH",
"346 417 OFFCURVE",
"312 477 OFFCURVE",
"175 477 CURVE SMOOTH",
"155 477 LINE SMOOTH",
"122 477 OFFCURVE",
"83 477 OFFCURVE",
"39 477 CURVE",
"20 477 LINE",
"20 455 OFFCURVE",
"20 432 OFFCURVE",
"20 407 CURVE",
"39 407 OFFCURVE",
"117 407 OFFCURVE",
"155 407 CURVE SMOOTH",
"175 407 LINE SMOOTH",
"250 407 OFFCURVE",
"270 382 OFFCURVE",
"270 295 CURVE SMOOTH",
"270 124 OFFCURVE",
"270 188 OFFCURVE",
"270 0 CURVE"
);
}
);
width = 396;
},
{
layerId = "C42C1682-C410-46D1-BF5A-F68DB0880154";
paths = (
{
closed = 1;
nodes = (
"326 -4 LINE",
"340 36 OFFCURVE",
"354 58 OFFCURVE",
"354 116 CURVE SMOOTH",
"354 165 OFFCURVE",
"342 221 OFFCURVE",
"342 284 CURVE SMOOTH",
"342 476 OFFCURVE",
"324 486 OFFCURVE",
"183 486 CURVE SMOOTH",
"163 486 LINE SMOOTH",
"77 486 OFFCURVE",
"68 492 OFFCURVE",
"58 512 CURVE",
"36 512 LINE",
"25 489 OFFCURVE",
"20 459 OFFCURVE",
"20 435 CURVE SMOOTH",
"20 382 OFFCURVE",
"33 377 OFFCURVE",
"163 377 CURVE SMOOTH",
"183 377 LINE SMOOTH",
"281 377 OFFCURVE",
"297 359 OFFCURVE",
"298 276 CURVE SMOOTH",
"299 178 OFFCURVE",
"297 55 OFFCURVE",
"295 0 CURVE"
);
}
);
width = 404;
},
{
layerId = "E84AB450-BED0-484C-851E-2EB7B7ED9E73";
paths = (
{
closed = 1;
nodes = (
"319 0 LINE",
"328 40 OFFCURVE",
"329 74 OFFCURVE",
"329 103 CURVE SMOOTH",
"329 170 OFFCURVE",
"315 206 OFFCURVE",
"315 272 CURVE SMOOTH",
"315 467 OFFCURVE",
"301 486 OFFCURVE",
"148 486 CURVE SMOOTH",
"128 486 LINE SMOOTH",
"81 486 OFFCURVE",
"58 489 OFFCURVE",
"53 512 CURVE",
"22 512 LINE",
"11 475 OFFCURVE",
"10 431 OFFCURVE",
"10 397 CURVE SMOOTH",
"10 311 OFFCURVE",
"42 294 OFFCURVE",
"128 294 CURVE SMOOTH",
"148 294 LINE SMOOTH",
"260 294 OFFCURVE",
"264 289 OFFCURVE",
"264 248 CURVE SMOOTH",
"264 165 OFFCURVE",
"262 83 OFFCURVE",
"270 0 CURVE"
);
}
);
width = 359;
},
{
layerId = "FB8990CA-0F96-4B7B-86A4-9D429D534475";
paths = (
{
closed = 1;
nodes = (
"387 0 LINE",
"387 47 OFFCURVE",
"387 87 OFFCURVE",
"387 119 CURVE SMOOTH",
"387 172 OFFCURVE",
"387 199 OFFCURVE",
"387 279 CURVE SMOOTH",
"387 459 OFFCURVE",
"334 500 OFFCURVE",
"169 500 CURVE SMOOTH",
"149 500 LINE SMOOTH",
"133 500 OFFCURVE",
"84 500 OFFCURVE",
"37 500 CURVE",
"11 500 LINE",
"11 479 OFFCURVE",
"11 400 OFFCURVE",
"11 374 CURVE",
"60 374 OFFCURVE",
"107 374 OFFCURVE",
"149 374 CURVE SMOOTH",
"169 374 LINE SMOOTH",
"239 374 OFFCURVE",
"251 362 OFFCURVE",
"251 279 CURVE SMOOTH",
"251 108 OFFCURVE",
"251 109 OFFCURVE",
"251 0 CURVE"
);
}
);
width = 417;
}
);
unicode = 05E8;
},
{
color = 3;
glyphname = "tav-hb";
lastChange = "2019-04-30 14:27:18 +0000";
layers = (
{
layerId = "D0BE0C1E-19E7-43D2-9BC3-AB141F408D31";
paths = (
{
closed = 1;
nodes = (
"470 0 LINE",
"483 32 OFFCURVE",
"494 65 OFFCURVE",
"504 109 CURVE",
"504 191 OFFCURVE",
"505 279 OFFCURVE",
"503 357 CURVE SMOOTH",
"500 471 OFFCURVE",
"465 500 OFFCURVE",
"337 500 CURVE SMOOTH",
"239 500 OFFCURVE",
"135 500 OFFCURVE",
"89 516 CURVE",
"66 516 LINE",
"52 487 OFFCURVE",
"44 456 OFFCURVE",
"40 420 CURVE",
"89 400 OFFCURVE",
"222 397 OFFCURVE",
"326 397 CURVE SMOOTH",
"426 397 OFFCURVE",
"431 388 OFFCURVE",
"434 307 CURVE SMOOTH",
"437 237 OFFCURVE",
"439 152 OFFCURVE",
"442 0 CURVE"
);
},
{
closed = 1;
nodes = (
"95 -2 OFFCURVE",
"133 -2 OFFCURVE",
"160 0 CURVE",
"177 30 OFFCURVE",
"190 64 OFFCURVE",
"202 99 CURVE",
"202 192 OFFCURVE",
"204 227 OFFCURVE",
"201 315 CURVE",
"196 420 OFFCURVE",
"175 446 OFFCURVE",
"102 474 CURVE",
"56 415 LINE",
"118 394 OFFCURVE",
"126 387 OFFCURVE",
"138 271 CURVE SMOOTH",
"142 212 OFFCURVE",
"144 171 OFFCURVE",
"149 45 CURVE",
"172 100 LINE",
"156 100 OFFCURVE",
"108 100 OFFCURVE",
"52 100 CURVE",
"46 82 OFFCURVE",
"37 21 OFFCURVE",
"36 0 CURVE"
);
}
);
width = 554;
},
{
layerId = "AFDF4EF8-A213-4348-ACF7-371209F0497C";
paths = (
{
closed = 1;
nodes = (
"454 0 LINE",
"469 56 OFFCURVE",
"484 113 OFFCURVE",
"493 177 CURVE",
"493 251 OFFCURVE",
"492 298 OFFCURVE",
"487 367 CURVE SMOOTH",
"480 466 OFFCURVE",
"441 500 OFFCURVE",
"328 500 CURVE SMOOTH",
"126 500 OFFCURVE",
"116 501 OFFCURVE",
"96 509 CURVE",
"71 509 LINE",
"55 469 OFFCURVE",
"36 389 OFFCURVE",
"35 336 CURVE",
"89 323 OFFCURVE",
"117 318 OFFCURVE",
"320 318 CURVE SMOOTH",
"391 318 OFFCURVE",
"401 304 OFFCURVE",
"405 226 CURVE SMOOTH",
"409 156 OFFCURVE",
"412 81 OFFCURVE",
"415 0 CURVE"
);
},
{
closed = 1;
nodes = (
"93 -3 OFFCURVE",
"111 -3 OFFCURVE",
"179 0 CURVE",
"194 57 OFFCURVE",
"209 115 OFFCURVE",
"218 178 CURVE",
"218 244 OFFCURVE",
"215 285 OFFCURVE",
"206 347 CURVE SMOOTH",
"190 458 OFFCURVE",
"159 471 OFFCURVE",
"83 496 CURVE",
"78 327 LINE",
"114 314 OFFCURVE",
"116 271 OFFCURVE",
"129 220 CURVE SMOOTH",
"134 200 OFFCURVE",
"137 174 OFFCURVE",
"140 147 CURVE",
"164 182 LINE",
"120 182 OFFCURVE",
"107 182 OFFCURVE",
"53 182 CURVE",
"45 145 OFFCURVE",
"27 52 OFFCURVE",
"25 0 CURVE"
);
}
);
width = 515;
},
{
layerId = "A396904D-C838-4FF7-A96F-91F438939708";
paths = (
{
closed = 1;
nodes = (
"523 0 LINE",
"534 45 OFFCURVE",
"548 100 OFFCURVE",
"554 161 CURVE",
"552 234 OFFCURVE",
"553 316 OFFCURVE",
"549 378 CURVE SMOOTH",
"544 456 OFFCURVE",
"501 500 OFFCURVE",
"365 500 CURVE SMOOTH",
"157 500 OFFCURVE",
"125 502 OFFCURVE",
"95 512 CURVE",
"68 512 LINE",
"58 487 OFFCURVE",
"39 395 OFFCURVE",
"36 348 CURVE",
"64 339 OFFCURVE",
"129 335 OFFCURVE",
"306 335 CURVE SMOOTH",
"420 335 OFFCURVE",
"431 318 OFFCURVE",
"434 232 CURVE SMOOTH",
"436 180 OFFCURVE",
"440 79 OFFCURVE",
"440 0 CURVE"
);
},
{
closed = 1;
nodes = (
"103 -2 OFFCURVE",
"160 -2 OFFCURVE",
"228 0 CURVE",
"239 45 OFFCURVE",
"253 100 OFFCURVE",
"259 161 CURVE",
"259 226 OFFCURVE",
"254 299 OFFCURVE",
"242 361 CURVE SMOOTH",
"227 439 OFFCURVE",
"209 451 OFFCURVE",
"140 483 CURVE",
"74 341 LINE",
"121 326 OFFCURVE",
"120 299 OFFCURVE",
"127 260 CURVE SMOOTH",
"134 221 OFFCURVE",
"139 179 OFFCURVE",
"139 147 CURVE",
"163 167 LINE",
"123 167 OFFCURVE",
"85 167 OFFCURVE",
"43 167 CURVE",
"36 138 OFFCURVE",
"21 44 OFFCURVE",
"18 0 CURVE"
);
}
);
width = 575;
},
{
layerId = "5539344D-F27C-4FBD-A9E2-D2F022F19CCA";
paths = (
{
closed = 1;
nodes = (
"515 0 LINE",
"520 31 OFFCURVE",
"524 64 OFFCURVE",
"526 104 CURVE",
"529 159 OFFCURVE",
"530 220 OFFCURVE",
"528 296 CURVE SMOOTH",
"524 449 OFFCURVE",
"504 500 OFFCURVE",
"343 500 CURVE SMOOTH",
"197 500 OFFCURVE",
"104 504 OFFCURVE",
"79 513 CURVE",
"57 513 LINE",
"45 486 OFFCURVE",
"35 456 OFFCURVE",
"32 433 CURVE",
"59 416 OFFCURVE",
"179 411 OFFCURVE",
"302 411 CURVE SMOOTH",
"443 411 OFFCURVE",
"447 396 OFFCURVE",
"453 278 CURVE SMOOTH",
"460 146 OFFCURVE",
"459 98 OFFCURVE",
"464 0 CURVE"
);
},
{
closed = 1;
nodes = (
"120 -2 OFFCURVE",
"158 -2 OFFCURVE",
"175 0 CURVE",
"188 31 OFFCURVE",
"199 64 OFFCURVE",
"206 104 CURVE",
"209 153 OFFCURVE",
"207 202 OFFCURVE",
"201 270 CURVE SMOOTH",
"192 388 OFFCURVE",
"175 431 OFFCURVE",
"118 466 CURVE",
"37 430 LINE",
"112 405 OFFCURVE",
"114 347 OFFCURVE",
"126 272 CURVE SMOOTH",
"136 180 OFFCURVE",
"139 143 OFFCURVE",
"144 74 CURVE",
"165 101 LINE",
"136 101 OFFCURVE",
"106 101 OFFCURVE",
"48 101 CURVE",
"42 76 OFFCURVE",
"33 19 OFFCURVE",
"34 0 CURVE"
);
}
);
width = 558;
},
{
layerId = "798D7B20-9AF4-495F-9307-CAE61518AA1C";
paths = (
{
closed = 1;
nodes = (
"499 0 LINE",
"499 85 OFFCURVE",
"499 131 OFFCURVE",
"499 184 CURVE SMOOTH",
"499 235 OFFCURVE",
"499 257 OFFCURVE",
"499 295 CURVE SMOOTH",
"499 417 OFFCURVE",
"471 477 OFFCURVE",
"348 477 CURVE SMOOTH",
"290 477 OFFCURVE",
"117 477 OFFCURVE",
"58 477 CURVE",
"47 477 LINE",
"47 455 OFFCURVE",
"47 432 OFFCURVE",
"47 407 CURVE",
"71 407 OFFCURVE",
"288 407 OFFCURVE",
"348 407 CURVE SMOOTH",
"409 407 OFFCURVE",
"423 382 OFFCURVE",
"423 295 CURVE SMOOTH",
"423 124 OFFCURVE",
"423 188 OFFCURVE",
"423 0 CURVE"
);
},
{
closed = 1;
nodes = (
"108 0 OFFCURVE",
"119 0 OFFCURVE",
"195 0 CURVE",
"195 94 OFFCURVE",
"195 145 OFFCURVE",
"195 204 CURVE SMOOTH",
"195 259 OFFCURVE",
"195 303 OFFCURVE",
"195 325 CURVE SMOOTH",
"195 384 OFFCURVE",
"195 413 OFFCURVE",
"195 426 CURVE",
"120 426 LINE",
"120 421 OFFCURVE",
"119 384 OFFCURVE",
"119 325 CURVE SMOOTH",
"119 136 OFFCURVE",
"119 241 OFFCURVE",
"119 47 CURVE",
"133 70 LINE",
"112 70 OFFCURVE",
"88 70 OFFCURVE",
"37 70 CURVE",
"37 47 OFFCURVE",
"37 23 OFFCURVE",
"37 0 CURVE"
);
}
);
width = 549;
},
{
layerId = "C42C1682-C410-46D1-BF5A-F68DB0880154";
paths = (
{
closed = 1;
nodes = (
"466 -4 LINE",
"480 36 OFFCURVE",
"494 58 OFFCURVE",
"494 116 CURVE SMOOTH",
"494 162 OFFCURVE",
"482 216 OFFCURVE",
"482 275 CURVE SMOOTH",
"482 477 OFFCURVE",
"464 486 OFFCURVE",
"303 486 CURVE SMOOTH",
"127 486 OFFCURVE",
"118 492 OFFCURVE",
"108 512 CURVE",
"86 512 LINE",
"75 489 OFFCURVE",
"70 459 OFFCURVE",
"70 435 CURVE SMOOTH",
"70 382 OFFCURVE",
"83 377 OFFCURVE",
"303 377 CURVE SMOOTH",
"421 377 OFFCURVE",
"437 358 OFFCURVE",
"438 267 CURVE SMOOTH",
"439 173 OFFCURVE",
"437 53 OFFCURVE",
"435 0 CURVE"
);
},
{
closed = 1;
nodes = (
"115 -2 OFFCURVE",
"164 -2 OFFCURVE",
"195 -2 CURVE",
"200 30 OFFCURVE",
"205 48 OFFCURVE",
"205 94 CURVE SMOOTH",
"205 149 OFFCURVE",
"186 209 OFFCURVE",
"186 290 CURVE SMOOTH",
"186 324 OFFCURVE",
"189 369 OFFCURVE",
"209 406 CURVE",
"166 406 LINE",
"143 377 OFFCURVE",
"134 324 OFFCURVE",
"134 292 CURVE SMOOTH",
"134 224 OFFCURVE",
"134 118 OFFCURVE",
"134 87 CURVE",
"152 105 LINE",
"127 105 OFFCURVE",
"109 105 OFFCURVE",
"54 105 CURVE",
"46 89 OFFCURVE",
"46 14 OFFCURVE",
"54 -2 CURVE"
);
}
);
width = 544;
},
{
layerId = "E84AB450-BED0-484C-851E-2EB7B7ED9E73";
paths = (
{
closed = 1;
nodes = (
"426 0 LINE",
"435 40 OFFCURVE",
"436 74 OFFCURVE",
"436 103 CURVE SMOOTH",
"436 170 OFFCURVE",
"422 206 OFFCURVE",
"422 272 CURVE SMOOTH",
"422 476 OFFCURVE",
"408 486 OFFCURVE",
"253 486 CURVE SMOOTH",
"116 486 OFFCURVE",
"85 489 OFFCURVE",
"80 512 CURVE",
"49 512 LINE",
"38 475 OFFCURVE",
"37 431 OFFCURVE",
"37 397 CURVE SMOOTH",
"37 311 OFFCURVE",
"77 294 OFFCURVE",
"253 294 CURVE SMOOTH",
"364 294 OFFCURVE",
"371 293 OFFCURVE",
"371 248 CURVE SMOOTH",
"371 164 OFFCURVE",
"369 81 OFFCURVE",
"377 0 CURVE"
);
},
{
closed = 1;
nodes = (
"89 0 OFFCURVE",
"114 0 OFFCURVE",
"150 0 CURVE",
"157 40 OFFCURVE",
"158 74 OFFCURVE",
"158 103 CURVE SMOOTH",
"158 170 OFFCURVE",
"151 206 OFFCURVE",
"151 232 CURVE SMOOTH",
"151 268 OFFCURVE",
"155 280 OFFCURVE",
"171 332 CURVE",
"128 331 LINE",
"119 309 OFFCURVE",
"109 287 OFFCURVE",
"101 259 CURVE SMOOTH",
"94 234 OFFCURVE",
"93 209 OFFCURVE",
"94 172 CURVE",
"111 194 LINE",
"88 194 OFFCURVE",
"76 194 OFFCURVE",
"25 194 CURVE",
"16 170 OFFCURVE",
"16 29 OFFCURVE",
"25 0 CURVE"
);
}
);
width = 466;
},
{
layerId = "FB8990CA-0F96-4B7B-86A4-9D429D534475";
paths = (
{
closed = 1;
nodes = (
"551 0 LINE",
"551 47 OFFCURVE",
"551 87 OFFCURVE",
"551 119 CURVE SMOOTH",
"551 172 OFFCURVE",
"551 199 OFFCURVE",
"551 279 CURVE SMOOTH",
"551 475 OFFCURVE",
"508 500 OFFCURVE",
"323 500 CURVE SMOOTH",
"197 500 OFFCURVE",
"146 500 OFFCURVE",
"99 500 CURVE",
"33 500 LINE",
"33 479 OFFCURVE",
"33 400 OFFCURVE",
"33 374 CURVE",
"94 374 OFFCURVE",
"152 374 OFFCURVE",
"323 374 CURVE SMOOTH",
"413 374 OFFCURVE",
"415 374 OFFCURVE",
"415 279 CURVE SMOOTH",
"415 186 OFFCURVE",
"415 93 OFFCURVE",
"415 0 CURVE"
);
},
{
closed = 1;
nodes = (
"115 -1 OFFCURVE",
"158 -1 OFFCURVE",
"243 0 CURVE",
"243 47 OFFCURVE",
"243 87 OFFCURVE",
"243 119 CURVE SMOOTH",
"243 198 OFFCURVE",
"243 224 OFFCURVE",
"243 305 CURVE SMOOTH",
"243 369 OFFCURVE",
"243 393 OFFCURVE",
"243 413 CURVE",
"108 413 LINE",
"108 391 OFFCURVE",
"107 365 OFFCURVE",
"107 295 CURVE SMOOTH",
"107 176 OFFCURVE",
"107 183 OFFCURVE",
"107 100 CURVE",
"134 138 LINE",
"88 138 OFFCURVE",
"80 138 OFFCURVE",
"30 138 CURVE",
"30 104 OFFCURVE",
"30 32 OFFCURVE",
"30 0 CURVE"
);
}
);
width = 581;
}
);
leftMetricsKey = "nun-hb";
rightMetricsKey = "resh-hb";
unicode = 05EA;
},
{
color = 3;
glyphname = period;
lastChange = "2019-04-30 14:25:45 +0000";
layers = (
{
layerId = "D0BE0C1E-19E7-43D2-9BC3-AB141F408D31";
paths = (
{
closed = 1;
nodes = (
"147 -12 OFFCURVE",
"172 14 OFFCURVE",
"172 48 CURVE SMOOTH",
"172 82 OFFCURVE",
"147 108 OFFCURVE",
"113 108 CURVE SMOOTH",
"79 108 OFFCURVE",
"53 82 OFFCURVE",
"53 48 CURVE SMOOTH",
"53 14 OFFCURVE",
"79 -12 OFFCURVE",
"113 -12 CURVE SMOOTH"
);
}
);
width = 225;
},
{
layerId = "AFDF4EF8-A213-4348-ACF7-371209F0497C";
paths = (
{
closed = 1;
nodes = (
"163 -12 OFFCURVE",
"197 22 OFFCURVE",
"197 67 CURVE SMOOTH",
"197 112 OFFCURVE",
"163 146 OFFCURVE",
"119 146 CURVE SMOOTH",
"74 146 OFFCURVE",
"40 112 OFFCURVE",
"40 67 CURVE SMOOTH",
"40 22 OFFCURVE",
"74 -12 OFFCURVE",
"119 -12 CURVE SMOOTH"
);
}
);
width = 237;
},
{
layerId = "A396904D-C838-4FF7-A96F-91F438939708";
paths = (
{
closed = 1;
nodes = (
"163 -12 OFFCURVE",
"197 22 OFFCURVE",
"197 67 CURVE SMOOTH",
"197 112 OFFCURVE",
"163 146 OFFCURVE",
"119 146 CURVE SMOOTH",
"74 146 OFFCURVE",
"40 112 OFFCURVE",
"40 67 CURVE SMOOTH",
"40 22 OFFCURVE",
"74 -12 OFFCURVE",
"119 -12 CURVE SMOOTH"
);
}
);
width = 237;
},
{
layerId = "5539344D-F27C-4FBD-A9E2-D2F022F19CCA";
paths = (
{
closed = 1;
nodes = (
"144 -12 OFFCURVE",
"167 12 OFFCURVE",
"167 43 CURVE SMOOTH",
"167 75 OFFCURVE",
"144 99 OFFCURVE",
"113 99 CURVE SMOOTH",
"82 99 OFFCURVE",
"58 75 OFFCURVE",
"58 43 CURVE SMOOTH",
"58 12 OFFCURVE",
"82 -12 OFFCURVE",
"113 -12 CURVE SMOOTH"
);
}
);
width = 225;
},
{
layerId = "798D7B20-9AF4-495F-9307-CAE61518AA1C";
paths = (
{
closed = 1;
nodes = (
"140 -12 OFFCURVE",
"161 9 OFFCURVE",
"161 37 CURVE SMOOTH",
"161 65 OFFCURVE",
"140 87 OFFCURVE",
"113 87 CURVE SMOOTH",
"85 87 OFFCURVE",
"64 65 OFFCURVE",
"64 37 CURVE SMOOTH",
"64 9 OFFCURVE",
"85 -12 OFFCURVE",
"113 -12 CURVE SMOOTH"
);
}
);
width = 225;
},
{
layerId = "C42C1682-C410-46D1-BF5A-F68DB0880154";
paths = (
{
closed = 1;
nodes = (
"145 -12 OFFCURVE",
"170 13 OFFCURVE",
"170 46 CURVE SMOOTH",
"170 78 OFFCURVE",
"145 103 OFFCURVE",
"113 103 CURVE SMOOTH",
"80 103 OFFCURVE",
"55 78 OFFCURVE",
"55 46 CURVE SMOOTH",
"55 13 OFFCURVE",
"80 -12 OFFCURVE",
"113 -12 CURVE SMOOTH"
);
}
);
width = 225;
},
{
layerId = "E84AB450-BED0-484C-851E-2EB7B7ED9E73";
paths = (
{
closed = 1;
nodes = (
"163 -12 OFFCURVE",
"197 22 OFFCURVE",
"197 67 CURVE SMOOTH",
"197 112 OFFCURVE",
"163 146 OFFCURVE",
"119 146 CURVE SMOOTH",
"74 146 OFFCURVE",
"40 112 OFFCURVE",
"40 67 CURVE SMOOTH",
"40 22 OFFCURVE",
"74 -12 OFFCURVE",
"119 -12 CURVE SMOOTH"
);
}
);
width = 237;
},
{
layerId = "FB8990CA-0F96-4B7B-86A4-9D429D534475";
paths = (
{
closed = 1;
nodes = (
"163 -12 OFFCURVE",
"197 22 OFFCURVE",
"197 67 CURVE SMOOTH",
"197 112 OFFCURVE",
"163 146 OFFCURVE",
"119 146 CURVE SMOOTH",
"74 146 OFFCURVE",
"40 112 OFFCURVE",
"40 67 CURVE SMOOTH",
"40 22 OFFCURVE",
"74 -12 OFFCURVE",
"119 -12 CURVE SMOOTH"
);
}
);
width = 237;
}
);
rightMetricsKey = "=|";
unicode = 002E;
},
{
color = 3;
glyphname = slash;
lastChange = "2019-04-30 14:25:45 +0000";
layers = (
{
layerId = "D0BE0C1E-19E7-43D2-9BC3-AB141F408D31";
paths = (
{
closed = 1;
nodes = (
"90 -200 LINE",
"396 700 LINE",
"326 700 LINE",
"20 -200 LINE"
);
}
);
width = 416;
},
{
layerId = "AFDF4EF8-A213-4348-ACF7-371209F0497C";
paths = (
{
closed = 1;
nodes = (
"120 -200 LINE",
"426 700 LINE",
"326 700 LINE",
"20 -200 LINE"
);
}
);
width = 446;
},
{
layerId = "A396904D-C838-4FF7-A96F-91F438939708";
paths = (
{
closed = 1;
nodes = (
"160 -200 LINE",
"466 700 LINE",
"326 700 LINE",
"20 -200 LINE"
);
}
);
width = 486;
},
{
layerId = "5539344D-F27C-4FBD-A9E2-D2F022F19CCA";
paths = (
{
closed = 1;
nodes = (
"100 -200 LINE",
"406 700 LINE",
"326 700 LINE",
"20 -200 LINE"
);
}
);
width = 426;
},
{
layerId = "798D7B20-9AF4-495F-9307-CAE61518AA1C";
paths = (
{
closed = 1;
nodes = (
"100 -200 LINE",
"406 700 LINE",
"326 700 LINE",
"20 -200 LINE"
);
}
);
width = 426;
},
{
layerId = "C42C1682-C410-46D1-BF5A-F68DB0880154";
paths = (
{
closed = 1;
nodes = (
"75 -200 LINE",
"381 700 LINE",
"326 700 LINE",
"20 -200 LINE"
);
}
);
width = 401;
},
{
layerId = "E84AB450-BED0-484C-851E-2EB7B7ED9E73";
paths = (
{
closed = 1;
nodes = (
"100 -200 LINE",
"406 700 LINE",
"326 700 LINE",
"20 -200 LINE"
);
}
);
width = 426;
},
{
layerId = "FB8990CA-0F96-4B7B-86A4-9D429D534475";
paths = (
{
closed = 1;
nodes = (
"160 -200 LINE",
"466 700 LINE",
"326 700 LINE",
"20 -200 LINE"
);
}
);
width = 486;
}
);
rightMetricsKey = "=|";
unicode = 002F;
},
